<svg version="1.1" id="Layer_1" xmlns="http://www.w3.org/2000/svg" xmlns:xlink="http://www.w3.org/1999/xlink" x="0px" y="0px" width="841.889px" height="595.281px" viewBox="0 0 841.889 595.281" enable-background="new 0 0 841.889 595.281" xml:space="preserve">
<path fill="#FFFFFF" d="M563.812,369.11v-30.026c0-9.738-7.882-17.632-17.62-17.632H420.945H260.005
	c-9.739,0-17.645,7.894-17.645,17.632v131.402c0,9.751,7.905,17.644,17.645,17.644H432.85h113.342c9.738,0,17.62-7.893,17.62-17.632
	v-30.025c23.812-0.167,35.419-16.062,35.419-35.682S587.623,369.276,563.812,369.11z M563.812,428.566v0.036h-11.905v41.896
	c0,3.155-2.56,5.727-5.715,5.727h-84.363h-5.167H432.85h-11.905l0,0l0,0H260.005c-3.155,0-5.739-2.571-5.739-5.738V339.084
	c0-3.167,2.584-5.727,5.739-5.727h160.939h11.905h23.812h5.167h84.363c3.155,0,5.715,2.571,5.715,5.727v41.896h11.905v0.036
	c11.905,0.167,23.514,10.751,23.514,23.775S575.717,428.4,563.812,428.566z"></path>
<path fill="#FFFFFF" d="M563.812,154.808v-30.025c0-9.739-7.882-17.633-17.62-17.633H420.945H260.005
	c-9.739,0-17.645,7.894-17.645,17.633v131.402c0,9.75,7.905,17.644,17.645,17.644H432.85h113.342c9.738,0,17.62-7.894,17.62-17.632
	v-30.026c23.812-0.167,35.419-16.061,35.419-35.681C599.231,170.869,587.623,154.975,563.812,154.808z M563.812,214.265v0.035
	h-11.905v41.896c0,3.154-2.56,5.727-5.715,5.727h-84.363h-5.167H432.85h-11.905l0,0l0,0H260.005c-3.155,0-5.739-2.572-5.739-5.738
	V124.783c0-3.167,2.584-5.727,5.739-5.727h160.939h11.905h23.812h5.167h84.363c3.155,0,5.715,2.571,5.715,5.727v41.896h11.905v0.036
	c11.905,0.166,23.514,10.75,23.514,23.775C587.325,203.514,575.717,214.098,563.812,214.265z"></path>
</svg>
