<svg version="1.1" xmlns="http://www.w3.org/2000/svg" xmlns:xlink="http://www.w3.org/1999/xlink" x="0px" y="0px" viewBox="0 0 40 40" style="enable-background:new 0 0 40 40;" xml:space="preserve">
<g>
	<path fill="#fff" d="M14.5,14c-0.3,0-0.5,0.2-0.5,0.5v7c0,0.3,0.2,0.5,0.5,0.5s0.5-0.2,0.5-0.5v-7C15,14.2,14.8,14,14.5,14z"></path>
	<path fill="#fff" d="M10.8,14.5c-0.3,0-0.5,0.3-0.4,0.5l0.6,6c0,0.3,0.2,0.4,0.5,0.4c0,0,0,0,0.1,0c0.3,0,0.5-0.3,0.4-0.5l-0.6-6
		C11.3,14.7,11.1,14.5,10.8,14.5z"></path>
	<path fill="#fff" d="M18.6,14.5c-0.3,0-0.5,0.2-0.5,0.4l-0.6,6c0,0.3,0.2,0.5,0.4,0.5c0,0,0,0,0.1,0c0.3,0,0.5-0.2,0.5-0.4l0.6-6
		C19,14.8,18.8,14.5,18.6,14.5z"></path>
	<path fill="#fff" d="M35.9,23.7c-0.1-0.2-0.2-0.3-0.4-0.3l-6-0.9L26.8,17c-0.2-0.3-0.7-0.3-0.9,0l-2.7,5.5l-3,0.4L23,12.6
		c0-0.1,0-0.3-0.1-0.4c-0.1-0.1-0.2-0.2-0.4-0.2h-0.6c0.1-0.3,0.1-0.7,0.1-1c0-2.6-2-4.7-4.6-5c-1.1-1.1-2.7-1.8-4.3-1.8
		C9.7,4.3,7,7,7,10.4c0,0.6,0.1,1.1,0.2,1.6H6.5c-0.2,0-0.3,0.1-0.4,0.2C6,12.3,6,12.5,6,12.6l3,11C9.1,23.8,9.3,24,9.5,24h7.3
		c0,0.1,0,0.1,0.1,0.2l4.4,4.2l-1,6c0,0.2,0,0.4,0.2,0.5c0.2,0.1,0.4,0.1,0.5,0l5.4-2.8l5.4,2.8c0.1,0,0.2,0.1,0.2,0.1
		c0.1,0,0.2,0,0.3-0.1c0.2-0.1,0.2-0.3,0.2-0.5l-1-6l4.4-4.2C35.9,24,35.9,23.8,35.9,23.7z M8,10.4c0-2.8,2.3-5.1,5.1-5.1
		c1,0,2,0.3,2.8,0.9c-1.1,0.2-2.1,0.8-2.8,1.8c-0.2,0.2-0.1,0.5,0.1,0.7c0.2,0.2,0.5,0.1,0.7-0.1C14.6,7.6,15.8,7,17,7
		c0,0.1,0.1,0.1,0.1,0.2c0.2,0.2,0.5,0.2,0.7,0.1c0,0,0.1-0.1,0.1-0.1c1.8,0.4,3.1,2,3.1,3.9c0,0.3-0.1,0.7-0.1,1H8.3
		C8.1,11.5,8,10.9,8,10.4z M7.2,13h14.1c0,0,0,0,0,0c0,0,0,0,0,0h0.6l-2.7,10H9.9L7.2,13z M30.5,27.9c-0.1,0.1-0.2,0.3-0.1,0.4
		l0.9,5.3l-4.7-2.5c-0.1-0.1-0.3-0.1-0.5,0l-4.7,2.5l0.9-5.3c0-0.2,0-0.3-0.1-0.4l-3.8-3.7l1.1-0.2h0.1c0,0,0,0,0.1,0l4-0.6
		c0.2,0,0.3-0.1,0.4-0.3l2.4-4.8l2.4,4.8c0.1,0.1,0.2,0.2,0.4,0.3l5.3,0.8L30.5,27.9z"></path>
</g>
</svg>
