<svg version="1.1" id="Layer_1" xmlns="http://www.w3.org/2000/svg" xmlns:xlink="http://www.w3.org/1999/xlink" x="0px" y="0px" viewBox="0 0 40 40" style="enable-background:new 0 0 40 40;" xml:space="preserve">
<g>
	<circle fill="#fff" cx="21" cy="9" r="1"></circle>
	<path fill="#fff" d="M19.1,28.8c-0.3,0-0.5,0.2-0.5,0.5c0,0.3,0.2,0.5,0.5,0.5c0,0,0,0,0.1,0c1,0,7.4-0.2,8.2-6.3
		c0-0.3-0.2-0.5-0.4-0.6c-0.3,0-0.5,0.2-0.6,0.4C25.6,29,19.4,28.8,19.1,28.8z"></path>
	<path fill="#fff" d="M27.8,15.9c1.7,0,2.9-0.4,3.9-1.1c1-0.8,1.5-1.9,1.5-3.4c0-2.5-1.8-4.2-4.4-4.2c-1.9,0-4.1,1-4.8,1.3V6h-7v6
		h-1v2.4c-1.3-0.2-4.4-0.4-6.3,1.8c-2.4,2.8-0.8,6,0.4,7.4c0,0.3-0.1,0.6-0.1,1c0,2.7,1.6,5.1,4,6.7V35h13v-3.8c2.4-1.6,4-4,4-6.7
		c0-3.4-2.5-6.3-6-7.7v-1.2C26,15.8,27,15.9,27.8,15.9z M24.2,9.5c0,0,2.6-1.3,4.6-1.3c1.7,0,3.4,1,3.4,3.2c0,0.8-0.2,1.8-1.1,2.6
		c-1.2,0.9-3.3,1.1-6.1,0.6V12h-1V9.6C24.1,9.6,24.2,9.6,24.2,9.5z M18,7h5v5h-5V7z M10.4,16.8c1.7-1.9,4.5-1.6,5.6-1.4v1.4
		c-2.7,1.1-4.8,3-5.6,5.4C9.7,21.2,8.6,18.9,10.4,16.8z M26,34H15v-2.3c1.6,0.8,3.5,1.3,5.5,1.3c2,0,3.9-0.5,5.5-1.3V34z M30,24.5
		c0,2.5-1.5,4.6-3.8,6H26v0.1c-1.6,0.9-3.4,1.4-5.5,1.4s-3.9-0.5-5.5-1.4v-0.1h-0.2c-2.3-1.4-3.8-3.5-3.8-6c0-4.1,4.3-7.5,9.5-7.5
		S30,20.4,30,24.5z M20.5,16c-1.2,0-2.4,0.2-3.5,0.5V13h7v3.5C22.9,16.2,21.7,16,20.5,16z"></path>
</g>
</svg>
