<svg version="1.1" id="Layer_1" xmlns="http://www.w3.org/2000/svg" xmlns:xlink="http://www.w3.org/1999/xlink" x="0px" y="0px" width="841.889px" height="595.281px" viewBox="0 0 841.889 595.281" enable-background="new 0 0 841.889 595.281" xml:space="preserve">
<g>
	<path fill="#FFFFFF" d="M290.328,274.519l-9.501-26.847h-51.872l-9.501,26.847h-13.513l43.693-118.746h10.667l43.527,118.746
		H290.328L290.328,274.519z M255.135,173.953l-22.347,62.707h44.36L255.135,173.953z"></path>
	<path fill="#FFFFFF" d="M369.31,275.519c-24.014,0-41.359-16.513-41.359-40.193v-79.553h12.667v78.553
		c0,18.014,11.347,29.859,28.681,29.859c17.347,0,28.859-11.846,28.859-29.859v-78.553h12.668v79.553
		C410.837,259.007,393.336,275.519,369.31,275.519z"></path>
	<path fill="#FFFFFF" d="M484.985,167.119v107.4h-12.667v-107.4h-34.36v-11.346h81.387v11.346H484.985z"></path>
	<path fill="#FFFFFF" d="M612.172,263.174c-8,8-18.513,12.334-30.347,12.334c-11.847,0-22.348-4.334-30.359-12.334
		c-11.168-11.168-11.168-22.847-11.168-48.027s0-36.859,11.168-48.039c8.012-8.001,18.513-12.334,30.359-12.334
		c11.834,0,22.347,4.333,30.347,12.346c11.168,11.18,11.168,22.847,11.168,48.027S623.34,252.006,612.172,263.174z M602.326,174.62
		c-5.179-5.334-12.668-8.501-20.514-8.501s-15.346,3.167-20.525,8.501c-7.5,7.679-8.333,15.667-8.333,40.526
		c0,24.847,0.833,32.848,8.333,40.515c5.18,5.334,12.68,8.513,20.525,8.513s15.335-3.179,20.514-8.513
		c7.501-7.679,8.334-15.668,8.334-40.515C610.672,190.287,609.827,182.299,602.326,174.62z"></path>
	<path fill="#FFFFFF" d="M257.981,442.198c-17.847,0-29.514-4.5-40.693-15.668l8.68-8.679c9.834,9.834,19.013,13.013,32.348,13.013
		c17.346,0,28.014-8.179,28.014-22.025c0-6.167-1.834-11.501-5.667-14.834c-3.834-3.334-6.834-4.334-15.514-5.68l-13.846-2.166
		c-9.334-1.513-16.68-4.513-21.847-9.013c-6.001-5.334-9.001-12.668-9.001-22.181c0-20.168,14.501-33.514,38.026-33.514
		c15.168,0,25.181,3.833,35.348,13.013l-8.167,8.179c-7.334-6.679-15.18-10.167-27.681-10.167c-15.846,0-25.025,8.834-25.025,22.014
		c0,5.833,1.667,10.513,5.334,13.667c3.679,3.179,9.846,5.513,16.013,6.513l13.013,2c11.168,1.667,16.68,4,21.681,8.334
		c6.5,5.5,10,13.668,10,23.525C298.995,429.352,282.65,442.198,257.981,442.198z"></path>
	<path fill="#FFFFFF" d="M366.989,333.798v107.4h-12.68v-107.4h-34.348v-11.346h81.387v11.346H366.989z"></path>
	<path fill="#FFFFFF" d="M494.164,429.852c-8.001,8-18.514,12.334-30.348,12.334c-11.846,0-22.347-4.334-30.359-12.334
		c-11.167-11.168-11.167-22.847-11.167-48.027s0-36.859,11.167-48.027c8.024-8.013,18.514-12.346,30.371-12.346
		c11.834,0,22.347,4.333,30.348,12.346c11.167,11.168,11.167,22.847,11.167,48.027S505.343,418.684,494.164,429.852z
		 M484.33,341.299c-5.18-5.334-12.668-8.501-20.514-8.501s-15.347,3.167-20.525,8.501c-7.5,7.679-8.334,15.667-8.334,40.526
		c0,24.847,0.834,32.848,8.334,40.515c5.179,5.334,12.68,8.513,20.525,8.513s15.334-3.179,20.514-8.513
		c7.5-7.679,8.334-15.668,8.334-40.515C492.664,356.966,491.83,348.977,484.33,341.299z"></path>
	<path fill="#FFFFFF" d="M585.98,392.326h-31.502v48.86h-12.691V322.44h44.193c21.681,0,36.693,13.513,36.693,34.859
		S607.672,392.326,585.98,392.326z M584.825,333.798h-30.348v47.194h30.348c14.846,0,25.181-8.013,25.181-23.681
		S599.671,333.798,584.825,333.798z"></path>
</g>
</svg>
