<svg version="1.1" id="Layer_1" xmlns="http://www.w3.org/2000/svg" xmlns:xlink="http://www.w3.org/1999/xlink" x="0px" y="0px" width="841.889px" height="595.281px" viewBox="0 0 841.889 595.281" enable-background="new 0 0 841.889 595.281" xml:space="preserve">
<g>
	<path fill="#FFFFFF" d="M306.627,357.013l-9.501-26.858h-51.86l-9.501,26.847H222.24l43.693-118.747h10.667l43.527,118.747h-13.501
		V357.013z M271.447,256.447l-22.348,62.707h44.36L271.447,256.447z"></path>
	<path fill="#FFFFFF" d="M378.942,358.013c-24.014,0-41.36-16.513-41.36-40.193v-79.553h12.668v78.553
		c0,18.014,11.346,29.848,28.681,29.848c17.347,0,28.848-11.834,28.848-29.848v-78.553h12.679v79.553
		C420.481,341.501,402.967,358.013,378.942,358.013z"></path>
	<path fill="#FFFFFF" d="M487.961,249.613v107.4h-12.668v-107.4h-34.359v-11.346h81.387v11.346H487.961z"></path>
	<path fill="#FFFFFF" d="M608.47,345.668c-8.001,8-18.514,12.346-30.348,12.346c-11.846,0-22.347-4.333-30.359-12.346
		c-11.167-11.168-11.167-22.847-11.167-48.027s0-36.86,11.167-48.027c8.013-8.001,18.514-12.347,30.359-12.347
		c11.834,0,22.347,4.334,30.348,12.347c11.179,11.167,11.179,22.847,11.179,48.027S619.649,334.5,608.47,345.668z M598.636,257.113
		c-5.179-5.333-12.668-8.5-20.514-8.5s-15.347,3.167-20.525,8.5c-7.5,7.68-8.334,15.68-8.334,40.527
		c0,24.847,0.834,32.859,8.334,40.526c5.179,5.334,12.68,8.501,20.525,8.501s15.335-3.167,20.514-8.501
		c7.5-7.667,8.334-15.667,8.334-40.526C606.97,272.793,606.136,264.793,598.636,257.113z"></path>
</g>
</svg>
