<svg version="1.1" id="Layer_1" xmlns="http://www.w3.org/2000/svg" xmlns:xlink="http://www.w3.org/1999/xlink" x="0px" y="0px" width="841.889px" height="595.281px" viewBox="0 0 841.889 595.281" enable-background="new 0 0 841.889 595.281" xml:space="preserve">
<path fill="#FFFFFF" d="M496.199,297.51l67.612-142.736L420.337,222.04l-142.021-67.267l66.934,142.748l-66.934,142.748
	l142.034-67.267l143.462,67.267L496.199,297.51z M513.94,204.467l-30.907,65.231l-10.965-23.156l-23.812-11.275L513.94,204.467z
	 M328.01,204.645l64.385,30.502l-22.953,10.763l-11.037,23.55L328.01,204.645z M328.01,390.397l30.383-64.826l11.061,23.573
	l22.941,10.75L328.01,390.397z M472.043,348.525l10.989-23.192l30.907,65.243l-65.684-30.788L472.043,348.525z"></path>
</svg>
