<svg version="1.1" xmlns="http://www.w3.org/2000/svg" xmlns:xlink="http://www.w3.org/1999/xlink" x="0px" y="0px" width="841.889px" height="595.281px" viewBox="0 0 841.889 595.281" enable-background="new 0 0 841.889 595.281" xml:space="preserve">
    <path fill="#FFFFFF" d="M432.85,410.125v-46.349l37.276-37.265l-8.417-8.417l-28.859,28.847V226.207h-11.905v56.944l-31.098-31.098
        l-8.417,8.417l39.515,39.539v110.115c-35.3-10.751-83.339-28.633-83.339-93.078c0-69.791,46.86-122.259,89.292-168.477
        c42.432,46.218,89.292,98.686,89.292,168.477C516.19,381.492,468.151,399.374,432.85,410.125 M528.095,317.047
        c0-79.542-57.23-138.069-101.197-186.085C382.93,178.977,325.7,237.505,325.7,317.047c0,75.231,59.337,94.721,95.244,105.508
        v65.575h11.905v-65.575C468.757,411.767,528.095,392.278,528.095,317.047"></path>
</svg>
