<svg version="1.1" id="Layer_1" xmlns="http://www.w3.org/2000/svg" xmlns:xlink="http://www.w3.org/1999/xlink" x="0px" y="0px" viewBox="0 0 40 40" style="enable-background:new 0 0 40 40;" xml:space="preserve">
<path fill="#fff" d="M33.2,18.7c-0.3-0.5-0.8-0.7-1.4-0.7h-4.4L19.9,7.2l0,0l0-0.1l-0.1,0.3L12.6,18H8.2c-0.6,0-1.1,0.3-1.4,0.7
	c-0.3,0.5-0.4,1-0.2,1.6l2.2,6.5c0.2,0.6,0.7,1,1.3,1.1V32h20v-4.1c0.6-0.1,1.1-0.5,1.3-1.1l2.2-6.5C33.6,19.8,33.5,19.2,33.2,18.7z
	 M26.2,18h-3.4l-2.2-8L26.2,18z M21.8,18h-3.6l1.7-6.9L21.8,18z M19.1,10.2L17.2,18h-3.4L19.1,10.2z M29,31H11v-3h18V31z M32.5,20
	l-2.2,6.5c-0.1,0.3-0.4,0.5-0.7,0.5H10.4c-0.3,0-0.6-0.2-0.7-0.5L7.5,20c-0.1-0.2,0-0.5,0.1-0.7S8,19,8.2,19h23.5
	c0.2,0,0.5,0.1,0.6,0.3C32.5,19.5,32.6,19.7,32.5,20z"></path>
</svg>
