<svg version="1.1" id="Layer_1" xmlns="http://www.w3.org/2000/svg" xmlns:xlink="http://www.w3.org/1999/xlink" x="0px" y="0px" width="841.889px" height="595.281px" viewBox="0 0 841.889 595.281" enable-background="new 0 0 841.889 595.281" xml:space="preserve">
<g>
	<path fill="#FFFFFF" d="M426.898,166.678c68.921,0,125.009,56.075,125.009,125.009s-56.088,125.009-125.009,125.009
		c-68.922,0-125.009-56.075-125.009-125.009S357.976,166.678,426.898,166.678 M326.069,384.099l8.418,8.417
		c22.311,20.454,51.349,33.562,83.481,35.634v59.979h17.858v-59.98c71.434-4.607,127.985-63.85,127.985-136.462
		c0-75.612-61.302-136.914-136.914-136.914c-75.624,0-136.915,61.302-136.915,136.914
		C289.983,327.344,303.734,359.728,326.069,384.099"></path>
	<path fill="#FFFFFF" d="M436.279,302.498l52.98,57.909l8.786-8.036l-52.979-57.909c3.452-6.477,2.702-14.68-2.536-20.406
		s-13.347-7.191-20.097-4.334l-16.811-18.37l-8.786,8.036l16.811,18.37c-3.453,6.477-2.702,14.68,2.536,20.406
		S429.517,305.355,436.279,302.498"></path>
</g>
</svg>
