<svg version="1.1" id="Layer_1" xmlns="http://www.w3.org/2000/svg" xmlns:xlink="http://www.w3.org/1999/xlink" x="0px" y="0px" width="841.889px" height="595.281px" viewBox="0 0 841.889 595.281" enable-background="new 0 0 841.889 595.281" xml:space="preserve">
<g>
	<path fill="#FFFFFF" d="M534.048,214.289c-9.847,0-17.858-8.013-17.858-17.858c0-9.834,8.012-17.847,17.858-17.847
		c9.846,0,17.858,8.013,17.858,17.847C551.906,206.276,543.894,214.289,534.048,214.289 M563.812,196.43
		c0-16.441-13.322-29.752-29.764-29.752c-16.442,0-29.765,13.311-29.765,29.752c0,14.395,10.228,26.407,23.812,29.157v191.108H540
		V225.588C553.585,222.838,563.812,210.825,563.812,196.43"></path>
	<path fill="#FFFFFF" d="M319.747,428.602c-9.846,0-17.858-8.013-17.858-17.858s8.013-17.858,17.858-17.858
		s17.858,8.013,17.858,17.858S329.593,428.602,319.747,428.602 M325.7,381.575V190.49h-11.906v191.085
		c-13.596,2.762-23.812,14.763-23.812,29.169c0,16.43,13.323,29.764,29.765,29.764s29.764-13.334,29.764-29.764
		C349.511,396.338,339.296,384.337,325.7,381.575"></path>
	<path fill="#FFFFFF" d="M426.898,321.952c-9.846,0-17.858-8.013-17.858-17.858c0-9.847,8.013-17.859,17.858-17.859
		s17.858,8.013,17.858,17.859C444.756,313.939,436.743,321.952,426.898,321.952 M432.85,274.936V190.49h-11.905v84.446
		c-13.584,2.75-23.811,14.763-23.811,29.157c0,14.394,10.227,26.406,23.811,29.156v83.446h11.905V333.25
		c13.585-2.75,23.812-14.763,23.812-29.156C456.661,289.699,446.435,277.686,432.85,274.936"></path>
</g>
</svg>
