<svg version="1.1" id="Layer_1" xmlns="http://www.w3.org/2000/svg" xmlns:xlink="http://www.w3.org/1999/xlink" x="0px" y="0px" viewBox="0 0 40 40" style="enable-background:new 0 0 40 40;" xml:space="preserve">
<g>
	<path fill="#fff" d="M9.9,16l3.4,18h13.5l3.4-18H9.9z M25.9,33H14.1l-3-16h8.4v2H20h0.5v-2h8.4L25.9,33z"></path>
	<path fill="#fff" d="M14,13c0.9,0,1.7,0.6,1.9,1.5l0.1,0.4l2,0l-0.5-0.8C17.2,13.6,17,13,17,12.4c0-1.7,1.3-3,3-3s3,1.3,3,3
		c0,0.6-0.2,1.2-0.5,1.7L22,14.8l2,0l0.1-0.4c0.2-0.9,1-1.5,1.9-1.5c1.1,0,2,0.9,2,2h1c0-1.7-1.3-3-3-3c-0.8,0-1.5,0.3-2,0.8
		c0-0.1,0-0.3,0-0.4c0-2-1.5-3.7-3.5-3.9V5h-1v3.4c-2,0.2-3.5,1.9-3.5,3.9c0,0.1,0,0.3,0,0.4c-0.5-0.5-1.3-0.8-2-0.8
		c-1.7,0-3,1.3-3,3h1C12,13.9,12.9,13,14,13z"></path>
	<path fill="#fff" d="M17,21h1c0-0.5,0.9-1,2-1s2,0.5,2,1s-0.9,1-2,1c-1.7,0-3,0.9-3,2h1c0-0.5,0.9-1,2-1s2,0.5,2,1s-0.9,1-2,1
		c-1.7,0-3,0.9-3,2v1c0,1.1,1.3,2,3,2c1.7,0,3-0.9,3-2h-1c0,0.5-0.9,1-2,1s-2-0.5-2-1v-1c0-0.5,0.9-1,2-1s2,0.5,2,1h1
		c0-0.6-0.4-1.1-1-1.5c0.6-0.4,1-0.9,1-1.5s-0.4-1.1-1-1.5c0.6-0.4,1-0.9,1-1.5c0-1.1-1.3-2-3-2C18.3,19,17,19.9,17,21z"></path>
</g>
</svg>
