<svg version="1.1" id="Layer_1" xmlns="http://www.w3.org/2000/svg" xmlns:xlink="http://www.w3.org/1999/xlink" x="0px" y="0px" viewBox="0 0 40 40" style="enable-background:new 0 0 40 40;" xml:space="preserve">
<g>
	<path fill="#fff" d="M13.4,24.3L13.4,24.3l-5.5,8.5V33h1l1.5-2.4h7.2l1.6,2.4h1.1v-0.2l-5.5-8.5H13.4z M11.1,29.7l3-4.6l2.9,4.6
		H11.1z"></path>
	<path fill="#fff" d="M29.5,31.4L29.5,31.4c-0.1,0.5-0.5,0.8-1.1,0.8h-5.3c-0.7,0-0.9-0.4-0.9-0.9V26h-1v5.3c0,1.1,0.8,1.8,2,1.8
		h4.6c0.8,0,1.4-0.3,1.7-0.9l0.2,0.9h0.8V26h-1V31.4z"></path>
	<path fill="#fff" d="M23.1,15h-6.3c-0.2,0-0.4,0.1-0.5,0.4l-1.9,6c0,0.2,0,0.3,0.1,0.4S14.8,22,15,22h10c0.2,0,0.3-0.1,0.4-0.2
		c0.1-0.1,0.1-0.3,0.1-0.4l-1.9-6C23.6,15.1,23.4,15,23.1,15z M15.7,21l1.6-5h5.5l1.5,5H15.7z"></path>
	<path fill="#fff" d="M13.4,21.8c0.1-0.1,0.1-0.3,0.1-0.4l-1.9-6c-0.1-0.2-0.3-0.4-0.5-0.4H4.9c-0.2,0-0.4,0.1-0.5,0.4l-1.9,6
		c0,0.2,0,0.3,0.1,0.4S2.8,22,3,22h10C13.2,22,13.3,21.9,13.4,21.8z M3.7,21l1.6-5h5.5l1.6,5H3.7z"></path>
	<path fill="#fff" d="M9,14h10c0.2,0,0.3-0.1,0.4-0.2c0.1-0.1,0.1-0.3,0.1-0.4l-1.9-6C17.6,7.1,17.4,7,17.1,7h-6.3
		c-0.2,0-0.4,0.1-0.5,0.4l-1.9,6c0,0.2,0,0.3,0.1,0.4C8.7,13.9,8.8,14,9,14z M11.2,8h5.5l1.6,5H9.7L11.2,8z"></path>
	<path fill="#fff" d="M21,14h10c0.2,0,0.3-0.1,0.4-0.2c0.1-0.1,0.1-0.3,0.1-0.4l-1.9-6C29.6,7.1,29.4,7,29.1,7h-6.3
		c-0.2,0-0.4,0.1-0.5,0.4l-1.9,6c0,0.2,0,0.3,0.1,0.4C20.7,13.9,20.8,14,21,14z M23.2,8h5.5l1.5,5h-8.6L23.2,8z"></path>
	<path fill="#fff" d="M37.5,21.4l-1.9-6c-0.1-0.2-0.3-0.4-0.5-0.4h-6.3c-0.2,0-0.4,0.1-0.5,0.4l-1.9,6c0,0.2,0,0.3,0.1,0.4
		c0.1,0.1,0.2,0.2,0.4,0.2h10c0.2,0,0.3-0.1,0.4-0.2C37.5,21.7,37.5,21.5,37.5,21.4z M27.7,21l1.5-5h5.5l1.5,5H27.7z"></path>
</g>
</svg>
