<svg version="1.1" id="Layer_1" xmlns="http://www.w3.org/2000/svg" xmlns:xlink="http://www.w3.org/1999/xlink" x="0px" y="0px" width="841.889px" height="595.281px" viewBox="0 0 841.889 595.281" enable-background="new 0 0 841.889 595.281" xml:space="preserve">
<g>
	<path fill="#FFFFFF" d="M486.021,309.463l-3.488,3.488l-85.78,85.768c-4.381,4.382-10.19,6.799-16.37,6.799
		c-6.179,0-11.988-2.417-16.358-6.799l-66.944-66.921c-9.013-9.013-9.013-23.704,0-32.74l100.436-100.412v75.184h11.905v-87.09
		l2.071-2.06l107.96,107.973l16.466,16.87l-44.956-0.048L486.021,309.463z M349.892,166.678c0-13.12,10.68-23.812,23.812-23.812
		c13.144,0,23.812,10.691,23.812,23.812v15.12l-47.623,47.622V166.678z M527.976,284.342L527.976,284.342L411.491,167.845
		l-2.071,2.048v-3.215c0-19.716-15.989-35.717-35.717-35.717c-19.716,0-35.717,16.001-35.717,35.717v74.648l-49.325,49.312
		c-13.68,13.704-13.68,35.896,0,49.587l66.934,66.922c6.857,6.846,15.822,10.274,24.787,10.274s17.942-3.429,24.788-10.274
		l85.779-85.768l73.243,0.071L527.976,284.342z"></path>
	<path fill="#FFFFFF" d="M552.097,452.426c-13.025,0-23.621-10.608-23.621-23.633c0-0.953,0.083-1.894,0.227-3.096
		c1.393-15.537,13.536-36.419,23.299-50.623c9.608,14.12,21.621,34.86,23.479,50.588c0.143,1.023,0.237,2.071,0.237,3.131
		C575.717,441.817,565.133,452.426,552.097,452.426 M587.278,424.066c-3.523-29.717-35.229-69.064-35.229-69.064
		s-32.502,39.848-35.205,69.624c-0.166,1.369-0.273,2.75-0.273,4.167c0,19.632,15.906,35.538,35.526,35.538
		s35.526-15.906,35.526-35.538C587.623,427.185,587.492,425.614,587.278,424.066"></path>
</g>
</svg>
