<svg version="1.1" id="Layer_1" xmlns="http://www.w3.org/2000/svg" xmlns:xlink="http://www.w3.org/1999/xlink" x="0px" y="0px" viewBox="0 0 40 40" style="enable-background:new 0 0 40.1 40.2;" xml:space="preserve">
<g>
	<path fill="#fff" d="M31.8,11.7c-1.7-5.6-7.9-5.3-7.9-5.3s-5.6-0.2-7.5,4.6c0,0-0.3,0.9-0.5,1.8c-0.2,1-0.4,1.8-0.4,1.8
		s-1.1,0.7-2.4,1.7c-3,2.2-7.8,6.2-7.8,11.3c0,1.9,0.3,4.5,3.8,5.9c4.1,1.7,7.5-1.6,7.5-1.6s0,2.1,0.8,2.1c1.9,0,2-0.4,2.5-0.6
		c0.5-0.2,0.8-0.2,0.8-0.2h6.5c0,0,0.3,0,0.7,0.2c0.4,0.2,0.6,0.6,2.5,0.6c0.8,0,0.8-2.1,0.8-2.1s1.3-0.3,1.9-1.4
		c0.6-1,0.5-2.6,0.5-2.6S33.8,18.1,31.8,11.7z M15.7,15.3c0,0,0.1,0,0.2-0.1l0.8,1.5c-0.3,0.2-0.6,0.4-1,0.6l-0.8-1.4L15.7,15.3z
		 M16.7,14.9c0.3-0.2,0.7-0.3,1.3-0.5l0.7,1.4c-0.5,0.2-0.9,0.4-1.3,0.6L16.7,14.9z M14.2,16.4l0.8,1.3c-0.4,0.2-0.6,0.4-0.6,0.4
		l0,0l-0.1,0.1c-0.1,0.1-0.2,0.2-0.2,0.2l-0.9-1.3L14.2,16.4z M12.5,17.6l0.9,1.3c-0.3,0.2-0.6,0.6-1,0.9l-1-1.3
		C11.8,18.2,12.2,17.9,12.5,17.6z M10.8,19.1l1.1,1.3c-0.2,0.2-0.6,0.5-0.8,0.8L11,21.3l-1.1-1.1C10.1,19.7,10.5,19.4,10.8,19.1z
		 M9.2,20.6l1.1,1.1c-0.2,0.2-0.5,0.5-0.6,0.7l-1.3-1C8.7,21.3,9,21,9.2,20.6z M7.9,22.3l1.4,0.8c-0.2,0.2-0.3,0.5-0.5,0.6l-1.5-0.7
		C7.6,22.8,7.7,22.6,7.9,22.3z M6.9,23.9l1.5,0.7c-0.1,0.2-0.2,0.5-0.3,0.7l-1.5-0.5C6.7,24.4,6.8,24.2,6.9,23.9z M6.3,25.6l1.5,0.5
		c-0.1,0.2-0.1,0.4-0.2,0.6L6,26.5C6.1,26.1,6.2,25.9,6.3,25.6z M6,27.8c0-0.2,0-0.4,0-0.6l1.6,0.2c0,0.1,0,0.2,0,0.2s0,0.2,0,0.2
		L6,28.2C6,28.1,6,27.9,6,27.8z M6.5,30.1c-0.2-0.3-0.3-0.7-0.4-1.1l1.6-0.2c0.1,0.2,0.1,0.5,0.2,0.6L6.5,30.1z M6.9,30.8l1.3-0.7
		c0.2,0.2,0.3,0.4,0.5,0.6l-0.9,1.1C7.5,31.5,7.3,31.2,6.9,30.8z M10.1,32.8c-0.5-0.2-1.1-0.3-1.5-0.6l0.8-1.1
		c0.3,0.2,0.6,0.2,1,0.3L10.1,32.8z M8.5,27.8c0-1.1,0.3-2.7,1.4-4c1.8-2.3,4.7-4.7,4.7-4.7s-0.3,3.6-0.5,6.3
		c-0.1,2.4,0.1,4.4,0.1,4.4S8.5,32.6,8.5,27.8z M12.6,32.9c-0.5,0.1-1.1,0.1-1.6,0l0.2-1.5c0.4,0,0.7-0.1,1.1-0.1l0.9,1.4
		C12.9,32.9,12.8,32.9,12.6,32.9z M13.9,32.5L13,31.2c1-0.3,1.7-0.7,1.7-0.7l1.1,0.7C15.8,31.2,15,32.1,13.9,32.5z M32.8,28.3
		c0,0-0.1,1.3-2.1,2.3c-2.8,1.3-4.4,1.7-4.4,1.7h-4.9c0,0-1.5-0.2-4.4-1.7c-2-1.1-2-2.8-2-2.8s0-3.8,0.3-7.4
		c0.1-0.4,0.2-1.4,0.2-2.2c0.5-0.3,1.9-1.1,3.6-1.9c2.9-1.3,4.3-1.1,4.3-1.1s0.6,0.1,1.2-0.2c0.4-0.2,0.8-0.7,0.8-1.2
		c0-0.6-0.4-1.1-0.9-1.5C24,12,23.5,12,23.5,12s-1.1-0.2-2.7,0.3c-1.7,0.5-3.8,1.4-4.5,1.7l0.2-0.9c0,0,0.4-6.1,7.3-6.1
		c6.7,0,7.5,6.1,7.5,6.1s0.8,3.2,1.1,7.2C32.8,24.4,32.8,28.3,32.8,28.3z M18.7,14.1c0.4-0.2,0.9-0.3,1.5-0.5l0.6,1.4
		c-0.4,0.2-0.8,0.3-1.3,0.5L18.7,14.1z M20.9,13.3c0.1,0,0.1,0,0.2-0.1c0.6-0.2,1-0.2,1.3-0.3l0.4,1.5c-0.3,0.1-0.7,0.2-1.2,0.3
		L20.9,13.3z M23.1,12.9c0.2,0,0.3,0.1,0.3,0.1s1.1,0.1,1.1,0.9c0,0.6-0.7,0.6-1.1,0.6L23.1,12.9z M26.7,10c0,0,0.5-0.5-0.1-0.7
		c-1-0.4-2.3-0.5-2.7-0.5l0,0c0,0,0,0-0.1,0l0,0l0,0c-0.4,0-1.8,0.1-2.8,0.5C20.5,9.5,21,10,21,10s0.2,0.3,0.8,0.3
		c0.9,0,1.7,0.1,1.9,0.1l0,0c0,0,0,0,0.1,0h0.1l0,0c0.3,0,1.1-0.1,1.9-0.1C26.5,10.3,26.7,10,26.7,10z M27.9,21.8
		c-0.9,0-1.6,0.7-1.6,1.6c0,0.9,0.7,1.6,1.6,1.6s1.6-0.7,1.6-1.6C29.5,22.5,28.8,21.8,27.9,21.8z M27.9,26.6c-1.6,0-1.6-0.9-1.6,0
		s0.7,1.6,1.6,1.6s1.6-0.7,1.6-1.6C29.5,25.7,29.5,26.6,27.9,26.6z"></path>
</g>
</svg>
