<svg version="1.1" id="Layer_1" xmlns="http://www.w3.org/2000/svg" xmlns:xlink="http://www.w3.org/1999/xlink" x="0px" y="0px" width="841.889px" height="595.281px" viewBox="0 0 841.889 595.281" enable-background="new 0 0 841.889 595.281" xml:space="preserve">
<g>
	<path fill="#FFFFFF" d="M426.898,452.103c-55.778,0-101.197-45.384-101.197-101.197c0-17.68,4.714-35.181,13.644-50.587
		c0.166-0.286,0.31-0.583,0.429-0.881l87.125-145.296l87.125,145.271c0.119,0.31,0.262,0.619,0.429,0.905
		c8.929,15.406,13.644,32.907,13.644,50.587C528.095,406.719,482.698,452.103,426.898,452.103 M525.607,295.843
		c-0.25-0.929-0.702-1.762-1.321-2.465l-83.482-139.212l-13.905-23.204l-13.906,23.204h0.024l-84.042,140.105
		c-0.202,0.345-0.369,0.714-0.512,1.083c-9.596,16.978-14.668,36.157-14.668,55.552c0,62.361,50.742,113.104,113.104,113.104
		S540,413.267,540,350.906C540,331.702,535.024,312.701,525.607,295.843"></path>
</g>
</svg>
