<svg version="1.1" id="Layer_1" xmlns="http://www.w3.org/2000/svg" xmlns:xlink="http://www.w3.org/1999/xlink" x="0px" y="0px" width="841.889px" height="595.281px" viewBox="0 0 841.889 595.281" enable-background="new 0 0 841.889 595.281" xml:space="preserve">
<g>
	<g>
		<path fill="#FFFFFF" d="M366.036,219.813c-4.084-1.107-8.084-2.644-11.882-4.56c-21.228-10.751-34.407-32.193-34.407-55.969
			c0-34.573,28.133-62.707,62.707-62.707c34.573,0,62.706,28.134,62.706,62.707c0,21.859-11.107,41.801-29.704,53.325
			c-2.167,1.346-4.429,2.56-6.763,3.644l-4.988-10.811c1.894-0.869,3.715-1.857,5.477-2.952
			c15.072-9.347,24.073-25.502,24.073-43.206c0-28.014-22.787-50.801-50.801-50.801c-28.015,0-50.802,22.787-50.802,50.801
			c0,19.264,10.68,36.646,27.883,45.349c3.06,1.56,6.298,2.798,9.596,3.69L366.036,219.813z"></path>
	</g>
	<g>
		<path fill="#FFFFFF" d="M396.419,163.19v81.529v5.417h11.905v-5.417c0-8.477,6.894-15.37,15.358-15.37s15.347,6.894,15.347,15.37
			v12.835v4.488h11.905v-4.488c0-8.168,6.644-14.799,14.811-14.799c8.155,0,14.811,6.631,14.811,14.799v14.763v1.631h11.905v-1.631
			c0-8.68,6.655-15.739,14.811-15.739c8.168,0,14.811,7.06,14.811,15.739v15.203h0.024v78.411c0,11.513-9.108,32.002-16.441,48.467
			c-7.203,16.168-11.608,26.407-11.608,32.824v29.121H379.192c-0.131-10.834-0.369-10.394-0.369-25.156
			c0-22.025-11.429-144.761-11.429-144.761v-24.573v-9.441c0.154-0.214,0-0.321,0-0.321v-108.9c0-8.715,6.036-15.025,13.988-15.025
			C389.669,148.165,396.419,154.916,396.419,163.19 M381.382,130.854c-14.62,0-25.895,11.584-25.895,26.931v112.163
			c0,0,11.43,164.237,11.43,181.239c0,19.787,0.44,31.181,0.44,31.181l0.071,5.881h138.533v-41.026
			c0-4.203,5.62-16.858,10.584-27.99c8.191-18.394,17.466-39.253,17.466-53.302v-93.613l-0.023-0.012
			c0-15.239-11.989-27.634-26.717-27.634c-6,0-11.488,2.132-15.953,5.608c-3.19-11.191-13.394-19.431-25.573-19.431
			c-6.119,0-11.691,2.144-16.216,5.632c-3.512-11.001-13.715-19.037-25.847-19.037c-4.773,0-9.215,1.273-13.096,3.44
			c-1.096,0.619-2.155-70.35-3.155-69.6C404.503,139.569,393.99,130.854,381.382,130.854"></path>
	</g>
</g>
</svg>
