<svg version="1.1" id="Layer_1" xmlns="http://www.w3.org/2000/svg" xmlns:xlink="http://www.w3.org/1999/xlink" x="0px" y="0px" width="841.889px" height="595.281px" viewBox="0 0 841.889 595.281" enable-background="new 0 0 841.889 595.281" xml:space="preserve">
<g>
	<g>
		<path fill="#FFFFFF" d="M349.511,404.791c-7.144,0-21.501-5.477-35.717-23.812c-14.311,18.383-28.335,23.812-35.717,23.812
			v-11.905c4.727-1.084,16.239-6.799,28.586-23.275c-18.145-25.896-40.491-58.992-40.491-83.876
			c0-46.348,28.537-95.244,47.622-95.244c19.478,0,47.623,47.955,47.623,95.244c0,25.396-21.848,57.98-39.682,83.53
			c12.607,16.632,23.87,22.466,27.775,23.621V404.791z M313.782,202.395c-7.263,0.762-35.705,35.943-35.705,83.339
			c0,22.455,20.573,50.6,36.193,73.208c15.286-22.62,35.24-50.777,35.24-73.208C349.511,237.958,321.069,202.991,313.782,202.395z"></path>
	</g>
</g>
<g>
	<g>
		<path fill="#FFFFFF" d="M456.661,404.791c-7.144,0-21.502-5.477-35.717-23.812c-14.311,18.383-28.335,23.812-35.717,23.812
			v-11.905c4.727-1.084,16.239-6.799,28.586-23.275c-18.145-25.896-40.491-58.992-40.491-83.876
			c0-46.348,28.538-95.244,47.622-95.244c19.478,0,47.622,47.955,47.622,95.244c0,25.396-21.847,57.98-39.681,83.53
			c12.607,16.632,23.87,22.466,27.775,23.621V404.791z M420.933,202.395c-7.263,0.762-35.705,35.943-35.705,83.339
			c0,22.455,20.573,50.6,36.193,73.208c15.286-22.62,35.24-50.777,35.24-73.208C456.661,237.958,428.219,202.991,420.933,202.395z"></path>
	</g>
</g>
<g>
	<g>
		<path fill="#FFFFFF" d="M563.812,404.791c-7.144,0-21.501-5.477-35.717-23.812c-14.311,18.383-28.335,23.812-35.717,23.812
			v-11.905c4.727-1.084,16.239-6.799,28.585-23.275c-18.144-25.896-40.49-58.992-40.49-83.876c0-46.348,28.537-95.244,47.622-95.244
			c19.478,0,47.622,47.955,47.622,95.244c0,25.396-21.847,57.98-39.681,83.53c12.607,16.632,23.87,22.466,27.775,23.621V404.791z
			 M528.083,202.395c-7.263,0.762-35.705,35.943-35.705,83.339c0,22.455,20.573,50.6,36.193,73.208
			c15.286-22.62,35.24-50.777,35.24-73.208C563.812,237.958,535.369,202.991,528.083,202.395z"></path>
	</g>
</g>
<rect x="349.511" y="392.885" fill="#FFFFFF" width="35.717" height="11.905"></rect>
<rect x="456.661" y="392.885" fill="#FFFFFF" width="35.717" height="11.905"></rect>
</svg>
