<svg version="1.1" id="Layer_1" xmlns="http://www.w3.org/2000/svg" xmlns:xlink="http://www.w3.org/1999/xlink" x="0px" y="0px" viewBox="0 0 40 40" style="enable-background:new 0 0 40 40;" xml:space="preserve">
<g>
	<path fill="#fff" d="M20,6C12.2,6,6,12.2,6,20c0,7.7,6.3,14,14,14s14-6.3,14-14C34,12.2,27.7,6,20,6z M20,33c-7.2,0-13-5.8-13-13
		S12.8,7,20,7s13,5.8,13,13S27.2,33,20,33z"></path>
	<path fill="#fff" d="M20,11c-5,0-9,4-9,9s4,9,9,9s9-4,9-9C29,15,25,11,20,11z M20,28c-4.4,0-8-3.6-8-8s3.6-8,8-8s8,3.6,8,8
		C28,24.4,24.4,28,20,28z"></path>
	<path fill="#fff" d="M23.3,20.6l2.2-4.2c0.1-0.2,0.1-0.4-0.1-0.5c-0.2-0.2-0.3-0.2-0.5,0l-3.6,2.6l-1.9-1.9l1-1.7
		c0.1-0.2,0.1-0.4-0.2-0.6c-0.2-0.1-0.4-0.1-0.6,0.2L18.8,16l-1.7-1.7c-0.2-0.2-0.4-0.2-0.6,0l-2.1,2.1c-0.2,0.2-0.2,0.4,0,0.6
		l2.4,2.4l-2.3,4c-0.1,0.2-0.1,0.4,0.1,0.5c0.2,0.2,0.3,0.2,0.5,0l3.6-2.6l2.2,2.2l-1.1,1.9c-0.1,0.2,0,0.4,0.2,0.6
		c0.1,0,0.2,0.1,0.2,0.1c0.2,0,0.3-0.1,0.3-0.2l0.9-1.7l1.5,1.5c0.1,0.1,0.2,0.1,0.3,0.1s0.2,0,0.3-0.1l2.1-2.1
		c0.1-0.1,0.1-0.2,0.1-0.3s-0.1-0.2-0.1-0.3L23.3,20.6z M24,17.6l-1.3,2.5l-0.9-0.9L24,17.6z M20.6,19l-1.8,1.3l-1.1-1.1l1.1-1.9
		L20.6,19z M15.1,16.7l1.5-1.5l1.6,1.6l-1.1,1.9L15.1,16.7z M16.1,22.3l1.3-2.3l0.8,0.8L16.1,22.3z M19.4,20.9l1.8-1.3l1.2,1.2
		l-1.1,2L19.4,20.9z M23.3,24.8l-1.4-1.4l1.1-2l1.9,1.9L23.3,24.8z"></path>
	<rect x="17" y="25" fill="#fff" width="1" height="1"></rect>
	<rect x="22" y="14" fill="#fff" width="1" height="1"></rect>
</g>
</svg>
