<svg version="1.1" id="Layer_1" xmlns="http://www.w3.org/2000/svg" xmlns:xlink="http://www.w3.org/1999/xlink" x="0px" y="0px" viewBox="0 0 40 40" style="enable-background:new 0 0 40 40;" xml:space="preserve"> <style type="text/css"> .st0{fill:#FFFFFF;} </style> <g> <path class="st0" d="M32,13c0-4.5-1.7-6.7-5-7v0h-1v0c-3.3,0.2-5,2.5-5,7c0,4.8,2.8,11.9,5,12.9V33h1v-7.1C29.1,24.8,32,17.7,32,13 z M22,13c0-4.9,1.9-5.9,4-6v17.7C24.6,23.5,22,17.7,22,13z M27,7c2.1,0.1,4,1.1,4,6c0,4.7-2.6,10.3-4,11.7V7z"></path> <path class="st0" d="M13,19V6h-1v13c-4.9,0.2-6,3.1-6,5.5c0,3.9,3.6,7.9,6,8.4V33h1v-0.1c2.3-0.5,6-4.6,6-8.4 C19,22.1,17.9,19.2,13,19z M7,24.5c0-2.9,1.6-4.3,5-4.5v11.9C10.1,31.3,7,27.9,7,24.5z M13,31.9V20c3.4,0.1,5,1.6,5,4.5 C18,27.8,14.8,31.3,13,31.9z"></path> <rect x="9" y="23" class="st0" width="1" height="4"></rect> <rect x="15" y="23" class="st0" width="1" height="4"></rect> </g> </svg>
