<svg version="1.1" id="Layer_1" xmlns="http://www.w3.org/2000/svg" xmlns:xlink="http://www.w3.org/1999/xlink" x="0px" y="0px" width="841.889px" height="595.281px" viewBox="0 0 841.889 595.281" enable-background="new 0 0 841.889 595.281" xml:space="preserve">
<path fill="#FFFFFF" d="M326.51,298.177v-0.072v-41.907h55.61h4.167l3.25-2.596l67.922-54.146v44.836l0.012,8.405l-86.827,86.84
	H326.51V298.177z M550.418,159.75l-81.065,81.065v-66.064l-87.232,69.54h-67.517v53.813l-0.035,0.036l0.035,0.036v53.266h44.134
	l-75.684,75.672l8.43,8.417l84.089-84.089h0.298l11.382-11.394l-0.167-0.132l70.386-70.386v0.31l11.894-11.894v-0.321l89.471-89.459
	L550.418,159.75z"></path>
<polygon fill="#FFFFFF" points="457.471,339.536 457.459,339.536 457.459,351.442 457.459,395.147 396.705,347.454 388.216,355.942
	469.365,419.625 469.365,351.442 469.376,351.442 469.376,274.781 457.471,286.687 "></polygon>
</svg>
