<svg version="1.1" id="Layer_1" xmlns="http://www.w3.org/2000/svg" xmlns:xlink="http://www.w3.org/1999/xlink" x="0px" y="0px" width="841.889px" height="595.281px" viewBox="0 0 841.889 595.281" enable-background="new 0 0 841.889 595.281" xml:space="preserve">
<g>
	<path fill="#FFFFFF" d="M403.086,440.508c-55.789,0-101.197-45.396-101.197-101.197v-77.387h202.395v77.387
		C504.283,395.111,458.888,440.508,403.086,440.508 M516.19,261.924h35.717v71.434H516.19V261.924z M515.892,345.262h47.92v-95.245
		H516.19h-11.906H289.983v89.293c0,62.469,50.646,113.103,113.104,113.103C463.543,452.413,512.773,404.958,515.892,345.262"></path>
</g>
<polygon fill="#FFFFFF" points="403.098,452.413 289.995,452.413 289.995,464.319 521.547,464.319 521.547,452.413 "></polygon>
<rect x="349.511" y="166.892" fill="#FFFFFF" width="11.906" height="47.408"></rect>
<rect x="444.756" y="166.892" fill="#FFFFFF" width="11.917" height="47.408"></rect>
<rect x="397.134" y="142.867" fill="#FFFFFF" width="11.905" height="71.434"></rect>
</svg>
