<svg version="1.1" id="Layer_1" xmlns="http://www.w3.org/2000/svg" xmlns:xlink="http://www.w3.org/1999/xlink" x="0px" y="0px" width="841.889px" height="595.281px" viewBox="0 0 841.889 595.281" enable-background="new 0 0 841.889 595.281" xml:space="preserve">
<g>
	<path fill="#FFFFFF" d="M284.031,369.086c-42.67,0-77.387-34.729-77.387-77.387c0-42.669,34.717-77.386,77.387-77.386
		s77.387,34.717,77.387,77.386C361.417,334.357,326.7,369.086,284.031,369.086 M284.031,202.395
		c-49.325,0-89.292,40.003-89.292,89.304c0,49.313,39.967,89.28,89.292,89.28s89.292-39.967,89.292-89.28
		C373.323,242.398,333.356,202.395,284.031,202.395"></path>
</g>
<g>
	<path fill="#FFFFFF" d="M557.859,369.086c-42.669,0-77.386-34.729-77.386-77.387c0-42.669,34.717-77.386,77.386-77.386
		c42.67,0,77.387,34.717,77.387,77.386C635.245,334.357,600.529,369.086,557.859,369.086 M557.859,202.395
		c-49.324,0-89.292,40.003-89.292,89.304c0,49.313,39.968,89.28,89.292,89.28c49.325,0,89.292-39.967,89.292-89.28
		C647.151,242.398,607.184,202.395,557.859,202.395"></path>
</g>
<g>
	<path fill="#FFFFFF" d="M325.7,285.734v11.906h-83.34v-11.906H325.7z"></path>
</g>
<g>
	<path fill="#FFFFFF" d="M563.812,250.017v35.717h35.717v11.906h-35.717v35.717h-11.905V297.64H516.19v-11.906h35.717v-35.717
		H563.812z"></path>
</g>
</svg>
