<svg version="1.1" id="Layer_1" xmlns="http://www.w3.org/2000/svg" xmlns:xlink="http://www.w3.org/1999/xlink" x="0px" y="0px" viewBox="0 0 40 40" style="enable-background:new 0 0 40 40;" xml:space="preserve">
<g>
	<g>
		<path fill="#fff" d="M20.5,5.5c-8,0-14.4,6.5-14.4,14.4s6.5,14.4,14.4,14.4s14.4-6.5,14.4-14.4C34.8,12,28.4,5.5,20.5,5.5z
			 M20.5,33.5c-7.5,0-13.6-6.1-13.6-13.6S13,6.3,20.5,6.3s13.6,6.1,13.6,13.6C34,27.4,27.9,33.5,20.5,33.5z"></path>
		<path fill="#fff" d="M20.5,9.8c-5.6,0-10.1,4.5-10.1,10.1S14.9,30,20.5,30s10.1-4.5,10.1-10.1C30.5,14.3,26,9.8,20.5,9.8z
			 M29.7,19.9c0,0.2,0,0.4,0,0.6c-1.8,0.8-5,1.7-8.2-0.2c0.1-0.2,0.2-0.4,0.2-0.6c0-0.2,0-0.3-0.1-0.5c0-0.1,0.1-0.1,0.1-0.2
			c0-0.1,0.1-0.2,0.1-0.2c0.2-0.2,0.2-0.5,0.3-0.8l0,0c0.8-1.9,0.7-3.8,0.4-5.4l0,0c0-0.2-0.1-0.3-0.2-0.5v-0.1
			c-0.1-0.2-0.1-0.3-0.2-0.4c0-0.1,0-0.1-0.1-0.2c0-0.1-0.1-0.2-0.1-0.3c0-0.1-0.1-0.1-0.1-0.2c0,0,0-0.1-0.1-0.1
			C26.3,11.5,29.7,15.3,29.7,19.9z M20.4,19.4c-0.1-0.1-0.2-0.1-0.2-0.2c0.1-0.1,0.2-0.1,0.2-0.1h0.1C20.5,19.2,20.4,19.3,20.4,19.4
			z M20.5,10.7c0.2,0,0.4,0,0.6,0c0,0,0,0,0,0.1c0,0.1,0.1,0.2,0.1,0.3c0,0.1,0.1,0.2,0.1,0.2c0,0.1,0.1,0.2,0.1,0.2
			c0,0.1,0.1,0.2,0.1,0.3c0,0.1,0,0.1,0.1,0.2c0,0.1,0.1,0.2,0.1,0.3v0.1c0,0.2,0.1,0.3,0.1,0.4l0,0c0.3,1.4,0.3,3.2-0.4,4.9
			c0,0,0,0,0,0.1c-0.1,0.2-0.2,0.4-0.3,0.6c0,0,0,0.1-0.1,0.1c0,0.1-0.3,0-0.4,0c-0.4,0-0.7,0.2-0.9,0.4c-3.1-1.8-6.2-1.2-8.1-0.4
			C12.1,14,15.9,10.7,20.5,10.7z M11.2,19.9c0-0.2,0-0.4,0-0.6c1.8-0.8,4.8-1.7,7.9,0.2l0,0c0,0.3,0.2,0.7,0.4,0.9
			c-2.2,3.2-1.5,6.5-0.7,8.5C14.6,28.3,11.2,24.5,11.2,19.9z M20.5,29.2c-0.2,0-0.4,0-0.6,0c-0.8-1.8-1.8-5.1,0.5-8.2c0,0,0,0,0.1,0
			c0.2,0,0.2,0,0.4-0.1c1.7,1.1,3.3,1.5,4.8,1.5c1.5,0,2.8-0.4,3.9-0.8C28.8,25.8,25,29.2,20.5,29.2z"></path>
	</g>
</g>
</svg>
