<svg version="1.1" id="Layer_1" xmlns="http://www.w3.org/2000/svg" xmlns:xlink="http://www.w3.org/1999/xlink" x="0px" y="0px" width="841.889px" height="595.281px" viewBox="0 0 841.889 595.281" enable-background="new 0 0 841.889 595.281" xml:space="preserve">
<path fill="#FFFFFF" d="M266.172,428.602v35.717h-47.623v-35.717H266.172 M278.077,416.696h-71.434v59.528h71.434V416.696
	L278.077,416.696z"></path>
<path fill="#FFFFFF" d="M385.228,369.074v95.245h-47.622v-95.245H385.228 M397.134,357.169H325.7v119.056h71.434V357.169
	L397.134,357.169z"></path>
<path fill="#FFFFFF" d="M504.283,309.546v154.773h-47.622V309.546H504.283 M516.19,297.64h-71.434v178.584h71.434V297.64
	L516.19,297.64z"></path>
<path fill="#FFFFFF" d="M623.34,250.017v214.302h-47.623V250.017H623.34 M635.245,238.112h-71.434v238.112h71.434V238.112
	L635.245,238.112z"></path>
</svg>
