<svg version="1.1" id="Layer_1" xmlns="http://www.w3.org/2000/svg" xmlns:xlink="http://www.w3.org/1999/xlink" x="0px" y="0px" width="841.889px" height="595.281px" viewBox="0 0 841.889 595.281" enable-background="new 0 0 841.889 595.281" xml:space="preserve">
<g>
	<g>
		<path fill="#FFFFFF" d="M432.85,273.829h-5.952c-38.538,0-83.339-36.407-83.339-83.339c0-46.933,44.801-83.34,83.339-83.34h5.952
			V273.829z M420.945,114.663c-31.002,3.548-65.48,33.919-65.48,71.089c0,37.169,34.479,67.54,65.48,71.088V114.663z"></path>
	</g>
	<g>
		<path fill="#FFFFFF" d="M426.898,500.036h-5.953V333.357h5.953c38.538,0,83.339,36.407,83.339,83.339
			C510.237,463.629,465.436,500.036,426.898,500.036z M432.85,342.632v142.165c31.003-3.548,65.481-33.919,65.481-71.089
			C498.331,376.539,463.853,346.179,432.85,342.632z"></path>
	</g>
	<g>
		<path fill="#FFFFFF" d="M313.794,386.932c-46.932,0-83.339-44.801-83.339-83.339v-5.953h166.679v5.953
			C397.134,342.132,360.726,386.932,313.794,386.932z M247.778,309.546c3.548,31.003,33.919,65.481,71.089,65.481
			c37.169,0,67.54-34.479,71.088-65.481H247.778z"></path>
	</g>
	<g>
		<path fill="#FFFFFF" d="M635.245,309.546H468.567v-5.952c0-38.539,36.407-83.34,83.34-83.34c46.932,0,83.339,44.801,83.339,83.34
			V309.546z M475.758,297.64h142.165c-3.548-31.002-33.919-65.481-71.089-65.481C509.665,232.159,479.294,266.638,475.758,297.64z"></path>
	</g>
</g>
</svg>
