<svg version="1.1" id="Layer_1" xmlns="http://www.w3.org/2000/svg" xmlns:xlink="http://www.w3.org/1999/xlink" x="0px" y="0px" viewBox="0 0 40 40" style="enable-background:new 0 0 40 40;" xml:space="preserve">
<g>
	<path fill="#fff" d="M22.5,19c-0.3,0-0.5,0.2-0.5,0.5v2c0,0.3,0.2,0.5,0.5,0.5s0.5-0.2,0.5-0.5v-2C23,19.2,22.8,19,22.5,19z"></path>
	<path fill="#fff" d="M26.5,10c-0.8,0-1.5,0.2-2.1,0.5C23.5,9,21.8,8,20,8c-1.8,0-3.5,1-4.4,2.5C15,10.2,14.3,10,13.5,10
		C11,10,9,12,9,14.5c0,2,1.3,3.6,3,4.2V34h16V18.7c1.8-0.6,3-2.3,3-4.2C31,12,29,10,26.5,10z M13,33v-3h14v3H13z M27.4,17.9L27,18
		v11h-4v-5.5c0-0.3-0.2-0.5-0.5-0.5S22,23.2,22,23.5V29h-2v-8.5c0-0.3-0.2-0.5-0.5-0.5S19,20.2,19,20.5V29h-2v-4.5
		c0-0.3-0.2-0.5-0.5-0.5S16,24.2,16,24.5V29h-3V19c1.3,0.2,2.7-0.3,3.7-1.3c0.2-0.2,0.2-0.5,0-0.7s-0.5-0.2-0.7,0
		c-0.7,0.7-1.5,1-2.5,1c-1.9,0-3.5-1.6-3.5-3.5s1.6-3.5,3.5-3.5c0.7,0,1.4,0.2,1.9,0.6l0.2,0.1l0.6-0.3l0.1-0.2C17,9.9,18.5,9,20,9
		c1.5,0,3,0.9,3.6,2.3l0.1,0.1l0.6,0.4l0.3-0.2c0.6-0.4,1.3-0.6,2-0.6c1.9,0,3.5,1.6,3.5,3.5C30,16.1,28.9,17.5,27.4,17.9z"></path>
</g>
</svg>
