<svg version="1.1" id="Layer_1" xmlns="http://www.w3.org/2000/svg" xmlns:xlink="http://www.w3.org/1999/xlink" x="0px" y="0px" viewBox="0 0 40 40" style="enable-background:new 0 0 40 40;" xml:space="preserve">
<style type="text/css">
	.st0{fill:#FFFFFF;}
</style>
<g>
	<path class="st0" d="M32.7,8.2C32.4,8.1,26,5.5,19.5,5.5c0,0,0,0,0,0C13,5.5,6.6,8.1,6.3,8.2L6,8.3v0.3c0,12,3.6,18.3,6.7,21.6
		c3.3,3.6,6.7,4.2,6.8,4.2l0.1,0l0.1,0c0.1,0,3.4-0.8,6.7-4.4c3-3.3,6.6-9.7,6.6-21.4V8.3L32.7,8.2z M19.5,33.5
		c-0.6-0.1-3.4-1-6.2-4C10.5,26.4,7.1,20.4,7,9c1.4-0.5,7-2.5,12.5-2.5c0,0,0,0,0,0C25,6.5,30.6,8.5,32,9
		C31.9,29.3,20.7,33.1,19.5,33.5z"></path>
	<path class="st0" d="M17,10v6h-6v5h6v6h5v-6h6v-5h-6v-6H17z M27,17v3h-6v6h-3v-6h-6v-3h6v-6h3v6H27z"></path>
</g>
</svg>
