<svg version="1.1" id="Layer_1" xmlns="http://www.w3.org/2000/svg" xmlns:xlink="http://www.w3.org/1999/xlink" x="0px" y="0px" width="841.889px" height="595.281px" viewBox="0 0 841.889 595.281" enable-background="new 0 0 841.889 595.281" xml:space="preserve">
<g>
	<path fill="#FFFFFF" d="M374.215,410.291c-27.002,0-40.491-18.965-40.491-42.419v-97.043h-19.93v-17.68h19.93v-49.492h23.133
		v49.492h33.741v17.68h-33.741v96.412c0,14.465,6.751,23.145,21.537,23.145h12.216v19.918h-16.395V410.291z"></path>
	<path fill="#FFFFFF" d="M482.223,283.996c-29.252,0-53.027-23.453-53.027-52.706c0-29.239,23.775-52.706,53.027-52.706
		c29.24,0,52.706,23.467,52.706,52.706C534.929,260.53,511.463,283.996,482.223,283.996z M481.902,197.228
		c-18.966,0-33.098,14.774-33.098,34.062s14.465,34.062,33.431,34.062c18.954,0,33.098-14.787,33.098-34.062
		C515.332,212.015,500.855,197.228,481.902,197.228z"></path>
</g>
<g id="Layer_1_1_">
</g>
</svg>
