<svg version="1.1" id="Layer_1" xmlns="http://www.w3.org/2000/svg" xmlns:xlink="http://www.w3.org/1999/xlink" x="0px" y="0px" width="841.889px" height="595.281px" viewBox="0 0 841.889 595.281" enable-background="new 0 0 841.889 595.281" xml:space="preserve"> <g> <path fill="#FFFFFF" d="M560.693,302.915h-15.275H540v11.905h5.418c8.477,0,15.369,6.894,15.369,15.358 s-6.893,15.347-15.369,15.347h-12.835h-4.488v11.905h4.488c8.155,0,14.799,6.644,14.799,14.811c0,8.155-6.644,14.811-14.799,14.811 h-14.763h-1.631v11.905h1.631c8.679,0,15.739,6.655,15.739,14.811c0,8.168-7.061,14.811-15.739,14.811h-15.216v0.024h-78.41 c-11.5,0-31.99-9.108-48.455-16.442c-16.168-7.202-26.419-11.607-32.836-11.607h-52.921V285.687 c10.835-0.131,34.205-0.369,48.968-0.369c22.025,0,33.586-9.691,64.457-35.598c32.562-27.3,34.205-76.875,34.205-86.542 c0-4.857,7.465-7.811,10.751-7.811c6.238,0,20.858,0,20.858,31.05c0,39.218-19.799,78.41-20.002,78.815l-4.429,8.655h38.908h24.585 h9.44c0.203,0.155,0.322,0,0.322,0h42.646c8.715,0,15.024,6.036,15.024,13.989C575.717,296.164,568.979,302.915,560.693,302.915 M587.623,287.878c0-14.62-11.584-25.895-26.931-25.895H520.19h-56.361c6.179-14.358,17.299-44.468,17.299-75.565 c0-35.502-17.811-42.955-32.764-42.955c-9.263,0-22.657,7.024-22.657,19.716c0,5.357-0.833,53.016-29.941,77.422 c-31.003,26.002-39.812,32.812-56.814,32.812c-19.787,0-54.991,0.44-54.991,0.44l-5.882,0.072v138.533h64.826 c4.215,0,16.858,5.62,28.002,10.584c18.395,8.191,39.253,17.466,53.289,17.466h93.626l0.012-0.023 c15.239,0,27.633-11.989,27.633-26.717c0-6-2.131-11.488-5.607-15.953c11.191-3.19,19.43-13.394,19.43-25.573 c0-6.119-2.154-11.691-5.643-16.216c11-3.512,19.049-13.715,19.049-25.847c0-6.119-2.096-11.703-5.501-16.251 C578.908,310.999,587.623,300.486,587.623,287.878"></path> </g> </svg>
