<svg version="1.1" id="Layer_1" xmlns="http://www.w3.org/2000/svg" xmlns:xlink="http://www.w3.org/1999/xlink" x="0px" y="0px" width="841.889px" height="595.281px" viewBox="0 0 841.889 595.281" enable-background="new 0 0 841.889 595.281" xml:space="preserve">
<g>
	<path fill="#FFFFFF" d="M420.945,416.696c-72.207,0-130.962-58.754-130.962-130.962c0-72.207,58.755-130.961,130.962-130.961
		s130.962,58.754,130.962,130.961C551.906,357.942,493.152,416.696,420.945,416.696 M420.945,142.867
		c-78.898,0-142.867,63.969-142.867,142.867c0,78.899,63.969,142.868,142.867,142.868s142.867-63.969,142.867-142.868
		C563.812,206.836,499.843,142.867,420.945,142.867"></path>
</g>
<polygon fill="#FFFFFF" points="420.945,297.64 349.511,297.64 349.511,309.546 432.85,309.546 432.85,190.978 420.945,190.978 "></polygon>
</svg>
