<svg version="1.1" id="Layer_1" xmlns="http://www.w3.org/2000/svg" xmlns:xlink="http://www.w3.org/1999/xlink" x="0px" y="0px" width="841.889px" height="595.281px" viewBox="0 0 841.889 595.281" enable-background="new 0 0 841.889 595.281" xml:space="preserve">
<g>
	<path fill="#FFFFFF" d="M516.19,348.239c0,33.359-31.324,77.91-101.197,103.448c-69.874-25.538-101.198-70.089-101.198-103.448
		v-150.13l101.198-19.311l101.197,19.311V348.239z M414.992,166.678l-113.104,21.573v159.987c0,38.693,33.99,88.542,113.104,116.08
		c79.112-27.538,113.103-77.387,113.103-116.08V188.252L414.992,166.678z"></path>
</g>
<path fill="#FFFFFF" d="M481.889,254.934l-95.554,92.674l-33.49-33.479c-3.488-3.488-9.144-3.488-12.62,0
	c-3.488,3.488-3.488,9.132,0,12.62l39.682,39.693c1.75,1.75,4.023,2.631,6.321,2.631c2.238,0,4.477-0.833,6.215-2.524
	l101.876-98.793c3.536-3.44,3.632-9.096,0.202-12.619C491.069,251.59,485.425,251.506,481.889,254.934"></path>
</svg>
