<svg version="1.1" id="Layer_1" xmlns="http://www.w3.org/2000/svg" xmlns:xlink="http://www.w3.org/1999/xlink" x="0px" y="0px" width="841.889px" height="595.281px" viewBox="0 0 841.889 595.281" enable-background="new 0 0 841.889 595.281" xml:space="preserve">
<path fill="#FFFFFF" d="M278.077,298.093l0.024-0.06l-0.024-36.109h55.646h4.167l3.263-2.596l67.874-59.944v44.824l0.012,11.905
	v83.34h-0.012v11.905v43.706l-67.601-59.171l-3.238-2.536h-4.107h-56.004V298.093z M333.724,250.017h-67.528v48.016l-0.023,0.023
	l0.023,0.036v47.17h67.886l86.852,74.291v-68.195h0.012v-107.15h-0.012v-69.541L333.724,250.017z"></path>
<g>
	<path fill="#FFFFFF" d="M448.78,236.589c12.954,17.239,19.787,37.823,19.787,59.48c0,22.108-7.107,43.015-20.549,60.48l9.441,7.274
		c15.061-19.573,23.014-43.016,23.014-67.755c0-24.264-7.668-47.302-22.181-66.636L448.78,236.589z"></path>
	<path fill="#FFFFFF" d="M496.747,193.43l-9.179,7.584c22.358,27.085,34.681,61.397,34.681,96.602
		c0,34.801-11.441,67.518-33.098,94.639l9.311,7.429c23.347-29.252,35.692-64.54,35.692-102.067
		C534.155,259.649,520.868,222.647,496.747,193.43"></path>
	<path fill="#FFFFFF" d="M533.81,154.773l-8.941,7.869c32.848,37.276,50.921,85.232,50.921,135.01
		c0,48.789-17.442,95.995-49.135,132.95l9.036,7.75c33.55-39.109,52.004-89.077,52.004-140.7
		C587.695,244.981,568.562,194.228,533.81,154.773"></path>
</g>
</svg>
