<svg xmlns="http://www.w3.org/2000/svg" xmlns:xlink="http://www.w3.org/1999/xlink" version="1.1" id="Слой_1" x="0px" y="0px" viewBox="0 0 841 595" style="enable-background:new 0 0 841 595;" xml:space="preserve">
<g>
	<path fill="#fff" d="M364.2,482.7c-40.3,0-82.7-2.6-97.4-9c-24.7-10.8-43.3-49.3-43.3-89.6c0-45.6,25.2-81.8,48.5-89.1l0,0   c48.2-15.2,150-8.9,161.5-8.1c24.7,1.6,59.4,31.1,59.4,91.4c0,66.8-25.9,95.4-50.1,100C428.4,481,397,482.7,364.2,482.7z    M373.6,294.9c-36.2,0-75.3,2.2-98.6,9.6l0,0c-17.5,5.5-41.6,36.2-41.6,79.7c0,36,16.4,71.4,37.4,80.6   c23.5,10.3,136.6,10.3,170.2,4c19.4-3.6,42.1-29.5,42.1-90.3c0-53.4-30-80.3-50.2-81.6C417.2,295.7,395.9,294.9,373.6,294.9z"></path>
	<path fill="#fff" d="M437.4,478.8c-9.8,0-19.7-4-28.7-11.9c-20-17.3-32.4-49.6-32.4-84.2c0-33.4,12.1-67.2,30-84.3   c8.4-8,17.8-12,27.1-11.4l-0.5,9.8c-8.3-0.5-15.3,4.5-19.8,8.8c-16.1,15.3-27,46.3-27,77.2c0,31.4,11.4,61.5,29,76.8   c8.4,7.3,17.3,10.4,26,9.2l1.4,9.7C440.8,478.6,439.1,478.8,437.4,478.8z"></path>
	<path fill="#fff" d="M228.7,389l-0.7-9.8c24.4-1.6,49.3-2.6,73.8-2.9c26.3-0.3,53.1,0.2,79.6,1.4l-0.5,9.8   c-26.3-1.2-52.9-1.7-79-1.4C277.6,386.4,253,387.4,228.7,389z"></path>
	<path fill="#fff" d="M242.5,335.6l-2.2-9.6c38.3-8.8,114.8-7.4,153.1-3l-1.1,9.7C353.9,328.4,278.3,327.3,242.5,335.6z"></path>
	<path fill="#fff" d="M320.3,445.3c-30.3,0-61.2-1.8-81.5-6.5l2.2-9.6c35.9,8.3,111.4,7.2,149.7,2.8l1.1,9.7   C373.9,443.9,347.4,445.3,320.3,445.3z"></path>
	<path fill="#fff" d="M468.6,429.9l-9.1-3.7c5-12.3,7.6-28.4,7.6-48c0-18.6-4.2-34.7-12.6-47.9l8.3-5.2   c9.4,14.8,14.1,32.7,14.1,53.2C477,399.1,474.2,416.5,468.6,429.9z"></path>
	<rect x="429.7" y="405.8" fill="#fff" width="9.8" height="15.9"></rect>
</g>
<g>
	<path fill="#fff" d="M518.5,469.8c-2,0-4.1,0-6.1,0l0.1-9.8c34.8,0.2,68-1.5,82.7-4.2l1.8,9.6C582.6,468.1,551.6,469.8,518.5,469.8   z"></path>
	<path fill="#fff" d="M597,465.4l-1.8-9.6c19.4-3.6,42.1-29.5,42.1-90.4c0-53.4-30-80.3-50.2-81.6l0.7-9.8   c24.7,1.6,59.4,31.1,59.4,91.4C647.1,432.2,621.2,460.8,597,465.4z"></path>
	<path fill="#fff" d="M591.7,465.8c-9.8,0-19.7-4-28.7-11.9c-20-17.3-32.4-49.6-32.4-84.2c0-33.4,12.1-67.3,30-84.3   c8.4-8,17.8-11.9,27.1-11.4l-0.5,9.8c-8.4-0.4-15.3,4.5-19.8,8.8c-16.1,15.3-27,46.3-27,77.2c0,31.3,11.4,61.5,29,76.8   c8.4,7.3,17.3,10.4,26,9.2l1.4,9.7C595.1,465.7,593.4,465.8,591.7,465.8z"></path>
	<path fill="#fff" d="M622.9,416.9l-9.1-3.7c5-12.2,7.6-28.4,7.6-48c0-18.6-4.2-34.7-12.6-47.9l8.3-5.2   c9.4,14.8,14.1,32.7,14.1,53.2C631.3,386.1,628.5,403.5,622.9,416.9z"></path>
	<rect x="584" y="392.8" fill="#fff" width="9.8" height="15.9"></rect>
</g>
<path fill="#fff" d="M508.1,305.7c-9.8,0-19.7-4-28.7-11.9c-20-17.3-32.4-49.6-32.4-84.2c0-33.4,12.1-67.3,30-84.3  c8.4-8,17.8-11.9,27.1-11.4l-0.5,9.8c-8.4-0.4-15.3,4.5-19.8,8.8c-16.1,15.3-27,46.3-27,77.2c0,31.4,11.4,61.5,29,76.8  c8.4,7.3,17.3,10.5,26,9.2l1.4,9.7C511.4,305.6,509.7,305.7,508.1,305.7z"></path>
<path fill="#fff" d="M299.4,216l-0.7-9.8c24.4-1.6,49.3-2.6,73.8-2.9c26.4-0.3,53.2,0.2,79.6,1.5l-0.5,9.8  c-26.2-1.3-52.8-1.7-79-1.4C348.3,213.4,323.6,214.4,299.4,216z"></path>
<path fill="#fff" d="M313.1,162.5l-2.2-9.6c38.4-8.9,114.9-7.4,153.1-3l-1.1,9.7C424.6,155.3,349,154.2,313.1,162.5z"></path>
<path fill="#fff" d="M513.3,305.3l-1.8-9.6c19.4-3.6,42.1-29.5,42.1-90.3c0-53.4-30-80.3-50.2-81.6l0.7-9.8  c24.7,1.6,59.4,31.1,59.4,91.4C563.5,272.1,537.6,300.8,513.3,305.3z"></path>
<path fill="#fff" d="M387.8,272.5c-29.5,0-59.2-1.7-78.3-6.1l-1.9-0.4l-1.1-1.7c-11.3-17.4-12.3-28.4-12.3-53.1  c0-45.6,25.2-81.8,48.5-89.1c48.2-15.1,150-8.8,161.5-8.1l-0.7,9.8c-40.9-2.7-120.1-4.2-157.9,7.7c-17.5,5.5-41.6,36.2-41.6,79.7  c0,22.7,0.8,31.8,9.7,46.1c36.9,7.9,110.3,6.1,147.8,1.8l1.1,9.7C443.6,271,415.8,272.5,387.8,272.5z"></path>
<path fill="#fff" d="M539.3,256.9l-9.1-3.7c5-12.3,7.6-28.4,7.6-48c0-18.6-4.2-34.7-12.6-47.9l8.3-5.2c9.4,14.8,14.1,32.7,14.1,53.2  C547.6,226,544.8,243.4,539.3,256.9z"></path>
<rect x="500.3" y="232.7" fill="#fff" width="9.8" height="15.9"></rect>
<path fill="#fff" d="M347.6,294.8c-23.1-9.8-30.3-18.1-38-26.9l-2.7-3.1l7.3-6.5l2.8,3.2c7.2,8.3,13.3,15.4,34.3,24.3L347.6,294.8z"></path>
</svg>
