<svg version="1.1" id="Layer_1" xmlns="http://www.w3.org/2000/svg" xmlns:xlink="http://www.w3.org/1999/xlink" x="0px" y="0px" viewBox="0 0 40 40" style="enable-background:new 0 0 40 40;" xml:space="preserve">
<g>
	<path fill="#fff" d="M22.6,19.4h-6.8v-2c0-0.9,0.3-1.2,1.3-1.2h7.2v-0.5L24,15.4h-6.9c-1.5,0-2.2,0.6-2.2,2v4.8c0,1.3,0.7,2,2.2,2
		h5.5c1.5,0,2.2-0.6,2.2-2v-0.8C24.8,20,24.1,19.4,22.6,19.4z M22.6,23.3h-5.5c-1,0-1.3-0.3-1.3-1.2v-2h6.8c1,0,1.3,0.3,1.3,1.2v0.8
		C24,23,23.6,23.3,22.6,23.3z"></path>
	<path fill="#fff" d="M34.4,15.4h-6.1c-1.5,0-2.2,0.6-2.2,2v4.8c0,1.3,0.7,2,2.2,2h6.1c1.5,0,2.2-0.6,2.2-2v-4.8
		C36.6,16.1,35.9,15.4,34.4,15.4z M34.4,23.3h-6.1c-1,0-1.3-0.3-1.3-1.2v-4.8c0-0.9,0.3-1.2,1.3-1.2h6.1c1,0,1.3,0.3,1.3,1.2v4.8
		C35.7,23,35.4,23.3,34.4,23.3z"></path>
	<polygon fill="#fff" points="10.8,16.1 7.8,19.1 4.7,16.1 4,16.8 7.1,19.8 4,22.9 4.7,23.6 7.8,20.5 10.8,23.6 11.5,22.9 8.5,19.8
		11.5,16.8 	"></polygon>
</g>
</svg>
