<?xml version="1.0" standalone="no"?>
<!DOCTYPE svg PUBLIC "-//W3C//DTD SVG 1.1//EN" "http://www.w3.org/Graphics/SVG/1.1/DTD/svg11.dtd" >
<svg xmlns="http://www.w3.org/2000/svg" xmlns:xlink="http://www.w3.org/1999/xlink" version="1.1">
<metadata>
Created by FontForge 20161116 at Fri Apr 20 13:04:58 2007
 By Jimmy Wärting
Berthold first published Akzidenz-Grotesk in 1896. The design originates from Royal Grotesk light by Ferdinand Theinhardt who also supplied the regular, medium and bold weights. Throughout the years, Berthold has expanded this extremely popular and versatile family. AG Super was developed in 1968 by Guenter Gerhard Lange and is an excellent choice for headlines. In 2001, Guenter Gerhard Lange added more weights for Berthold including Super Italic and Extra Bold italic.
</metadata>
<defs>
<font id="AkzidenzGroteskPro-Ext" horiz-adv-x="729" >
  <font-face 
    font-family="Akzidenz-Grotesk Pro Ext"
    font-weight="400"
    font-stretch="expanded"
    units-per-em="1000"
    panose-1="2 0 5 4 4 0 0 2 0 3"
    ascent="750"
    descent="-250"
    x-height="488"
    cap-height="706"
    bbox="-210 -282 1470 998"
    underline-thickness="50"
    underline-position="-100"
    stemh="76"
    stemv="95"
    unicode-range="U+0020-FB02"
  />
<missing-glyph horiz-adv-x="500" 
d="M0 0v706h500v-706h-500zM250 401l170 255h-340zM280 353l170 -258v516zM80 50h340l-170 258zM50 611v-516l170 258z" />
    <glyph glyph-name="fi" unicode="fi" horiz-adv-x="563" 
d="M483 570h-94v96h94v-96zM485 0h-95v488h95v-488zM315 705l-1 -85c-6 2 -34 9 -59 9c-32 0 -76 -7 -76 -70v-71h134v-65h-134v-423h-94v424h-79v64h80v61c0 15 1 47 8 72c12 42 47 91 144 91c18 0 39 -1 77 -7z" />
    <glyph glyph-name="fl" unicode="fl" horiz-adv-x="563" 
d="M484 0h-94v706h94v-706zM315 705l-1 -85c-6 2 -34 9 -59 9c-32 0 -76 -7 -76 -70v-71h134v-65h-134v-423h-94v424h-79v64h80v61c0 15 1 47 8 72c12 42 47 91 144 91c18 0 39 -1 77 -7z" />
    <glyph glyph-name=".notdef" horiz-adv-x="500" 
d="M0 0v706h500v-706h-500zM250 401l170 255h-340zM280 353l170 -258v516zM80 50h340l-170 258zM50 611v-516l170 258z" />
    <glyph glyph-name="space" unicode=" " horiz-adv-x="333" 
 />
    <glyph glyph-name="exclam" unicode="!" horiz-adv-x="292" 
d="M117 690h101v-290l-28 -221h-44l-29 220v291zM218 0h-100v100h100v-100z" />
    <glyph glyph-name="quotedbl" unicode="&#x22;" horiz-adv-x="350" 
d="M322 743l-33 -290h-38l-34 290h105zM133 743l-33 -290h-38l-34 290h105z" />
    <glyph glyph-name="numbersign" unicode="#" horiz-adv-x="749" 
d="M710 409h-179l-9 -97h176v-71h-183l-23 -241h-78l26 241h-141l-26 -241h-74l23 241h-182v71h190l9 97h-186v74h192l21 223h78l-22 -223h140l21 223h76l-22 -223h173v-74zM455 409h-140l-10 -97h141z" />
    <glyph glyph-name="dollar" unicode="$" horiz-adv-x="771" 
d="M347 -134v120c-99 4 -246 30 -326 160l96 36c52 -78 153 -107 231 -112v255c-69 5 -157 12 -217 51c-25 17 -72 56 -72 134c0 36 10 111 91 160c62 37 129 43 198 48v97h79v-99c85 -4 220 -25 294 -136l-95 -36c-35 44 -99 84 -199 92v-225l64 -5c78 -6 162 -21 212 -89
c33 -45 35 -90 35 -111c0 -76 -38 -139 -103 -177c-66 -38 -138 -41 -211 -44v-119h-77zM348 416v225c-50 -4 -193 -16 -193 -117c0 -13 0 -34 20 -56c31 -34 83 -43 173 -52zM426 321v-253c63 0 216 14 216 134c0 11 -1 45 -26 69c-33 33 -92 42 -190 50z" />
    <glyph glyph-name="percent" unicode="%" horiz-adv-x="1042" 
d="M760 670l-432 -682l-49 30l432 683zM428 469c0 -100 -56 -226 -203 -226c-104 0 -199 73 -199 223c0 128 85 227 204 227c128 0 198 -112 198 -224zM358 467c0 75 -38 168 -131 168c-62 0 -130 -54 -130 -171c0 -125 74 -162 129 -162c94 0 132 84 132 165zM1012 222
c0 -83 -41 -226 -203 -226c-104 0 -199 73 -199 223c0 92 53 227 204 227c128 0 198 -109 198 -224zM941 220c0 82 -38 167 -131 167c-62 0 -130 -53 -130 -170c0 -125 75 -162 130 -162c94 0 131 84 131 165z" />
    <glyph glyph-name="ampersand" unicode="&#x26;" horiz-adv-x="771" 
d="M745 85v-81c-25 -7 -36 -9 -49 -9c-46 0 -70 18 -135 64c-57 -36 -137 -77 -261 -77c-33 0 -156 1 -225 95c-24 33 -36 66 -36 108c0 121 94 159 190 193c-21 19 -69 60 -69 138c0 97 75 159 190 159c99 0 182 -53 182 -155c0 -111 -97 -152 -150 -170
c42 -42 85 -85 131 -124l50 -43l24 39c32 51 30 87 32 114c0 0 68 2 86 2c-7 -116 -57 -175 -79 -208c44 -38 73 -47 98 -47c8 0 14 1 21 2zM328 409c26 6 108 28 108 109c0 52 -37 87 -88 87c-48 0 -91 -32 -91 -83c0 -37 25 -76 71 -113zM493 115
c-75 65 -142 133 -208 200c-93 -20 -145 -68 -145 -122c0 -31 13 -53 19 -63c20 -30 70 -67 157 -67c80 0 152 32 177 52z" />
    <glyph glyph-name="quotesingle" unicode="'" horiz-adv-x="161" 
d="M133 743l-33 -290h-38l-34 290h105z" />
    <glyph glyph-name="parenleft" unicode="(" horiz-adv-x="333" 
d="M325 -110l-32 -31c-55 44 -108 89 -151 146c-66 87 -103 197 -103 306c0 184 101 343 250 444l29 -30c-118 -119 -181 -221 -181 -395c0 -122 32 -245 103 -346c25 -35 54 -65 85 -94z" />
    <glyph glyph-name="parenright" unicode=")" horiz-adv-x="333" 
d="M8 726l32 31c55 -45 108 -89 151 -146c67 -89 104 -200 104 -311c0 -181 -104 -339 -251 -439l-29 30c117 118 182 220 182 393c0 123 -33 247 -104 348c-25 35 -54 65 -85 94z" />
    <glyph glyph-name="asterisk" unicode="*" horiz-adv-x="349" 
d="M323 583l-104 -37l63 -83l-48 -37l-66 85l-59 -85l-50 36l59 85l-100 28l17 57l102 -27v103h62v-105l103 34z" />
    <glyph glyph-name="plus" unicode="+" horiz-adv-x="772" 
d="M680 253h-245v-228h-98v228h-245v86h245v226h98v-226h245v-86z" />
    <glyph glyph-name="comma" unicode="," horiz-adv-x="250" 
d="M71 108h109v-127c0 -75 -29 -114 -109 -115v55c35 4 45 14 45 49v30h-45v108z" />
    <glyph glyph-name="hyphen" unicode="-" horiz-adv-x="385" 
d="M350 259h-315v82h315v-82z" />
    <glyph glyph-name="period" unicode="." horiz-adv-x="250" 
d="M179 0h-110v109h110v-109z" />
    <glyph glyph-name="slash" unicode="/" horiz-adv-x="417" 
d="M411 706l-312 -706h-88l310 706h90z" />
    <glyph glyph-name="zero" unicode="0" horiz-adv-x="708" 
d="M676 340c0 -247 -153 -356 -314 -356c-235 0 -311 201 -311 364c0 191 111 354 311 354c269 0 314 -248 314 -362zM152 336c0 -121 56 -271 212 -271c129 0 212 110 212 276c0 189 -99 280 -209 280c-126 0 -215 -106 -215 -285z" />
    <glyph glyph-name="one" unicode="1" horiz-adv-x="708" 
d="M429 0h-99v537c-53 -24 -83 -29 -191 -33v68h10c87 0 167 36 205 115h75v-687z" />
    <glyph glyph-name="two" unicode="2" horiz-adv-x="708" 
d="M640 0h-564v94c90 45 180 90 266 143c79 49 181 110 181 216c0 104 -82 162 -180 162c-21 0 -101 -3 -146 -63c-31 -41 -33 -86 -35 -134l-97 15c2 22 3 44 8 66c6 30 25 89 87 138c31 24 91 61 187 61c29 0 105 -2 174 -50c62 -43 102 -117 102 -193
c0 -31 -5 -94 -56 -154c-79 -93 -266 -183 -355 -219h428v-82z" />
    <glyph glyph-name="three" unicode="3" horiz-adv-x="708" 
d="M273 323v74h75c65 0 170 8 170 103c0 82 -77 124 -166 124c-148 0 -185 -92 -186 -134l-92 17c19 86 70 194 278 194c109 0 268 -40 268 -193c0 -28 -6 -105 -104 -138c52 -22 132 -62 132 -173c0 -171 -177 -211 -289 -211c-167 0 -280 52 -312 200l94 22
c19 -120 127 -141 218 -141c136 0 186 65 186 132c0 89 -66 124 -179 124h-93z" />
    <glyph glyph-name="four" unicode="4" horiz-adv-x="708" 
d="M655 166h-118v-166h-94v166h-400v79l415 443h78v-443h119v-79zM443 245v316c-17 -21 -31 -37 -292 -316h292z" />
    <glyph glyph-name="five" unicode="5" horiz-adv-x="708" 
d="M96 688h528l-5 -85h-448l-11 -183c50 43 119 72 214 72c179 0 283 -112 283 -241c0 -138 -115 -265 -309 -265c-178 0 -272 97 -301 193l94 20c35 -79 100 -133 214 -133c144 0 202 95 202 178c0 133 -121 168 -195 168c-85 0 -172 -39 -209 -114l-77 15z" />
    <glyph glyph-name="six" unicode="6" horiz-adv-x="708" 
d="M673 562l-93 -35c-37 58 -107 93 -184 93c-28 0 -112 -6 -173 -73c-54 -59 -69 -144 -69 -217c25 72 118 130 240 130c151 0 285 -74 285 -231c0 -136 -105 -245 -291 -245c-244 0 -323 180 -323 354c0 265 177 363 339 363c124 0 221 -67 269 -139zM584 223
c0 111 -108 157 -202 157c-129 0 -198 -72 -198 -157c0 -119 121 -157 209 -157c96 0 191 44 191 157z" />
    <glyph glyph-name="seven" unicode="7" horiz-adv-x="708" 
d="M80 688h548v-65c-194 -177 -249 -415 -260 -464c-12 -53 -19 -106 -25 -159h-109c9 67 23 182 94 337c5 11 40 84 85 148c39 56 81 100 97 118h-430v85z" />
    <glyph glyph-name="eight" unicode="8" horiz-adv-x="708" 
d="M502 360c26 -6 47 -11 70 -24c52 -30 82 -85 82 -145c0 -154 -152 -207 -307 -207c-140 0 -296 53 -296 207c0 84 50 126 76 142c28 17 59 25 68 28c-80 23 -121 77 -121 150c0 20 3 62 35 103c58 75 163 87 248 87c190 0 271 -86 271 -187c0 -33 -10 -69 -30 -95
c-25 -33 -60 -46 -96 -59zM356 624h-12c-98 0 -170 -33 -170 -115c0 -70 54 -115 180 -115c121 0 174 49 174 113c0 46 -25 117 -172 117zM364 318h-24c-114 0 -190 -38 -190 -123c0 -50 31 -128 197 -128h29c91 0 179 38 179 123c0 57 -37 128 -191 128z" />
    <glyph glyph-name="nine" unicode="9" horiz-adv-x="708" 
d="M37 150l89 36c2 -3 13 -25 23 -39c43 -59 99 -83 171 -83c117 0 203 67 234 179c10 37 10 71 11 84c-18 -19 -38 -40 -88 -64c-69 -34 -127 -36 -157 -36c-144 0 -284 76 -284 233c0 22 3 77 39 128c34 49 118 113 264 113c131 0 206 -53 241 -94c38 -43 75 -118 75 -249
c0 -274 -164 -374 -334 -374c-125 0 -200 57 -234 92c-29 31 -43 59 -50 74zM546 466c0 91 -77 156 -201 156c-128 0 -210 -64 -210 -160c0 -75 61 -157 199 -157c106 0 212 57 212 161z" />
    <glyph glyph-name="colon" unicode=":" horiz-adv-x="292" 
d="M219 386h-109v108h109v-108zM220 0h-109v107h109v-107z" />
    <glyph glyph-name="semicolon" unicode=";" horiz-adv-x="292" 
d="M220 388h-109v109h109v-109zM111 108h109v-127c0 -64 -17 -110 -109 -116v55c34 4 45 15 45 49v31h-45v108z" />
    <glyph glyph-name="less" unicode="&#x3c;" horiz-adv-x="772" 
d="M643 23l-542 228v97l542 234v-97l-433 -182l433 -179v-101z" />
    <glyph glyph-name="equal" unicode="=" horiz-adv-x="772" 
d="M678 352h-584v86h584v-86zM678 150h-584v86h584v-86z" />
    <glyph glyph-name="greater" unicode="&#x3e;" horiz-adv-x="772" 
d="M671 257l-541 -234v96l433 182l-433 180v100l541 -227v-97z" />
    <glyph glyph-name="question" unicode="?" horiz-adv-x="667" 
d="M277 181v46c0 89 31 110 105 140c30 13 61 25 88 41c56 33 64 74 64 103c0 89 -98 136 -178 136c-96 0 -177 -50 -204 -160l-88 17c14 52 58 219 297 219c34 0 157 -3 232 -98c39 -50 43 -95 43 -121c0 -111 -87 -150 -173 -186c-80 -33 -112 -46 -112 -121v-16h-74z
M364 0h-101v101h101v-101z" />
    <glyph glyph-name="at" unicode="@" horiz-adv-x="909" 
d="M598 495h75l-47 -193c-17 -69 -21 -92 -21 -120c0 -37 10 -52 33 -52c14 0 28 5 45 16c73 48 127 167 127 276c0 143 -113 237 -284 237c-233 0 -422 -186 -422 -416c0 -185 145 -312 354 -312c60 0 121 11 180 33c70 26 106 48 186 113l36 -41
c-84 -70 -122 -93 -198 -122c-66 -25 -136 -38 -202 -38c-247 0 -417 148 -417 363c0 263 216 473 485 473c205 0 341 -118 341 -296c0 -176 -125 -346 -255 -346c-57 0 -89 30 -90 86c-56 -63 -99 -85 -158 -85c-88 0 -142 63 -142 165c0 148 109 281 232 281
c58 0 102 -30 126 -84zM310 237c0 -63 34 -102 87 -102c80 0 157 102 157 216c0 67 -37 103 -90 103c-81 0 -154 -102 -154 -217z" />
    <glyph glyph-name="A" unicode="A" horiz-adv-x="833" 
d="M834 0h-116l-86 174h-434l-86 -174h-113l366 706h107zM589 255l-173 350l-176 -350h349z" />
    <glyph glyph-name="B" unicode="B" horiz-adv-x="896" 
d="M85 0v706h464c99 0 254 -20 254 -183c0 -119 -89 -139 -99 -145c70 -22 134 -77 134 -181c0 -19 -1 -61 -30 -105c-60 -91 -175 -92 -270 -92h-453zM186 408h369c46 0 95 1 125 44c7 10 19 32 19 64c0 18 -4 60 -47 87c-35 22 -76 22 -115 22h-351v-217zM186 82h382
c52 0 107 5 142 50c10 12 23 37 23 72c0 15 0 42 -20 71c-34 49 -91 52 -145 52h-382v-245z" />
    <glyph glyph-name="C" unicode="C" horiz-adv-x="917" 
d="M781 215l106 -22c-83 -172 -262 -211 -410 -211c-240 0 -428 124 -428 376c0 220 159 369 426 369c168 0 316 -57 397 -205l-107 -23c-55 103 -172 140 -286 140c-156 0 -324 -69 -324 -280c0 -198 147 -289 336 -289c97 0 226 24 290 145z" />
    <glyph glyph-name="D" unicode="D" horiz-adv-x="875" 
d="M85 0v706h351c74 0 154 0 242 -57c99 -65 145 -174 145 -291c0 -102 -39 -207 -119 -274c-96 -81 -219 -84 -337 -84h-282zM186 85h216c86 0 165 7 234 68c80 71 85 175 85 209c-1 116 -59 220 -176 251c-34 9 -74 10 -109 10h-250v-538z" />
    <glyph glyph-name="E" unicode="E" horiz-adv-x="792" 
d="M762 0h-677v706h651v-87h-551v-210h537v-84h-537v-238h577v-87z" />
    <glyph glyph-name="F" unicode="F" horiz-adv-x="750" 
d="M713 619h-529v-226h509v-83h-509v-310h-99v706h628v-87z" />
    <glyph glyph-name="G" unicode="G" horiz-adv-x="917" 
d="M848 0h-87v97c-49 -54 -150 -113 -308 -113c-251 0 -404 173 -404 371c0 205 162 368 422 368c141 0 306 -54 373 -186l-98 -30c-42 62 -126 130 -268 130c-173 0 -322 -98 -322 -278c0 -192 152 -291 319 -291c98 0 208 42 261 129c19 32 23 56 28 91h-311v84h395v-372z
" />
    <glyph glyph-name="H" unicode="H" horiz-adv-x="917" 
d="M828 0h-101v334h-541v-334h-102v706h101v-288h541v288h102v-706z" />
    <glyph glyph-name="I" unicode="I" horiz-adv-x="271" 
d="M186 0h-102v706h102v-706z" />
    <glyph glyph-name="J" unicode="J" horiz-adv-x="708" 
d="M521 706h100v-482c0 -24 -1 -65 -16 -100c-44 -103 -173 -141 -273 -141c-225 0 -279 129 -304 192l102 19c7 -15 29 -64 72 -92c47 -30 105 -30 121 -30c18 0 90 1 139 32c42 27 59 63 59 139v463z" />
    <glyph glyph-name="K" unicode="K" horiz-adv-x="833" 
d="M854 0h-134l-319 380l-219 -161v-219h-97v706h99v-376l509 376h147l-357 -266z" />
    <glyph glyph-name="L" unicode="L" horiz-adv-x="646" 
d="M654 0h-569v706h100v-620h469v-86z" />
    <glyph glyph-name="M" unicode="M" horiz-adv-x="1000" 
d="M934 0h-95c0 37 5 606 5 606l-289 -606h-94l-288 606s5 -580 5 -606h-94v706h138l288 -598l288 598h136v-706z" />
    <glyph glyph-name="N" unicode="N" horiz-adv-x="917" 
d="M829 0h-98l-553 584s2 -532 2 -584h-96v706h103l549 -583s-3 547 -3 583h96v-706z" />
    <glyph glyph-name="O" unicode="O" horiz-adv-x="958" 
d="M906 343c0 -198 -148 -362 -426 -362c-262 0 -432 134 -432 364c0 254 203 378 426 378c208 0 432 -114 432 -380zM805 353c0 128 -83 284 -331 284c-171 0 -326 -88 -326 -288c0 -175 126 -281 334 -281c242 0 323 145 323 285z" />
    <glyph glyph-name="P" unicode="P" horiz-adv-x="812" 
d="M83 0v706h443c63 0 175 -7 236 -95c24 -35 36 -78 36 -121c0 -28 -5 -107 -74 -159c-61 -47 -127 -48 -200 -48h-339v-283h-102zM184 367h326c55 0 115 2 153 49c11 13 26 38 26 80c0 13 -1 46 -25 76c-40 50 -108 50 -165 50h-315v-255z" />
    <glyph glyph-name="Q" unicode="Q" horiz-adv-x="979" 
d="M948 9l-51 -73l-166 93c-75 -34 -162 -47 -244 -47c-219 0 -438 110 -438 360c0 222 169 381 442 381c219 0 436 -123 436 -370c0 -90 -32 -187 -117 -265zM150 350c0 -154 97 -284 346 -284c236 0 330 135 330 284c0 166 -120 288 -337 288c-176 0 -339 -78 -339 -288z
" />
    <glyph glyph-name="R" unicode="R" horiz-adv-x="896" 
d="M896 0h-131l-239 283h-341v-283h-101v706h481c60 0 82 -3 112 -11c95 -25 149 -99 149 -196c0 -38 -8 -137 -114 -181c-18 -7 -37 -13 -77 -19zM184 366h349c57 0 124 2 163 52c10 12 26 36 26 77c0 13 -1 40 -18 69c-30 53 -77 58 -132 58h-388v-256z" />
    <glyph glyph-name="S" unicode="S" horiz-adv-x="812" 
d="M19 143l93 38c27 -29 48 -52 112 -78c81 -33 169 -34 203 -34s126 0 189 48c42 32 48 76 48 95c0 90 -100 105 -182 112l-108 10c-138 13 -201 18 -253 66c-48 44 -50 94 -50 118c0 99 68 144 98 160c42 23 119 46 233 46c213 0 308 -78 353 -142l-92 -37
c-63 59 -134 96 -260 96c-105 0 -232 -23 -232 -118c0 -76 72 -88 143 -95l219 -21c144 -14 230 -78 230 -194c0 -107 -71 -230 -346 -230c-160 0 -327 43 -398 160z" />
    <glyph glyph-name="T" unicode="T" horiz-adv-x="708" 
d="M691 622h-289v-622h-100v622h-288v84h677v-84z" />
    <glyph glyph-name="U" unicode="U" horiz-adv-x="896" 
d="M84 706h101v-431c0 -114 43 -139 72 -158c35 -22 93 -47 192 -47c20 0 197 2 242 101c15 34 16 65 16 103v432h101v-425c0 -47 -1 -87 -20 -132c-56 -135 -214 -166 -343 -166c-54 0 -253 6 -331 147c-28 52 -30 104 -30 161v415z" />
    <glyph glyph-name="V" unicode="V" horiz-adv-x="771" 
d="M772 706l-333 -706h-101l-339 706h111l280 -595l272 595h110z" />
    <glyph glyph-name="W" unicode="W" horiz-adv-x="1104" 
d="M1102 706l-233 -706h-111l-208 578l-209 -578h-114l-230 706h107l184 -595l218 595h89l217 -592l184 592h106z" />
    <glyph glyph-name="X" unicode="X" horiz-adv-x="854" 
d="M854 0h-141l-290 309l-288 -309h-137l361 374l-317 332h138l244 -267l247 267h137l-323 -331z" />
    <glyph glyph-name="Y" unicode="Y" horiz-adv-x="812" 
d="M811 706l-358 -433v-273h-99v275l-352 431h129l273 -346l279 346h128z" />
    <glyph glyph-name="Z" unicode="Z" horiz-adv-x="771" 
d="M735 0h-705v84l553 536h-511v86h653v-83l-554 -535h564v-88z" />
    <glyph glyph-name="bracketleft" unicode="[" horiz-adv-x="375" 
d="M341 689h-122v-766h120v-76h-219v918h221v-76z" />
    <glyph glyph-name="backslash" unicode="\" horiz-adv-x="417" 
d="M411 0h-90l-310 706h88z" />
    <glyph glyph-name="bracketright" unicode="]" horiz-adv-x="375" 
d="M255 -153h-221v76h122v766h-120v76h219v-918z" />
    <glyph glyph-name="asciicircum" unicode="^" horiz-adv-x="772" 
d="M644 286h-105l-151 316l-155 -316h-105l214 420h98z" />
    <glyph glyph-name="underscore" unicode="_" horiz-adv-x="500" 
d="M510 -214h-520v75h520v-75z" />
    <glyph glyph-name="grave" unicode="`" horiz-adv-x="375" 
d="M284 551h-65l-128 137h125z" />
    <glyph glyph-name="a" unicode="a" horiz-adv-x="688" 
d="M681 0c-28 -2 -56 -5 -84 -5c-83 0 -90 47 -94 83c-18 -36 -89 -96 -235 -96c-186 0 -229 100 -229 168c0 84 60 120 86 131c47 21 123 23 238 23h139v12c0 60 -1 118 -162 118c-73 0 -152 -13 -173 -64l-96 9c1 4 10 30 22 48c19 28 61 76 242 76c14 0 83 -1 139 -15
c13 -3 64 -14 93 -53c24 -32 24 -65 24 -102v-195c0 -56 9 -75 55 -75c9 0 35 3 35 3v-66zM503 231h-179c-96 0 -190 0 -190 -80c0 -48 44 -96 141 -96c57 0 165 13 210 96c18 34 17 66 18 80z" />
    <glyph glyph-name="b" unicode="b" 
d="M78 706h95v-275c38 35 112 71 212 71c167 0 298 -98 298 -257c0 -25 -4 -99 -53 -159c-36 -44 -109 -99 -244 -99c-120 0 -183 40 -213 68v-55h-95v706zM585 243c0 93 -76 183 -208 183c-182 0 -210 -136 -210 -186c0 -107 86 -174 213 -174c84 0 205 42 205 177z" />
    <glyph glyph-name="c" unicode="c" horiz-adv-x="688" 
d="M571 154l91 -24c-46 -89 -146 -147 -297 -147c-191 0 -322 87 -322 264c0 165 142 255 325 255c152 0 247 -64 289 -148l-91 -26c-34 61 -103 99 -198 99c-115 0 -224 -62 -224 -188c0 -131 126 -180 225 -180c98 0 171 40 202 95z" />
    <glyph glyph-name="d" unicode="d" 
d="M649 0h-95v65c-23 -21 -86 -74 -219 -74c-30 0 -116 2 -189 56c-32 23 -101 88 -101 201c0 34 7 114 79 178c32 28 104 74 214 74c35 0 134 -5 216 -69v275h95v-706zM559 249c0 23 -1 78 -50 122c-58 52 -141 53 -165 53c-114 0 -200 -68 -200 -184
c0 -96 70 -171 203 -171c91 0 212 34 212 180z" />
    <glyph glyph-name="e" unicode="e" horiz-adv-x="688" 
d="M643 233h-501c4 -83 74 -172 214 -172c75 0 154 33 186 106l91 -25c-58 -126 -191 -157 -290 -157c-158 0 -299 91 -299 260c0 196 173 259 297 259c220 0 302 -167 302 -257v-14zM145 304h391c-25 71 -80 129 -189 129c-88 0 -170 -42 -202 -129z" />
    <glyph glyph-name="f" unicode="f" horiz-adv-x="313" 
d="M315 705l-1 -85c-6 2 -34 9 -59 9c-32 0 -76 -7 -76 -70v-71h134v-65h-134v-423h-94v424h-79v64h80v61c0 15 1 47 8 72c12 42 47 91 144 91c18 0 39 -1 77 -7z" />
    <glyph glyph-name="g" unicode="g" 
d="M558 488h91v-458c0 -67 0 -137 -76 -185c-44 -29 -112 -54 -231 -54c-178 0 -273 58 -276 178l100 4v-5c0 -50 41 -97 187 -97c61 0 157 11 191 73c14 25 14 50 14 78v56c-87 -76 -190 -83 -231 -83c-149 0 -283 87 -283 248c0 205 182 254 294 254c92 0 168 -25 220 -67
v58zM556 250c0 115 -105 170 -206 170c-108 0 -207 -57 -207 -176c0 -133 129 -169 203 -169c108 0 210 62 210 175z" />
    <glyph glyph-name="h" unicode="h" 
d="M648 0h-95v250c0 32 -1 62 -13 91c-26 61 -102 82 -163 82c-31 0 -146 -7 -205 -107v-316h-95v706h96v-271c55 37 99 68 219 68c147 0 216 -70 240 -129c15 -35 16 -69 16 -107v-267z" />
    <glyph glyph-name="i" unicode="i" horiz-adv-x="250" 
d="M170 570h-94v96h94v-96zM172 0h-95v488h95v-488z" />
    <glyph glyph-name="j" unicode="j" horiz-adv-x="250" 
d="M172 569h-95v96h95v-96zM172 488v-512c0 -40 -1 -58 -6 -78c-26 -101 -129 -101 -156 -101c-32 0 -57 5 -84 11v89c26 -9 42 -14 70 -14c17 0 82 1 82 87v518h94z" />
    <glyph glyph-name="k" unicode="k" horiz-adv-x="688" 
d="M705 0h-140l-256 236l-134 -103v-133h-97v706h97v-471l307 253h147l-245 -192z" />
    <glyph glyph-name="l" unicode="l" horiz-adv-x="250" 
d="M171 0h-94v706h94v-706z" />
    <glyph glyph-name="m" unicode="m" horiz-adv-x="1167" 
d="M1085 0h-95v259c0 28 -1 57 -13 83c-16 35 -64 77 -155 77c-101 0 -161 -49 -180 -85c-10 -19 -14 -37 -14 -80v-254h-95v251c0 24 -1 49 -7 72c-26 95 -132 96 -155 96c-61 0 -150 -28 -184 -89c-14 -26 -14 -52 -14 -82v-248h-96v488h96v-67c32 35 104 78 216 78
c76 0 166 -24 206 -89c23 25 88 90 237 90c91 0 202 -33 239 -126c11 -28 14 -52 14 -111v-263z" />
    <glyph glyph-name="n" unicode="n" 
d="M649 0h-94v258c0 42 -4 60 -13 80c-18 42 -68 83 -168 83c-71 0 -157 -23 -189 -103c-11 -28 -12 -56 -12 -86v-232h-95v488h95v-59c17 14 35 31 74 47c29 12 76 26 144 26c121 0 210 -49 242 -122c16 -38 16 -76 16 -116v-264z" />
    <glyph glyph-name="o" unicode="o" 
d="M682 242c0 -141 -115 -257 -317 -257c-185 0 -320 94 -320 249c0 200 186 266 317 266c154 0 320 -68 320 -258zM587 244c0 134 -129 178 -227 178c-109 0 -219 -62 -219 -182c0 -102 91 -176 229 -176c95 0 217 50 217 180z" />
    <glyph glyph-name="p" unicode="p" 
d="M77 488h95v-52c37 37 132 64 211 64c190 0 298 -116 298 -252c0 -130 -90 -257 -279 -257c-138 0 -202 49 -230 77v-263h-95v683zM578 251c0 96 -75 174 -205 174c-139 0 -206 -81 -206 -184c0 -130 117 -174 210 -174c122 0 201 76 201 184z" />
    <glyph glyph-name="q" unicode="q" 
d="M648 488v-685h-94v246c-59 -45 -131 -64 -210 -64c-177 0 -300 98 -300 253c0 170 145 261 301 261c75 0 150 -22 208 -68v57h95zM561 245c0 96 -70 177 -203 177c-146 0 -213 -88 -213 -181c0 -120 102 -182 212 -182c112 0 204 65 204 186z" />
    <glyph glyph-name="r" unicode="r" horiz-adv-x="417" 
d="M78 488h95v-55c7 7 67 69 188 69c28 0 44 -5 56 -8v-93c-18 6 -41 11 -79 11c-37 0 -165 -3 -165 -140v-272h-95v488z" />
    <glyph glyph-name="s" unicode="s" horiz-adv-x="667" 
d="M18 84l82 54c5 -4 28 -22 50 -34c77 -40 173 -42 196 -42c96 0 174 24 174 79c0 13 -5 32 -31 45c-43 23 -135 20 -254 33c-42 5 -89 13 -125 39c-30 22 -46 56 -46 94c0 54 31 96 78 120c68 35 183 35 193 35c76 0 156 -13 224 -49c33 -18 48 -30 60 -42l-83 -46
c-80 55 -178 57 -208 57c-69 0 -112 -10 -138 -29c-18 -14 -21 -27 -21 -38c0 -9 4 -27 24 -38c34 -20 126 -23 229 -32c75 -6 111 -14 142 -34c38 -25 57 -65 57 -109c0 -11 -1 -40 -16 -67c-54 -96 -212 -98 -253 -98c-50 0 -222 3 -334 102z" />
    <glyph glyph-name="t" unicode="t" horiz-adv-x="333" 
d="M322 423h-139v-261c0 -62 9 -85 68 -85c30 0 60 6 69 7v-84c-31 -4 -63 -7 -95 -7c-36 0 -79 4 -107 31c-24 24 -28 50 -28 111v288h-83v65h85v169h94v-169h136v-65z" />
    <glyph glyph-name="u" unicode="u" 
d="M646 0h-93v62c-9 -8 -25 -22 -51 -38c-64 -39 -142 -41 -164 -41c-63 0 -197 18 -243 114c-20 41 -20 91 -20 135v256h94v-246c0 -49 4 -74 13 -96c33 -77 146 -79 165 -79c103 0 167 48 189 85c15 26 15 49 15 78v258h95v-488z" />
    <glyph glyph-name="v" unicode="v" horiz-adv-x="604" 
d="M603 488l-252 -488h-106l-246 488h105l194 -392l197 392h108z" />
    <glyph glyph-name="w" unicode="w" horiz-adv-x="896" 
d="M892 488l-198 -488h-108l-150 395l-142 -395h-108l-187 488h103l138 -391l137 391h118l145 -394l149 394h103z" />
    <glyph glyph-name="x" unicode="x" horiz-adv-x="625" 
d="M628 0h-135l-177 197l-185 -197h-133l250 257l-222 231h132l156 -171l159 171h128l-221 -230z" />
    <glyph glyph-name="y" unicode="y" horiz-adv-x="604" 
d="M497 489h106l-276 -536c-33 -64 -69 -123 -183 -123c-45 0 -103 10 -114 12v86c50 -11 76 -15 100 -15c59 0 85 23 118 84l-248 492h108l191 -394z" />
    <glyph glyph-name="z" unicode="z" horiz-adv-x="604" 
d="M580 0h-556v79l403 330h-372v79h506v-74l-403 -330h422v-84z" />
    <glyph glyph-name="braceleft" unicode="{" horiz-adv-x="344" 
d="M315 -155h-65c-114 0 -141 56 -141 143v180c0 79 -18 98 -94 101v74c66 2 95 18 95 94v184c0 87 20 147 140 147h65v-70h-38c-50 0 -68 -21 -68 -65v-194c0 -92 -35 -114 -91 -132c70 -25 90 -54 90 -137v-185c0 -49 19 -71 71 -71h36v-69z" />
    <glyph glyph-name="bar" unicode="|" horiz-adv-x="229" 
d="M164 -153h-99v918h99v-918z" />
    <glyph glyph-name="braceright" unicode="}" horiz-adv-x="344" 
d="M28 767h65c113 0 141 -56 141 -139v-185c0 -76 14 -95 94 -100v-74c-65 -2 -95 -15 -95 -96v-181c0 -88 -19 -148 -141 -148h-64v70h38c50 0 68 20 68 64v195c0 92 35 114 91 132c-70 26 -90 50 -90 133v194c0 42 -19 66 -71 66h-36v69z" />
    <glyph glyph-name="asciitilde" unicode="~" 
d="M646 374l53 -67c-64 -64 -133 -99 -197 -99c-36 0 -68 8 -132 36l-38 17c-49 22 -75 29 -105 29c-40 0 -66 -4 -142 -77l-55 69c70 70 119 99 193 99c39 0 68 -8 126 -32l63 -26c47 -20 68 -25 90 -25c41 0 73 13 144 76z" />
    <glyph glyph-name="Adieresis" unicode="&#xc4;" horiz-adv-x="833" 
d="M834 0h-116l-86 174h-434l-86 -174h-113l366 706h107zM589 255l-173 350l-176 -350h349zM590 774h-97v103h97v-103zM327 774h-97v103h97v-103z" />
    <glyph glyph-name="Aring" unicode="&#xc5;" horiz-adv-x="833" 
d="M834 0h-116l-86 174h-434l-86 -174h-113l366 706h107zM589 255l-173 350l-176 -350h349zM297 836c0 70 67 93 118 93c60 0 115 -34 115 -93c0 -25 -15 -98 -115 -98c-57 0 -118 33 -118 98zM469 835c0 23 -18 47 -54 47c-45 0 -58 -30 -58 -48c0 -25 22 -47 58 -47
c27 0 54 17 54 48z" />
    <glyph glyph-name="Ccedilla" unicode="&#xc7;" horiz-adv-x="917" 
d="M872 522l-107 -23c-45 94 -154 140 -286 140c-163 0 -324 -74 -324 -279c0 -135 73 -290 341 -290c51 0 172 8 250 95c19 22 30 43 35 50l106 -22c-32 -56 -50 -79 -80 -106c-114 -102 -286 -104 -316 -104l-11 -32c29 0 67 -1 95 -34c17 -20 17 -44 17 -49
c0 -63 -58 -103 -153 -103c-32 0 -58 4 -90 10l20 51c34 -8 47 -10 65 -10c40 0 67 16 67 42c0 30 -27 42 -67 42c-10 0 -21 -1 -31 -2l30 86c-23 2 -71 4 -130 23c-178 58 -254 201 -254 349c0 280 231 371 426 371c221 0 332 -91 397 -205z" />
    <glyph glyph-name="Eacute" unicode="&#xc9;" horiz-adv-x="792" 
d="M762 0h-677v706h651v-87h-551v-210h537v-84h-537v-238h577v-87zM557 878l-126 -125h-65l64 125h127z" />
    <glyph glyph-name="Ntilde" unicode="&#xd1;" horiz-adv-x="917" 
d="M829 0h-98l-553 584s2 -532 2 -584h-96v706h103l549 -583s-3 547 -3 583h96v-706zM606 875l42 -38c-39 -56 -77 -80 -116 -80c-52 0 -97 48 -148 48c-28 0 -44 -18 -70 -48l-41 39c34 46 73 80 116 80c51 0 101 -48 153 -48c27 0 44 20 64 47z" />
    <glyph glyph-name="Odieresis" unicode="&#xd6;" horiz-adv-x="958" 
d="M906 343c0 -198 -148 -362 -426 -362c-262 0 -432 134 -432 364c0 254 203 378 426 378c208 0 432 -114 432 -380zM805 353c0 128 -83 284 -331 284c-171 0 -326 -88 -326 -288c0 -175 126 -281 334 -281c242 0 323 145 323 285zM649 774h-97v103h97v-103zM386 774h-97
v103h97v-103z" />
    <glyph glyph-name="Udieresis" unicode="&#xdc;" horiz-adv-x="896" 
d="M84 706h101v-431c0 -114 43 -139 72 -158c35 -22 93 -47 192 -47c20 0 197 2 242 101c15 34 16 65 16 103v432h101v-425c0 -47 -1 -87 -20 -132c-56 -135 -214 -166 -343 -166c-54 0 -253 6 -331 147c-28 52 -30 104 -30 161v415zM620 774h-97v103h97v-103zM357 774h-97
v103h97v-103z" />
    <glyph glyph-name="aacute" unicode="&#xe1;" horiz-adv-x="688" 
d="M681 0c-28 -2 -56 -5 -84 -5c-83 0 -90 47 -94 83c-18 -36 -89 -96 -235 -96c-186 0 -229 100 -229 168c0 84 60 120 86 131c47 21 123 23 238 23h139v12c0 60 -1 118 -162 118c-73 0 -152 -13 -173 -64l-96 9c1 4 10 30 22 48c19 28 61 76 242 76c14 0 83 -1 139 -15
c13 -3 64 -14 93 -53c24 -32 24 -65 24 -102v-195c0 -56 9 -75 55 -75c9 0 35 3 35 3v-66zM503 231h-179c-96 0 -190 0 -190 -80c0 -48 44 -96 141 -96c57 0 165 13 210 96c18 34 17 66 18 80zM494 688l-129 -137h-66l70 137h125z" />
    <glyph glyph-name="agrave" unicode="&#xe0;" horiz-adv-x="688" 
d="M681 0c-28 -2 -56 -5 -84 -5c-83 0 -90 47 -94 83c-18 -36 -89 -96 -235 -96c-186 0 -229 100 -229 168c0 84 60 120 86 131c47 21 123 23 238 23h139v12c0 60 -1 118 -162 118c-73 0 -152 -13 -173 -64l-96 9c1 4 10 30 22 48c19 28 61 76 242 76c14 0 83 -1 139 -15
c13 -3 64 -14 93 -53c24 -32 24 -65 24 -102v-195c0 -56 9 -75 55 -75c9 0 35 3 35 3v-66zM503 231h-179c-96 0 -190 0 -190 -80c0 -48 44 -96 141 -96c57 0 165 13 210 96c18 34 17 66 18 80zM411 551h-65l-128 137h125z" />
    <glyph glyph-name="acircumflex" unicode="&#xe2;" horiz-adv-x="688" 
d="M681 0c-28 -2 -56 -5 -84 -5c-83 0 -90 47 -94 83c-18 -36 -89 -96 -235 -96c-186 0 -229 100 -229 168c0 84 60 120 86 131c47 21 123 23 238 23h139v12c0 60 -1 118 -162 118c-73 0 -152 -13 -173 -64l-96 9c1 4 10 30 22 48c19 28 61 76 242 76c14 0 83 -1 139 -15
c13 -3 64 -14 93 -53c24 -32 24 -65 24 -102v-195c0 -56 9 -75 55 -75c9 0 35 3 35 3v-66zM503 231h-179c-96 0 -190 0 -190 -80c0 -48 44 -96 141 -96c57 0 165 13 210 96c18 34 17 66 18 80zM506 552h-81l-82 76l-76 -77h-82l105 138h108z" />
    <glyph glyph-name="adieresis" unicode="&#xe4;" horiz-adv-x="688" 
d="M681 0c-28 -2 -56 -5 -84 -5c-83 0 -90 47 -94 83c-18 -36 -89 -96 -235 -96c-186 0 -229 100 -229 168c0 84 60 120 86 131c47 21 123 23 238 23h139v12c0 60 -1 118 -162 118c-73 0 -152 -13 -173 -64l-96 9c1 4 10 30 22 48c19 28 61 76 242 76c14 0 83 -1 139 -15
c13 -3 64 -14 93 -53c24 -32 24 -65 24 -102v-195c0 -56 9 -75 55 -75c9 0 35 3 35 3v-66zM503 231h-179c-96 0 -190 0 -190 -80c0 -48 44 -96 141 -96c57 0 165 13 210 96c18 34 17 66 18 80zM529 569h-98v103h98v-103zM265 569h-97v103h97v-103z" />
    <glyph glyph-name="atilde" unicode="&#xe3;" horiz-adv-x="688" 
d="M681 0c-28 -2 -56 -5 -84 -5c-83 0 -90 47 -94 83c-18 -36 -89 -96 -235 -96c-186 0 -229 100 -229 168c0 84 60 120 86 131c47 21 123 23 238 23h139v12c0 60 -1 118 -162 118c-73 0 -152 -13 -173 -64l-96 9c1 4 10 30 22 48c19 28 61 76 242 76c14 0 83 -1 139 -15
c13 -3 64 -14 93 -53c24 -32 24 -65 24 -102v-195c0 -56 9 -75 55 -75c9 0 35 3 35 3v-66zM503 231h-179c-96 0 -190 0 -190 -80c0 -48 44 -96 141 -96c57 0 165 13 210 96c18 34 17 66 18 80zM488 678l47 -35c-34 -62 -79 -93 -120 -93c-52 0 -96 52 -147 52
c-28 0 -44 -18 -69 -50l-43 36c31 50 74 91 117 91c53 0 98 -52 152 -52c27 0 44 22 63 51z" />
    <glyph glyph-name="aring" unicode="&#xe5;" horiz-adv-x="688" 
d="M681 0c-28 -2 -56 -5 -84 -5c-83 0 -90 47 -94 83c-18 -36 -89 -96 -235 -96c-186 0 -229 100 -229 168c0 84 60 120 86 131c47 21 123 23 238 23h139v12c0 60 -1 118 -162 118c-73 0 -152 -13 -173 -64l-96 9c1 4 10 30 22 48c19 28 61 76 242 76c14 0 83 -1 139 -15
c13 -3 64 -14 93 -53c24 -32 24 -65 24 -102v-195c0 -56 9 -75 55 -75c9 0 35 3 35 3v-66zM503 231h-179c-96 0 -190 0 -190 -80c0 -48 44 -96 141 -96c57 0 165 13 210 96c18 34 17 66 18 80zM469 643c0 -66 -63 -95 -114 -95c-88 0 -119 55 -119 97c0 70 72 93 119 93
c66 0 114 -38 114 -95zM408 644c0 19 -14 48 -56 48c-32 0 -56 -23 -56 -48c0 -19 16 -47 56 -47c41 0 56 28 56 47z" />
    <glyph glyph-name="ccedilla" unicode="&#xe7;" horiz-adv-x="688" 
d="M657 354l-91 -26c-51 96 -174 99 -194 99c-106 0 -228 -54 -228 -188c0 -131 127 -180 224 -180c61 0 152 15 203 95l91 -24c-69 -134 -234 -146 -275 -146l-16 -38c31 0 99 -12 99 -74c0 -52 -45 -91 -127 -91c-38 0 -81 8 -92 10l19 47c31 -6 41 -8 58 -8
c31 0 58 9 58 37c0 26 -36 33 -62 33c-9 0 -18 0 -27 -1l33 85c-29 0 -287 15 -287 258c0 50 10 99 48 148c72 93 197 112 277 112c106 0 224 -30 289 -148z" />
    <glyph glyph-name="eacute" unicode="&#xe9;" horiz-adv-x="688" 
d="M643 233h-501c4 -83 74 -172 214 -172c75 0 154 33 186 106l91 -25c-58 -126 -191 -157 -290 -157c-158 0 -299 91 -299 260c0 196 173 259 297 259c220 0 302 -167 302 -257v-14zM145 304h391c-25 71 -80 129 -189 129c-88 0 -170 -42 -202 -129zM480 688l-129 -137h-66
l70 137h125z" />
    <glyph glyph-name="egrave" unicode="&#xe8;" horiz-adv-x="688" 
d="M643 233h-501c4 -83 74 -172 214 -172c75 0 154 33 186 106l91 -25c-58 -126 -191 -157 -290 -157c-158 0 -299 91 -299 260c0 196 173 259 297 259c220 0 302 -167 302 -257v-14zM145 304h391c-25 71 -80 129 -189 129c-88 0 -170 -42 -202 -129zM411 551h-65l-128 137
h125z" />
    <glyph glyph-name="ecircumflex" unicode="&#xea;" horiz-adv-x="688" 
d="M643 233h-501c4 -83 74 -172 214 -172c75 0 154 33 186 106l91 -25c-58 -126 -191 -157 -290 -157c-158 0 -299 91 -299 260c0 196 173 259 297 259c220 0 302 -167 302 -257v-14zM145 304h391c-25 71 -80 129 -189 129c-88 0 -170 -42 -202 -129zM506 552h-81l-82 76
l-76 -77h-82l105 138h108z" />
    <glyph glyph-name="edieresis" unicode="&#xeb;" horiz-adv-x="688" 
d="M643 233h-501c4 -83 74 -172 214 -172c75 0 154 33 186 106l91 -25c-58 -126 -191 -157 -290 -157c-158 0 -299 91 -299 260c0 196 173 259 297 259c220 0 302 -167 302 -257v-14zM145 304h391c-25 71 -80 129 -189 129c-88 0 -170 -42 -202 -129zM520 569h-98v103h98
v-103zM256 569h-97v103h97v-103z" />
    <glyph glyph-name="iacute" unicode="&#xed;" horiz-adv-x="250" 
d="M172 0h-95v488h95v-488zM265 688l-129 -137h-66l70 137h125z" />
    <glyph glyph-name="igrave" unicode="&#xec;" horiz-adv-x="250" 
d="M172 0h-95v488h95v-488zM185 551h-65l-128 137h125z" />
    <glyph glyph-name="icircumflex" unicode="&#xee;" horiz-adv-x="250" 
d="M172 0h-95v488h95v-488zM287 552h-81l-82 76l-76 -77h-82l105 138h108z" />
    <glyph glyph-name="idieresis" unicode="&#xef;" horiz-adv-x="250" 
d="M172 0h-95v488h95v-488zM302 569h-98v103h98v-103zM38 569h-97v103h97v-103z" />
    <glyph glyph-name="ntilde" unicode="&#xf1;" 
d="M649 0h-94v258c0 42 -4 60 -13 80c-18 42 -68 83 -168 83c-71 0 -157 -23 -189 -103c-11 -28 -12 -56 -12 -86v-232h-95v488h95v-59c17 14 35 31 74 47c29 12 76 26 144 26c121 0 210 -49 242 -122c16 -38 16 -76 16 -116v-264zM508 678l47 -35c-34 -62 -79 -93 -120 -93
c-52 0 -96 52 -147 52c-28 0 -44 -18 -69 -50l-43 36c31 50 74 91 117 91c53 0 98 -52 152 -52c27 0 44 22 63 51z" />
    <glyph glyph-name="oacute" unicode="&#xf3;" 
d="M682 242c0 -141 -115 -257 -317 -257c-185 0 -320 94 -320 249c0 200 186 266 317 266c154 0 320 -68 320 -258zM587 244c0 134 -129 178 -227 178c-109 0 -219 -62 -219 -182c0 -102 91 -176 229 -176c95 0 217 50 217 180zM515 688l-129 -137h-66l70 137h125z" />
    <glyph glyph-name="ograve" unicode="&#xf2;" 
d="M682 242c0 -141 -115 -257 -317 -257c-185 0 -320 94 -320 249c0 200 186 266 317 266c154 0 320 -68 320 -258zM587 244c0 134 -129 178 -227 178c-109 0 -219 -62 -219 -182c0 -102 91 -176 229 -176c95 0 217 50 217 180zM432 551h-65l-128 137h125z" />
    <glyph glyph-name="ocircumflex" unicode="&#xf4;" 
d="M682 242c0 -141 -115 -257 -317 -257c-185 0 -320 94 -320 249c0 200 186 266 317 266c154 0 320 -68 320 -258zM587 244c0 134 -129 178 -227 178c-109 0 -219 -62 -219 -182c0 -102 91 -176 229 -176c95 0 217 50 217 180zM526 552h-81l-82 76l-76 -77h-82l105 138h108
z" />
    <glyph glyph-name="odieresis" unicode="&#xf6;" 
d="M682 242c0 -141 -115 -257 -317 -257c-185 0 -320 94 -320 249c0 200 186 266 317 266c154 0 320 -68 320 -258zM587 244c0 134 -129 178 -227 178c-109 0 -219 -62 -219 -182c0 -102 91 -176 229 -176c95 0 217 50 217 180zM539 569h-98v103h98v-103zM275 569h-97v103
h97v-103z" />
    <glyph glyph-name="otilde" unicode="&#xf5;" 
d="M682 242c0 -141 -115 -257 -317 -257c-185 0 -320 94 -320 249c0 200 186 266 317 266c154 0 320 -68 320 -258zM587 244c0 134 -129 178 -227 178c-109 0 -219 -62 -219 -182c0 -102 91 -176 229 -176c95 0 217 50 217 180zM508 678l47 -35c-34 -62 -79 -93 -120 -93
c-52 0 -96 52 -147 52c-28 0 -44 -18 -69 -50l-43 36c31 50 74 91 117 91c53 0 98 -52 152 -52c27 0 44 22 63 51z" />
    <glyph glyph-name="uacute" unicode="&#xfa;" 
d="M646 0h-93v62c-9 -8 -25 -22 -51 -38c-64 -39 -142 -41 -164 -41c-63 0 -197 18 -243 114c-20 41 -20 91 -20 135v256h94v-246c0 -49 4 -74 13 -96c33 -77 146 -79 165 -79c103 0 167 48 189 85c15 26 15 49 15 78v258h95v-488zM514 688l-129 -137h-66l70 137h125z" />
    <glyph glyph-name="ugrave" unicode="&#xf9;" 
d="M646 0h-93v62c-9 -8 -25 -22 -51 -38c-64 -39 -142 -41 -164 -41c-63 0 -197 18 -243 114c-20 41 -20 91 -20 135v256h94v-246c0 -49 4 -74 13 -96c33 -77 146 -79 165 -79c103 0 167 48 189 85c15 26 15 49 15 78v258h95v-488zM432 551h-65l-128 137h125z" />
    <glyph glyph-name="ucircumflex" unicode="&#xfb;" 
d="M646 0h-93v62c-9 -8 -25 -22 -51 -38c-64 -39 -142 -41 -164 -41c-63 0 -197 18 -243 114c-20 41 -20 91 -20 135v256h94v-246c0 -49 4 -74 13 -96c33 -77 146 -79 165 -79c103 0 167 48 189 85c15 26 15 49 15 78v258h95v-488zM526 552h-81l-82 76l-76 -77h-82l105 138
h108z" />
    <glyph glyph-name="udieresis" unicode="&#xfc;" 
d="M646 0h-93v62c-9 -8 -25 -22 -51 -38c-64 -39 -142 -41 -164 -41c-63 0 -197 18 -243 114c-20 41 -20 91 -20 135v256h94v-246c0 -49 4 -74 13 -96c33 -77 146 -79 165 -79c103 0 167 48 189 85c15 26 15 49 15 78v258h95v-488zM535 569h-98v103h98v-103zM271 569h-97
v103h97v-103z" />
    <glyph glyph-name="dagger" unicode="&#x2020;" horiz-adv-x="604" 
d="M564 401h-215v-525h-95v525h-217v79h217v226h95v-225h215v-80z" />
    <glyph glyph-name="degree" unicode="&#xb0;" horiz-adv-x="354" 
d="M338 594c0 -89 -71 -162 -161 -162s-161 73 -161 162s72 161 161 161c91 0 161 -71 161 -161zM256 596c0 44 -35 79 -79 79s-79 -35 -79 -79c0 -43 36 -79 79 -79c44 0 79 35 79 79z" />
    <glyph glyph-name="cent" unicode="&#xa2;" horiz-adv-x="688" 
d="M657 353l-92 -26c-39 72 -103 88 -163 98v-365c49 5 134 28 168 94l92 -24c-65 -116 -169 -136 -260 -145v-105h-71v104c-219 10 -288 147 -288 258c0 175 145 248 288 258v90h71v-89c145 -16 202 -60 255 -148zM331 60v365c-147 -21 -188 -115 -188 -182
c0 -73 41 -163 188 -183z" />
    <glyph glyph-name="sterling" unicode="&#xa3;" 
d="M707 230v-35c0 -44 -13 -207 -175 -207c-72 0 -127 34 -185 71c-9 -8 -17 -17 -27 -25c-57 -43 -129 -47 -150 -47c-93 0 -140 53 -140 114c0 18 7 114 137 114c54 0 88 -13 136 -35c0 71 -23 99 -62 142h-179v68h124c-14 17 -54 64 -54 132c0 83 49 129 73 147
c37 28 94 56 197 56c141 0 216 -63 248 -112c31 -47 35 -96 38 -115l-96 -22c-4 56 -21 100 -69 133c-49 34 -102 35 -123 35c-16 0 -89 -1 -134 -47c-10 -10 -33 -37 -33 -78c0 -54 50 -98 76 -129h208v-69h-159c9 -18 35 -61 35 -118c0 -31 -8 -57 -10 -67
c45 -25 87 -59 141 -59c83 0 90 90 90 153h93zM279 108c-9 5 -18 11 -28 16c-35 17 -72 21 -85 21c-17 0 -58 -6 -58 -42c0 -35 42 -45 69 -45c58 0 89 35 102 50z" />
    <glyph glyph-name="section" unicode="&#xa7;" horiz-adv-x="792" 
d="M698 636l-59 -77c-77 53 -167 76 -260 76c-42 0 -137 -6 -137 -65c0 -47 65 -62 196 -91c134 -30 296 -67 296 -224c0 -81 -44 -133 -109 -173c18 -26 28 -56 28 -87c0 -82 -69 -172 -259 -172c-125 0 -226 36 -336 92l72 81c77 -51 176 -78 268 -78c47 0 142 9 142 74
c0 51 -52 67 -140 87c-144 33 -344 55 -344 226c0 78 48 140 113 179c-24 25 -37 54 -37 89c0 125 162 153 257 153c108 0 219 -28 309 -90zM240 437c-43 -27 -82 -63 -82 -118c0 -87 100 -107 167 -122c78 -18 165 -30 235 -63c42 28 75 60 75 114c0 58 -45 86 -94 102
c-99 33 -207 42 -301 87z" />
    <glyph glyph-name="bullet" unicode="&#x2022;" horiz-adv-x="333" 
d="M282 238h-232v230h232v-230z" />
    <glyph glyph-name="paragraph" unicode="&#xb6;" horiz-adv-x="636" 
d="M542 641h-34v-807h-69v807h-149v-807h-70v487c-38 9 -51 14 -74 29c-50 31 -78 88 -78 156c0 58 20 109 56 145c40 39 89 55 171 55h247v-65z" />
    <glyph glyph-name="germandbls" unicode="&#xdf;" 
d="M75 0v508c0 23 1 65 14 95c45 105 184 117 278 117c86 0 271 -11 271 -161c0 -53 -22 -104 -99 -123c82 -18 142 -61 142 -205c0 -241 -185 -241 -234 -241c-59 0 -163 8 -197 84c-13 28 -12 58 -13 87h94c0 -79 47 -98 107 -98c10 0 56 1 90 24c54 37 55 108 55 131
c0 146 -63 166 -184 166h-77v73h37c64 0 105 3 135 19c16 9 42 29 42 74c0 11 -1 38 -26 59c-33 29 -112 36 -154 36c-74 0 -110 -12 -141 -34c-39 -27 -44 -55 -44 -123v-488h-96z" />
    <glyph glyph-name="registered" unicode="&#xae;" horiz-adv-x="840" 
d="M776 354c0 -201 -156 -357 -357 -357c-197 0 -355 158 -355 356s158 356 357 356c198 0 355 -157 355 -355zM738 352c0 180 -140 321 -318 321c-175 0 -317 -144 -317 -321s140 -319 317 -319c176 0 318 142 318 319zM265 147v416h151c81 0 111 -4 137 -20
c29 -18 45 -51 45 -96c0 -71 -32 -105 -113 -121l126 -179h-84l-124 175h-68v-175h-70zM336 382h104c72 0 88 29 88 62c0 20 -7 38 -19 47c-13 10 -27 13 -75 13h-98v-122z" />
    <glyph glyph-name="copyright" unicode="&#xa9;" horiz-adv-x="840" 
d="M564 294l67 -13c-28 -94 -102 -146 -207 -146c-132 0 -221 85 -221 211c0 131 96 224 230 224c99 0 167 -45 194 -129l-68 -17c-24 60 -63 86 -126 86c-96 0 -159 -63 -159 -159c0 -92 61 -154 153 -154c69 0 120 36 137 97zM776 354c0 -201 -156 -357 -357 -357
c-197 0 -355 158 -355 356s158 356 357 356c198 0 355 -157 355 -355zM738 352c0 180 -140 321 -318 321c-175 0 -317 -144 -317 -321s140 -319 317 -319c176 0 318 142 318 319z" />
    <glyph glyph-name="trademark" unicode="&#x2122;" horiz-adv-x="687" 
d="M624 374h-57c1 28 5 268 5 268l-85 -268h-50l-85 272s6 -243 7 -272h-57v332h79l83 -264l79 264h81v-332zM274 657h-104v-283h-59v283h-107v49h270v-49z" />
    <glyph glyph-name="acute" unicode="&#xb4;" horiz-adv-x="375" 
d="M285 688l-129 -137h-66l70 137h125z" />
    <glyph glyph-name="dieresis" unicode="&#xa8;" horiz-adv-x="375" 
d="M368 569h-98v103h98v-103zM104 569h-97v103h97v-103z" />
    <glyph glyph-name="notequal" unicode="&#x2260;" horiz-adv-x="772" 
d="M677 152h-320l-86 -159h-87l85 159h-174v84h215l59 117h-274v84h317l81 151h87l-81 -151h178v-84h-220l-60 -117h280v-84z" />
    <glyph glyph-name="AE" unicode="&#xc6;" horiz-adv-x="1125" 
d="M1094 0h-570v170h-294l-113 -170h-117l486 706h602v-86h-464v-212h436v-82h-436v-238h470v-88zM525 252v361l-241 -361h241z" />
    <glyph glyph-name="Oslash" unicode="&#xd8;" horiz-adv-x="979" 
d="M898 715l46 -59l-98 -77c31 -48 79 -107 79 -220c0 -54 -8 -169 -111 -266c-117 -109 -270 -110 -320 -110c-111 0 -225 28 -297 84l-101 -80l-45 60l88 69c-30 37 -87 112 -87 236c0 49 9 164 108 258c116 110 276 114 324 114c103 0 234 -31 306 -95zM773 522
l-503 -397c60 -40 145 -58 218 -58c110 0 183 33 220 56c83 53 119 136 119 232c0 28 -1 100 -54 167zM212 173l507 401c-51 34 -116 66 -232 66c-201 0 -337 -108 -337 -287c0 -65 21 -135 62 -180z" />
    <glyph glyph-name="infinity" unicode="&#x221e;" horiz-adv-x="772" 
d="M390 372c58 74 109 122 185 122c91 0 159 -78 159 -183c0 -117 -70 -196 -173 -196c-72 0 -115 26 -180 119c-64 -84 -118 -120 -183 -120c-94 0 -159 77 -159 188c0 113 71 192 173 192c77 0 120 -35 178 -122zM438 302c51 -79 81 -106 125 -106c51 0 88 47 88 112
c0 59 -31 100 -76 100c-27 0 -61 -18 -87 -48c0 0 -33 -39 -50 -58zM334 305c-52 76 -78 105 -126 105c-50 0 -85 -45 -85 -110c0 -60 30 -101 75 -101c26 0 61 20 85 48z" />
    <glyph glyph-name="plusminus" unicode="&#xb1;" horiz-adv-x="772" 
d="M680 381h-245v-224h-98v224h-245v86h245v220h98v-220h245v-86zM680 0h-588v86h588v-86z" />
    <glyph glyph-name="lessequal" unicode="&#x2264;" horiz-adv-x="772" 
d="M646 141l-543 222v96l543 212v-95l-434 -163l434 -172v-100zM646 0h-543v86h543v-86z" />
    <glyph glyph-name="greaterequal" unicode="&#x2265;" horiz-adv-x="772" 
d="M670 340l-544 -212v95l434 163l-434 172v101l544 -222v-97zM670 0h-544v86h544v-86z" />
    <glyph glyph-name="yen" unicode="&#xa5;" horiz-adv-x="812" 
d="M811 701l-256 -308h152v-73h-213l-41 -50v-10h254v-75h-254v-185h-99v185h-254v74h254v14l-39 47h-215v73h155l-253 308h129l277 -349l275 349h128z" />
    <glyph glyph-name="mu" unicode="&#xb5;" horiz-adv-x="742" 
d="M551 488h95v-360c0 -47 15 -65 56 -65c12 0 22 0 34 3v-66c-30 -4 -60 -6 -75 -6c-66 0 -95 21 -102 74c-63 -60 -125 -85 -209 -85c-69 0 -134 19 -181 54v-232h-94v683h94v-246c0 -49 3 -71 11 -92c21 -53 82 -83 166 -83c65 0 125 20 165 54c33 29 40 60 40 103v264z
" />
    <glyph glyph-name="partialdiff" unicode="&#x2202;" horiz-adv-x="593" 
d="M179 626l-11 74c49 12 91 17 133 17c169 0 249 -100 249 -313c0 -276 -92 -414 -275 -414c-143 0 -241 86 -241 213c0 135 98 225 245 225c66 0 118 -17 176 -57c1 15 1 20 1 32c0 167 -50 237 -169 237c-32 0 -59 -3 -108 -14zM446 295c-49 39 -105 59 -165 59
c-91 0 -149 -60 -149 -153c0 -83 58 -138 146 -138c50 0 90 19 117 56c28 37 51 124 51 176z" />
    <glyph glyph-name="summation" unicode="&#x2211;" horiz-adv-x="761" 
d="M720 -122h-675v76l339 348l-340 326v78h676v-87h-537l323 -316l-332 -339h546v-86z" />
    <glyph glyph-name="product" unicode="&#x220f;" horiz-adv-x="830" 
d="M754 -122h-96v741h-487v-741h-95v828h678v-828z" />
    <glyph glyph-name="pi" unicode="&#x3c0;" horiz-adv-x="649" 
d="M615 0h-37c-58 0 -80 5 -102 26c-24 22 -31 45 -31 101v282h-255v-409h-96v409h-59v77h563v-77h-59v-278c0 -55 15 -61 76 -61v-70z" />
    <glyph glyph-name="integral" unicode="&#x222b;" horiz-adv-x="372" 
d="M324 707v-79c-27 15 -37 19 -52 19c-32 0 -45 -15 -45 -76v-606c0 -109 -40 -142 -116 -142c-23 0 -43 3 -74 12v79c24 -12 34 -15 50 -15c29 0 45 10 45 72v625c0 66 25 123 119 123c26 0 46 -4 73 -12z" />
    <glyph glyph-name="ordfeminine" unicode="&#xaa;" horiz-adv-x="479" 
d="M478 407v-51c-9 -1 -31 -5 -57 -5c-54 0 -63 28 -71 55c-45 -47 -112 -61 -168 -61c-16 0 -156 3 -156 121c0 100 101 107 134 107h188v22c0 52 -48 63 -120 63c-30 0 -92 -1 -109 -45l-72 7c21 71 79 92 178 92c94 0 191 -15 191 -106v-167c0 -10 1 -35 31 -35
c10 0 21 1 31 3zM286 518h-105c-39 0 -82 -11 -82 -52c0 -40 32 -65 94 -65c47 0 98 17 120 35c31 25 36 59 36 86c-21 -3 -42 -4 -63 -4z" />
    <glyph glyph-name="ordmasculine" unicode="&#xba;" horiz-adv-x="500" 
d="M468 530c0 -38 -22 -182 -216 -182c-156 0 -223 91 -223 178c0 63 36 186 217 186c161 0 222 -95 222 -182zM397 532c0 54 -40 121 -145 121c-101 0 -151 -59 -151 -124c0 -57 46 -120 151 -120c108 0 145 68 145 123z" />
    <glyph glyph-name="Omega" unicode="&#x2126;" horiz-adv-x="835" 
d="M793 0h-318v78c136 36 206 156 206 303c0 156 -101 257 -258 257c-166 0 -273 -104 -273 -267c0 -133 64 -260 209 -293v-78h-317v78h185c-110 54 -177 167 -177 298c0 205 154 348 377 348c214 0 355 -133 355 -336c0 -142 -65 -253 -187 -310h198v-78z" />
    <glyph glyph-name="ae" unicode="&#xe6;" horiz-adv-x="1146" 
d="M1100 234h-496c11 -134 136 -171 211 -171c38 0 141 14 182 102l90 -23c-58 -124 -185 -156 -273 -156c-83 0 -184 23 -254 106c-47 -53 -127 -109 -278 -109c-99 0 -164 25 -203 69c-38 42 -39 90 -39 103c0 39 14 68 25 83c42 58 104 68 207 68h239
c0 89 -63 123 -185 123c-82 0 -139 -17 -164 -67l-95 11c32 94 119 127 262 127c134 0 210 -33 244 -80c42 40 102 82 222 82c158 0 292 -82 305 -268zM988 305c-17 62 -71 124 -185 124c-115 0 -173 -56 -196 -124h381zM510 234h-186c-62 0 -114 -1 -138 -11
c-49 -20 -50 -61 -50 -70c0 -70 63 -95 159 -95c53 0 156 11 197 87c13 24 16 58 18 84v5z" />
    <glyph glyph-name="oslash" unicode="&#xf8;" 
d="M640 498l38 -54l-57 -43c30 -39 61 -82 61 -161c0 -129 -101 -254 -322 -254c-20 0 -108 2 -175 36c-19 10 -42 26 -45 28l-71 -52l-41 57l60 44c-38 49 -45 116 -45 142c0 33 5 98 62 162c65 72 163 99 259 99c30 0 124 -2 205 -54zM555 353l-341 -250
c28 -20 79 -42 154 -42c99 0 224 52 224 184c0 46 -14 71 -37 108zM160 151l339 245c-26 12 -68 31 -136 31c-171 0 -230 -108 -230 -185c0 -43 13 -73 27 -91z" />
    <glyph glyph-name="questiondown" unicode="&#xbf;" horiz-adv-x="667" 
d="M387 525v-46c0 -88 -31 -109 -105 -140c-30 -12 -61 -25 -88 -41c-56 -33 -64 -74 -64 -103c0 -89 95 -136 178 -136c96 0 177 50 204 160l88 -17c-14 -52 -58 -219 -297 -219c-34 0 -157 3 -232 98c-39 50 -44 95 -44 121c0 111 88 150 174 186c80 33 112 46 112 121v16
h74zM300 706h101v-101h-101v101z" />
    <glyph glyph-name="exclamdown" unicode="&#xa1;" horiz-adv-x="292" 
d="M171 590h-101v101h101v-101zM171 0h-100v296l28 215h43l29 -213v-298z" />
    <glyph glyph-name="logicalnot" unicode="&#xac;" horiz-adv-x="772" 
d="M681 7h-99v246h-525v86h624v-332z" />
    <glyph glyph-name="radical" unicode="&#x221a;" horiz-adv-x="775" 
d="M722 706l-309 -891h-91l-155 286l-72 -34l-37 79l160 71l148 -284l256 773h100z" />
    <glyph glyph-name="florin" unicode="&#x192;" horiz-adv-x="313" 
d="M363 696l-10 -85c-30 7 -42 9 -57 9c-59 0 -81 -30 -86 -74l-7 -65h134l-8 -65h-134l-48 -428c-10 -91 -15 -130 -70 -168c-33 -24 -67 -29 -105 -29c-29 0 -47 3 -76 7l9 85c31 -8 42 -9 58 -9c74 0 82 43 86 78l53 464h-80l7 65h81l6 51c1 8 5 57 19 86
c38 81 124 85 147 85c31 0 51 -2 81 -7z" />
    <glyph glyph-name="approxequal" unicode="&#x2248;" horiz-adv-x="813" 
d="M690 471l51 -64c-59 -63 -130 -94 -196 -94c-30 0 -59 6 -98 21l-78 30c-43 17 -84 26 -115 26c-42 0 -70 -18 -119 -62l-11 -10l-53 64c65 70 120 95 190 95c39 0 80 -11 145 -35l52 -19c43 -16 68 -23 90 -23c41 0 77 12 142 71zM690 269l51 -64
c-59 -63 -130 -94 -196 -94c-30 0 -59 6 -98 21l-78 30c-43 17 -84 25 -114 25c-43 0 -73 -14 -120 -61l-11 -11l-53 65c65 70 120 95 190 95c39 0 80 -11 145 -35l52 -19c43 -16 68 -23 90 -23c41 0 80 13 142 71z" />
    <glyph glyph-name="Delta" unicode="&#x2206;" horiz-adv-x="757" 
d="M760 0h-765l332 706h101zM606 86l-230 513l-229 -513h459z" />
    <glyph glyph-name="guillemotleft" unicode="&#xab;" horiz-adv-x="500" 
d="M448 94l-203 159v86l203 158v-63l-128 -139l128 -137v-64zM247 94l-203 159v85l203 159v-65l-128 -137l128 -137v-64z" />
    <glyph glyph-name="guillemotright" unicode="&#xbb;" horiz-adv-x="500" 
d="M454 252l-202 -159v64l128 138l-128 137v65l202 -159v-86zM253 253l-202 -161v64l129 139l-129 137v64l202 -160v-83z" />
    <glyph glyph-name="ellipsis" unicode="&#x2026;" horiz-adv-x="1000" 
d="M883 0h-99v97h99v-97zM550 0h-98v97h98v-97zM215 0h-99v97h99v-97z" />
    <glyph glyph-name="uni00A0" unicode="&#xa0;" horiz-adv-x="333" 
 />
    <glyph glyph-name="Agrave" unicode="&#xc0;" horiz-adv-x="833" 
d="M834 0h-116l-86 174h-434l-86 -174h-113l366 706h107zM589 255l-173 350l-176 -350h349zM468 755h-66l-120 126h125z" />
    <glyph glyph-name="Atilde" unicode="&#xc3;" horiz-adv-x="833" 
d="M834 0h-116l-86 174h-434l-86 -174h-113l366 706h107zM589 255l-173 350l-176 -350h349zM564 875l42 -38c-39 -56 -77 -80 -116 -80c-52 0 -97 48 -148 48c-28 0 -44 -18 -70 -48l-41 39c34 46 73 80 116 80c51 0 101 -48 153 -48c27 0 44 20 64 47z" />
    <glyph glyph-name="Otilde" unicode="&#xd5;" horiz-adv-x="958" 
d="M906 343c0 -198 -148 -362 -426 -362c-262 0 -432 134 -432 364c0 254 203 378 426 378c208 0 432 -114 432 -380zM805 353c0 128 -83 284 -331 284c-171 0 -326 -88 -326 -288c0 -175 126 -281 334 -281c242 0 323 145 323 285zM627 875l42 -38
c-39 -56 -77 -80 -116 -80c-52 0 -97 48 -148 48c-28 0 -44 -18 -70 -48l-41 39c34 46 73 80 116 80c51 0 101 -48 153 -48c27 0 44 20 64 47z" />
    <glyph glyph-name="OE" unicode="&#x152;" horiz-adv-x="1146" 
d="M1113 0h-526c-50 -5 -107 -10 -158 -10c-221 0 -381 132 -381 364c0 51 9 185 127 278c48 38 131 84 272 84c44 0 87 -4 130 -10h532v-88h-428v-214h399v-82h-399v-235h432v-87zM585 87v533c-49 11 -82 17 -133 17c-150 0 -302 -79 -302 -286c0 -44 7 -171 128 -239
c55 -31 110 -42 171 -42c52 0 86 7 136 17z" />
    <glyph glyph-name="oe" unicode="&#x153;" horiz-adv-x="1146" 
d="M1099 233h-480c1 -20 5 -59 36 -98c40 -50 102 -71 164 -71c99 0 154 53 178 101l90 -24c-10 -21 -18 -33 -23 -41c-14 -20 -50 -63 -112 -88c-21 -9 -73 -25 -137 -25c-83 0 -170 23 -240 95c-35 -35 -100 -96 -244 -96c-156 0 -289 92 -289 260c0 148 120 256 293 256
c100 0 185 -37 237 -94c11 13 78 93 231 93c168 0 292 -106 296 -268zM988 304c-24 87 -102 125 -182 125c-57 0 -116 -20 -151 -64c-20 -25 -27 -50 -30 -61h363zM533 241c0 83 -57 181 -192 181c-176 0 -204 -137 -204 -182c0 -107 89 -174 201 -174c73 0 195 39 195 175z
" />
    <glyph glyph-name="endash" unicode="&#x2013;" horiz-adv-x="626" 
d="M591 259h-556v82h556v-82z" />
    <glyph glyph-name="emdash" unicode="&#x2014;" horiz-adv-x="932" 
d="M897 259h-862v82h862v-82z" />
    <glyph glyph-name="quotedblleft" unicode="&#x201c;" horiz-adv-x="437" 
d="M365 469h-110v128c0 53 12 91 67 108c14 4 29 6 43 7v-55c-35 -4 -45 -14 -45 -49v-31h45v-108zM179 469h-110v128c0 53 12 91 67 108c14 4 29 6 43 7v-55c-35 -4 -45 -14 -45 -49v-31h45v-108z" />
    <glyph glyph-name="quotedblright" unicode="&#x201d;" horiz-adv-x="437" 
d="M254 706h110v-128c0 -75 -31 -114 -110 -115v55c35 4 45 14 45 49v30h-45v109zM68 706h109v-128c0 -75 -29 -114 -109 -115v55c35 4 45 14 45 49v30h-45v109z" />
    <glyph glyph-name="quoteleft" unicode="&#x2018;" horiz-adv-x="250" 
d="M172 469h-110v128c0 53 12 91 67 108c14 4 29 6 43 7v-55c-35 -4 -45 -14 -45 -49v-31h45v-108z" />
    <glyph glyph-name="quoteright" unicode="&#x2019;" horiz-adv-x="250" 
d="M75 706h110v-129c0 -53 -12 -91 -67 -108c-14 -4 -29 -6 -43 -7v55c35 4 45 14 45 49v31h-45v109z" />
    <glyph glyph-name="divide" unicode="&#xf7;" horiz-adv-x="772" 
d="M440 404h-109v107h109v-107zM701 253h-630v87h630v-87zM441 78h-109v107h109v-107z" />
    <glyph glyph-name="lozenge" unicode="&#x25ca;" horiz-adv-x="772" 
d="M639 352l-204 -352h-102l-200 355l200 351h102zM532 352l-145 271l-148 -265l144 -274z" />
    <glyph glyph-name="ydieresis" unicode="&#xff;" horiz-adv-x="604" 
d="M497 489h106l-276 -536c-33 -64 -69 -123 -183 -123c-45 0 -103 10 -114 12v86c50 -11 76 -15 100 -15c59 0 85 23 118 84l-248 492h108l191 -394zM479 569h-98v103h98v-103zM215 569h-97v103h97v-103z" />
    <glyph glyph-name="Ydieresis" unicode="&#x178;" horiz-adv-x="812" 
d="M811 706l-358 -433v-273h-99v275l-352 431h129l273 -346l279 346h128zM579 774h-97v103h97v-103zM316 774h-97v103h97v-103z" />
    <glyph glyph-name="fraction" unicode="&#x2044;" horiz-adv-x="125" 
d="M300 670l-432 -682l-49 30l432 683z" />
    <glyph glyph-name="Euro" unicode="&#x20ac;" horiz-adv-x="933" 
d="M880 608l-48 -92c-23 34 -87 78 -141 97c-51 18 -98 25 -170 25c-110 0 -195 -31 -242 -87c-25 -30 -47 -77 -54 -111h575l-30 -62h-552c0 -20 0 -27 3 -50h523l-30 -61h-484c37 -129 143 -197 309 -197c90 0 196 27 258 65c22 14 40 28 66 54v-124
c-94 -56 -201 -83 -331 -83c-226 0 -377 105 -410 285h-91l33 61h49c-1 10 -1 16 -1 23c0 5 1 21 2 27h-83l33 62h56c35 182 185 286 411 286c155 0 285 -44 349 -118z" />
    <glyph glyph-name="guilsinglleft" unicode="&#x2039;" horiz-adv-x="292" 
d="M243 94l-202 159v86l202 158v-63l-128 -139l128 -137v-64z" />
    <glyph glyph-name="guilsinglright" unicode="&#x203a;" horiz-adv-x="292" 
d="M250 252l-203 -159v64l129 138l-129 137v65l203 -159v-86z" />
    <glyph glyph-name="daggerdbl" unicode="&#x2021;" horiz-adv-x="604" 
d="M564 82h-215v-207h-94v207h-217v72h217v290h-217v73h217v189h94v-189h215v-73h-215v-290h215v-72z" />
    <glyph glyph-name="periodcentered" unicode="&#xb7;" horiz-adv-x="250" 
d="M179 239h-110v109h110v-109z" />
    <glyph glyph-name="quotesinglbase" unicode="&#x201a;" horiz-adv-x="250" 
d="M71 108h109v-127c0 -75 -29 -114 -109 -115v55c35 4 45 14 45 49v30h-45v108z" />
    <glyph glyph-name="quotedblbase" unicode="&#x201e;" horiz-adv-x="437" 
d="M255 108h110v-127c0 -53 -11 -92 -67 -109c-14 -4 -29 -7 -43 -7v55c35 4 46 14 46 49v31h-46v108zM71 108h109v-127c0 -75 -29 -114 -109 -115v55c35 4 45 14 45 49v30h-45v108z" />
    <glyph glyph-name="perthousand" unicode="&#x2030;" horiz-adv-x="1500" 
d="M760 670l-432 -682l-49 30l432 683zM428 469c0 -100 -56 -226 -203 -226c-104 0 -199 73 -199 223c0 128 85 227 204 227c128 0 198 -112 198 -224zM358 467c0 75 -38 168 -131 168c-62 0 -130 -54 -130 -171c0 -125 74 -162 129 -162c94 0 132 84 132 165zM1012 222
c0 -83 -41 -226 -203 -226c-104 0 -199 73 -199 223c0 92 53 227 204 227c128 0 198 -109 198 -224zM941 220c0 82 -38 167 -131 167c-62 0 -130 -53 -130 -170c0 -125 75 -162 130 -162c94 0 131 84 131 165zM1470 222c0 -83 -41 -226 -203 -226c-104 0 -199 73 -199 223
c0 92 53 227 204 227c128 0 198 -109 198 -224zM1399 220c0 82 -38 167 -131 167c-62 0 -130 -53 -130 -170c0 -125 75 -162 130 -162c94 0 131 84 131 165z" />
    <glyph glyph-name="Acircumflex" unicode="&#xc2;" horiz-adv-x="833" 
d="M834 0h-116l-86 174h-434l-86 -174h-113l366 706h107zM589 255l-173 350l-176 -350h349zM578 753h-82l-81 69l-82 -70h-79l107 125h107z" />
    <glyph glyph-name="Ecircumflex" unicode="&#xca;" horiz-adv-x="792" 
d="M762 0h-677v706h651v-87h-551v-210h537v-84h-537v-238h577v-87zM578 753h-82l-81 69l-82 -70h-79l107 125h107z" />
    <glyph glyph-name="Aacute" unicode="&#xc1;" horiz-adv-x="833" 
d="M834 0h-116l-86 174h-434l-86 -174h-113l366 706h107zM589 255l-173 350l-176 -350h349zM557 878l-126 -125h-65l64 125h127z" />
    <glyph glyph-name="Edieresis" unicode="&#xcb;" horiz-adv-x="792" 
d="M762 0h-677v706h651v-87h-551v-210h537v-84h-537v-238h577v-87zM589 774h-97v103h97v-103zM326 774h-97v103h97v-103z" />
    <glyph glyph-name="Egrave" unicode="&#xc8;" horiz-adv-x="792" 
d="M762 0h-677v706h651v-87h-551v-210h537v-84h-537v-238h577v-87zM468 755h-66l-120 126h125z" />
    <glyph glyph-name="Iacute" unicode="&#xcd;" horiz-adv-x="271" 
d="M186 0h-102v706h102v-706zM276 878l-126 -125h-65l64 125h127z" />
    <glyph glyph-name="Icircumflex" unicode="&#xce;" horiz-adv-x="271" 
d="M186 0h-102v706h102v-706zM297 753h-82l-81 69l-82 -70h-79l107 125h107z" />
    <glyph glyph-name="Idieresis" unicode="&#xcf;" horiz-adv-x="271" 
d="M186 0h-102v706h102v-706zM315 774h-97v103h97v-103zM52 774h-97v103h97v-103z" />
    <glyph glyph-name="Igrave" unicode="&#xcc;" horiz-adv-x="271" 
d="M186 0h-102v706h102v-706zM186 755h-66l-120 126h125z" />
    <glyph glyph-name="Oacute" unicode="&#xd3;" horiz-adv-x="958" 
d="M906 343c0 -198 -148 -362 -426 -362c-262 0 -432 134 -432 364c0 254 203 378 426 378c208 0 432 -114 432 -380zM805 353c0 128 -83 284 -331 284c-171 0 -326 -88 -326 -288c0 -175 126 -281 334 -281c242 0 323 145 323 285zM620 878l-126 -125h-65l64 125h127z" />
    <glyph glyph-name="Ocircumflex" unicode="&#xd4;" horiz-adv-x="958" 
d="M906 343c0 -198 -148 -362 -426 -362c-262 0 -432 134 -432 364c0 254 203 378 426 378c208 0 432 -114 432 -380zM805 353c0 128 -83 284 -331 284c-171 0 -326 -88 -326 -288c0 -175 126 -281 334 -281c242 0 323 145 323 285zM640 753h-82l-81 69l-82 -70h-79l107 125
h107z" />
    <glyph glyph-name="Ograve" unicode="&#xd2;" horiz-adv-x="958" 
d="M906 343c0 -198 -148 -362 -426 -362c-262 0 -432 134 -432 364c0 254 203 378 426 378c208 0 432 -114 432 -380zM805 353c0 128 -83 284 -331 284c-171 0 -326 -88 -326 -288c0 -175 126 -281 334 -281c242 0 323 145 323 285zM530 755h-66l-120 126h125z" />
    <glyph glyph-name="Uacute" unicode="&#xda;" horiz-adv-x="896" 
d="M84 706h101v-431c0 -114 43 -139 72 -158c35 -22 93 -47 192 -47c20 0 197 2 242 101c15 34 16 65 16 103v432h101v-425c0 -47 -1 -87 -20 -132c-56 -135 -214 -166 -343 -166c-54 0 -253 6 -331 147c-28 52 -30 104 -30 161v415zM588 878l-126 -125h-65l64 125h127z" />
    <glyph glyph-name="Ucircumflex" unicode="&#xdb;" horiz-adv-x="896" 
d="M84 706h101v-431c0 -114 43 -139 72 -158c35 -22 93 -47 192 -47c20 0 197 2 242 101c15 34 16 65 16 103v432h101v-425c0 -47 -1 -87 -20 -132c-56 -135 -214 -166 -343 -166c-54 0 -253 6 -331 147c-28 52 -30 104 -30 161v415zM609 753h-82l-81 69l-82 -70h-79
l107 125h107z" />
    <glyph glyph-name="Ugrave" unicode="&#xd9;" horiz-adv-x="896" 
d="M84 706h101v-431c0 -114 43 -139 72 -158c35 -22 93 -47 192 -47c20 0 197 2 242 101c15 34 16 65 16 103v432h101v-425c0 -47 -1 -87 -20 -132c-56 -135 -214 -166 -343 -166c-54 0 -253 6 -331 147c-28 52 -30 104 -30 161v415zM499 755h-66l-120 126h125z" />
    <glyph glyph-name="dotlessi" unicode="&#x131;" horiz-adv-x="250" 
d="M172 0h-95v488h95v-488z" />
    <glyph glyph-name="circumflex" unicode="&#x2c6;" horiz-adv-x="375" 
d="M348 552h-81l-82 76l-76 -77h-82l105 138h108z" />
    <glyph glyph-name="tilde" unicode="&#x2dc;" horiz-adv-x="375" 
d="M330 678l47 -35c-34 -62 -79 -93 -120 -93c-52 0 -96 52 -147 52c-28 0 -44 -18 -69 -50l-43 36c31 50 74 91 117 91c53 0 98 -52 152 -52c27 0 44 22 63 51z" />
    <glyph glyph-name="macron" unicode="&#xaf;" horiz-adv-x="375" 
d="M368 569h-361v76h361v-76z" />
    <glyph glyph-name="breve" unicode="&#x2d8;" horiz-adv-x="375" 
d="M264 687h58c-9 -43 -31 -122 -135 -122c-42 0 -115 15 -134 122h56c10 -24 28 -59 79 -59c49 0 68 39 76 59z" />
    <glyph glyph-name="dotaccent" unicode="&#x2d9;" horiz-adv-x="375" 
d="M238 569h-101v106h101v-106z" />
    <glyph glyph-name="ring" unicode="&#x2da;" horiz-adv-x="375" 
d="M304 643c0 -66 -63 -95 -114 -95c-88 0 -119 55 -119 97c0 70 72 93 119 93c66 0 114 -38 114 -95zM243 644c0 19 -14 48 -56 48c-32 0 -56 -23 -56 -48c0 -19 16 -47 56 -47c41 0 56 28 56 47z" />
    <glyph glyph-name="cedilla" unicode="&#xb8;" horiz-adv-x="375" 
d="M166 9h57l-25 -63c27 0 99 -10 99 -76c0 -42 -38 -89 -128 -89c-35 0 -87 9 -91 10l18 47c8 -1 33 -8 58 -8c14 0 58 1 58 37c0 25 -31 33 -63 33c-10 0 -18 0 -26 -1z" />
    <glyph glyph-name="hungarumlaut" unicode="&#x2dd;" horiz-adv-x="375" 
d="M199 688l-120 -137h-58l70 137h108zM354 688l-120 -137h-58l70 137h108z" />
    <glyph glyph-name="ogonek" unicode="&#x2db;" horiz-adv-x="375" 
d="M166 4h56c-31 -19 -66 -41 -66 -76c0 -39 51 -40 69 -40c25 0 46 6 55 8v-60c-27 -6 -48 -10 -75 -10c-70 0 -110 34 -110 77c0 26 12 65 71 101z" />
    <glyph glyph-name="caron" unicode="&#x2c7;" horiz-adv-x="375" 
d="M348 692l-106 -138h-108l-107 137h81l81 -76l78 77h81z" />
    <glyph glyph-name="currency" unicode="&#xa4;" horiz-adv-x="705" 
d="M591 631l66 -65l-79 -75c38 -56 51 -96 51 -151c0 -57 -15 -102 -52 -153l79 -77l-67 -63l-79 77c-64 -38 -99 -49 -159 -49s-98 12 -155 49l-81 -76l-66 63l80 76c-37 52 -51 94 -51 153s14 101 52 151l-80 75l67 64l79 -75c51 34 98 49 158 49c59 0 110 -16 157 -49z
M535 338c0 106 -77 184 -181 184c-103 0 -183 -79 -183 -182c0 -105 80 -183 185 -183c101 0 179 79 179 181z" />
    <glyph glyph-name="afii61289" unicode="&#x2113;" horiz-adv-x="578" 
d="M513 151l51 -54c-70 -78 -136 -110 -226 -110c-117 0 -192 59 -199 182l-65 -40l-31 66c37 20 51 28 96 57v223c0 94 10 133 43 170c32 36 84 57 144 57c100 0 160 -54 160 -147c0 -69 -32 -134 -81 -189c-41 -46 -72 -72 -170 -148v-14c0 -89 44 -139 123 -139
c48 0 81 10 155 86zM235 303c62 52 85 74 111 107c36 46 56 96 56 139c0 51 -29 82 -75 82c-19 0 -42 -6 -57 -17c-28 -21 -35 -45 -35 -128v-183z" />
    <glyph glyph-name="estimated" unicode="&#x212e;" horiz-adv-x="938" 
d="M913 316h-758c18 -157 145 -252 338 -252c143 0 242 55 317 158l93 -35c-35 -45 -49 -61 -81 -88c-88 -75 -201 -114 -334 -114c-260 0 -439 148 -439 363c0 210 174 354 426 354c162 0 295 -59 369 -163c40 -56 62 -119 69 -223zM155 396h642c-12 56 -20 78 -46 111
c-57 72 -162 116 -281 116c-172 0 -287 -83 -315 -227z" />
    <glyph glyph-name="acute.cap" horiz-adv-x="375" 
d="M283 878l-126 -125h-65l64 125h127z" />
    <glyph glyph-name="breve.cap" horiz-adv-x="375" 
d="M270 875h58c-8 -33 -27 -113 -137 -113c-46 0 -124 9 -144 113h56c10 -22 34 -51 85 -51c49 0 74 33 82 51z" />
    <glyph glyph-name="caron.cap" horiz-adv-x="375" 
d="M349 876l-109 -124h-106l-109 126h82l80 -71l82 69h80z" />
    <glyph glyph-name="cedilla.cap" horiz-adv-x="375" 
d="M157 3h58l-18 -52c29 0 67 -1 95 -34c17 -20 17 -44 17 -49c0 -63 -58 -103 -153 -103c-32 0 -58 3 -90 10l20 51c34 -8 47 -10 65 -10c40 0 67 16 67 42c0 30 -27 42 -67 42c-10 0 -21 -1 -31 -2z" />
    <glyph glyph-name="circumflex.cap" horiz-adv-x="375" 
d="M349 753h-82l-81 69l-82 -70h-79l107 125h107z" />
    <glyph glyph-name="commaaccent" horiz-adv-x="375" 
d="M143 -36h88v-55c0 -60 -23 -86 -84 -90v36c25 2 36 10 36 37h-40v72z" />
    <glyph glyph-name="dieresis.cap" horiz-adv-x="375" 
d="M367 774h-97v103h97v-103zM104 774h-97v103h97v-103z" />
    <glyph glyph-name="dotaccent.cap" horiz-adv-x="375" 
d="M238 774h-101v106h101v-106z" />
    <glyph glyph-name="grave.cap" horiz-adv-x="375" 
d="M280 755h-66l-120 126h125z" />
    <glyph glyph-name="hungarumlaut.cap" horiz-adv-x="375" 
d="M190 878l-120 -125h-56l62 125h114zM361 878l-120 -125h-56l62 125h114z" />
    <glyph glyph-name="macron.cap" horiz-adv-x="375" 
d="M368 774h-361v76h361v-76z" />
    <glyph glyph-name="ring.cap" horiz-adv-x="375" 
d="M71 836c0 70 67 93 118 93c60 0 115 -34 115 -93c0 -25 -15 -98 -115 -98c-57 0 -118 33 -118 98zM243 835c0 23 -18 47 -54 47c-45 0 -58 -30 -58 -48c0 -25 22 -47 58 -47c27 0 54 17 54 48z" />
    <glyph glyph-name="tilde.cap" horiz-adv-x="375" 
d="M333 875l42 -38c-39 -56 -77 -80 -116 -80c-52 0 -97 48 -148 48c-28 0 -44 -18 -70 -48l-41 39c34 46 73 80 116 80c51 0 101 -48 153 -48c27 0 44 20 64 47z" />
    <glyph glyph-name="caron.alt" horiz-adv-x="375" 
d="M140 706h94v-99c0 -57 -15 -92 -94 -99v47c30 3 39 12 39 42v19h-39v90z" />
    <glyph glyph-name="Eth" unicode="&#xd0;" horiz-adv-x="875" 
d="M85 0v343h-85v68h85v295h351c46 0 92 0 138 -12c177 -45 249 -193 249 -337c0 -65 -15 -136 -57 -201c-98 -155 -269 -156 -394 -156h-287zM186 85h206c51 0 102 1 153 17c129 41 176 151 176 257c0 98 -43 218 -174 254c-36 10 -75 10 -111 10h-250v-212h324v-68h-324
v-258z" />
    <glyph glyph-name="eth" unicode="&#xf0;" 
d="M231 538l-23 48l165 42c-36 24 -64 39 -101 63l103 24c34 -19 60 -36 96 -63l146 37l27 -48l-122 -30c107 -100 161 -220 161 -338c0 -135 -76 -288 -318 -288c-86 0 -188 18 -256 91c-33 36 -64 75 -64 160c0 64 20 104 38 131c44 70 139 133 279 133
c89 0 152 -29 187 -59c-21 46 -64 94 -73 104c-12 13 -23 22 -48 42zM587 243c0 43 -15 73 -26 90c-48 73 -136 89 -197 89c-133 0 -223 -74 -223 -181c0 -103 89 -177 228 -177c95 0 218 53 218 179z" />
    <glyph glyph-name="Lslash" unicode="&#x141;" horiz-adv-x="646" 
d="M654 0h-569v233l-85 -46v70l85 46v403h100v-349l314 169v-69l-314 -170v-201h469v-86z" />
    <glyph glyph-name="lslash" unicode="&#x142;" horiz-adv-x="250" 
d="M250 441l-79 -55v-386h-94v319l-77 -54v70l77 55v316h94v-250l79 56v-71z" />
    <glyph glyph-name="Scaron" unicode="&#x160;" horiz-adv-x="812" 
d="M19 143l93 38c27 -29 48 -52 112 -78c81 -33 169 -34 203 -34s126 0 189 48c42 32 48 76 48 95c0 90 -100 105 -182 112l-108 10c-138 13 -201 18 -253 66c-48 44 -50 94 -50 118c0 99 68 144 98 160c42 23 119 46 233 46c213 0 308 -78 353 -142l-92 -37
c-63 59 -134 96 -260 96c-105 0 -232 -23 -232 -118c0 -76 72 -88 143 -95l219 -21c144 -14 230 -78 230 -194c0 -107 -71 -230 -346 -230c-160 0 -327 43 -398 160zM568 876l-109 -124h-106l-109 126h82l80 -71l82 69h80z" />
    <glyph glyph-name="scaron" unicode="&#x161;" horiz-adv-x="667" 
d="M18 84l82 54c5 -4 28 -22 50 -34c77 -40 173 -42 196 -42c96 0 174 24 174 79c0 13 -5 32 -31 45c-43 23 -135 20 -254 33c-42 5 -89 13 -125 39c-30 22 -46 56 -46 94c0 54 31 96 78 120c68 35 183 35 193 35c76 0 156 -13 224 -49c33 -18 48 -30 60 -42l-83 -46
c-80 55 -178 57 -208 57c-69 0 -112 -10 -138 -29c-18 -14 -21 -27 -21 -38c0 -9 4 -27 24 -38c34 -20 126 -23 229 -32c75 -6 111 -14 142 -34c38 -25 57 -65 57 -109c0 -11 -1 -40 -16 -67c-54 -96 -212 -98 -253 -98c-50 0 -222 3 -334 102zM491 692l-106 -138h-108
l-107 137h81l81 -76l78 77h81z" />
    <glyph glyph-name="Yacute" unicode="&#xdd;" horiz-adv-x="812" 
d="M811 706l-358 -433v-273h-99v275l-352 431h129l273 -346l279 346h128zM547 878l-126 -125h-65l64 125h127z" />
    <glyph glyph-name="yacute" unicode="&#xfd;" horiz-adv-x="604" 
d="M497 489h106l-276 -536c-33 -64 -69 -123 -183 -123c-45 0 -103 10 -114 12v86c50 -11 76 -15 100 -15c59 0 85 23 118 84l-248 492h108l191 -394zM452 688l-129 -137h-66l70 137h125z" />
    <glyph glyph-name="Thorn" unicode="&#xde;" horiz-adv-x="812" 
d="M83 0v706h101v-117h330c73 0 176 -2 243 -89c18 -23 41 -69 41 -127c0 -19 -1 -104 -74 -160c-62 -48 -137 -48 -200 -48h-339v-165h-102zM184 250h326c84 0 128 10 160 58c9 14 19 37 19 70c0 106 -88 126 -169 126h-336v-254z" />
    <glyph glyph-name="thorn" unicode="&#xfe;" 
d="M77 -195v901h95v-270c69 61 183 64 212 64c140 0 297 -78 297 -250c0 -124 -82 -259 -280 -259c-69 0 -174 17 -229 77v-263h-95zM391 425h-17c-122 0 -207 -67 -207 -183c0 -170 192 -175 212 -175c107 0 199 63 199 183c0 137 -132 175 -187 175z" />
    <glyph glyph-name="Zcaron" unicode="&#x17d;" horiz-adv-x="771" 
d="M735 0h-705v84l553 536h-511v86h653v-83l-554 -535h564v-88zM557 876l-109 -124h-106l-109 126h82l80 -71l82 69h80z" />
    <glyph glyph-name="zcaron" unicode="&#x17e;" horiz-adv-x="604" 
d="M580 0h-556v79l403 330h-372v79h506v-74l-403 -330h422v-84zM460 692l-106 -138h-108l-107 137h81l81 -76l78 77h81z" />
    <glyph glyph-name="onehalf" unicode="&#xbd;" horiz-adv-x="1042" 
d="M994 0h-364v69c109 48 223 118 251 149c12 14 31 40 31 75c0 34 -27 95 -107 95c-29 0 -113 -12 -113 -109v-14l-69 10c0 6 0 42 11 70c22 53 78 100 171 100c133 0 178 -92 178 -153c0 -44 -19 -76 -32 -92c-47 -59 -163 -118 -220 -140h263v-60zM716 670l-432 -682
l-49 30l431 683zM284 246h-70v338c-29 -13 -54 -17 -112 -17h-9v49c77 2 112 26 138 73h53v-443z" />
    <glyph glyph-name="onequarter" unicode="&#xbc;" horiz-adv-x="1042" 
d="M1013 104h-86v-104h-67v104h-255v57l267 281h55v-279h86v-59zM760 670l-432 -682l-49 30l432 683zM284 246h-70v338c-29 -13 -54 -17 -112 -17h-9v49c77 2 112 26 138 73h53v-443zM860 162v186l-176 -186h176z" />
    <glyph glyph-name="onesuperior" unicode="&#xb9;" horiz-adv-x="458" 
d="M284 246h-70v338c-29 -13 -54 -17 -112 -17h-9v49c77 2 112 26 138 73h53v-443z" />
    <glyph glyph-name="threequarters" unicode="&#xbe;" horiz-adv-x="1042" 
d="M804 670l-432 -682l-49 30l432 683zM1013 104h-86v-104h-67v104h-255v57l267 281h55v-279h86v-59zM860 162v186l-176 -186h176zM29 377l67 16c3 -18 7 -31 14 -43c23 -39 78 -50 124 -50c36 0 73 5 95 33c12 15 15 31 15 43c0 70 -65 74 -136 74h-34v54h50
c46 0 105 4 105 61c0 39 -39 71 -104 71c-33 0 -108 -10 -111 -91l-67 14c0 3 7 36 18 56c26 48 79 78 163 78c100 0 174 -49 174 -126c0 -32 -20 -74 -63 -85c55 -15 78 -61 78 -108c0 -72 -62 -134 -187 -134c-49 0 -135 10 -177 73c-14 21 -20 41 -24 64z" />
    <glyph glyph-name="threesuperior" unicode="&#xb3;" horiz-adv-x="458" 
d="M29 377l67 16c3 -18 7 -31 14 -43c23 -39 78 -50 124 -50c36 0 73 5 95 33c12 15 15 31 15 43c0 70 -65 74 -136 74h-34v54h50c46 0 105 4 105 61c0 39 -39 71 -104 71c-33 0 -108 -10 -111 -91l-67 14c0 3 7 36 18 56c26 48 79 78 163 78c100 0 174 -49 174 -126
c0 -32 -20 -74 -63 -85c55 -15 78 -61 78 -108c0 -72 -62 -134 -187 -134c-49 0 -135 10 -177 73c-14 21 -20 41 -24 64z" />
    <glyph glyph-name="twosuperior" unicode="&#xb2;" horiz-adv-x="458" 
d="M411 246h-364v69c109 48 223 118 251 149c12 14 31 40 31 75c0 34 -27 95 -107 95c-29 0 -113 -12 -113 -109v-14l-69 10c0 6 0 42 11 70c22 53 78 100 171 100c133 0 178 -92 178 -153c0 -44 -19 -76 -32 -92c-47 -59 -163 -118 -220 -140h263v-60z" />
    <glyph glyph-name="brokenbar" unicode="&#xa6;" horiz-adv-x="229" 
d="M164 387h-99v378h99v-378zM164 -153h-99v378h99v-378z" />
    <glyph glyph-name="minus" unicode="&#x2212;" horiz-adv-x="772" 
d="M698 253h-624v86h624v-86z" />
    <glyph glyph-name="multiply" unicode="&#xd7;" horiz-adv-x="772" 
d="M629 137l-72 -70l-175 165l-171 -166l-64 60l171 166l-177 166l72 70l177 -166l171 166l64 -60l-171 -166z" />
    <glyph glyph-name="uni00AD" unicode="&#xad;" horiz-adv-x="385" 
d="M350 259h-315v82h315v-82z" />
    <glyph glyph-name="uni03BC" unicode="&#x3bc;" horiz-adv-x="742" 
d="M551 488h95v-360c0 -47 15 -65 56 -65c12 0 22 0 34 3v-66c-30 -4 -60 -6 -75 -6c-66 0 -95 21 -102 74c-63 -60 -125 -85 -209 -85c-69 0 -134 19 -181 54v-232h-94v683h94v-246c0 -49 3 -71 11 -92c21 -53 82 -83 166 -83c65 0 125 20 165 54c33 29 40 60 40 103v264z
" />
    <glyph glyph-name="uni03A9" unicode="&#x3a9;" horiz-adv-x="835" 
d="M793 0h-318v78c136 36 206 156 206 303c0 156 -101 257 -258 257c-166 0 -273 -104 -273 -267c0 -133 64 -260 209 -293v-78h-317v78h185c-110 54 -177 167 -177 298c0 205 154 348 377 348c214 0 355 -133 355 -336c0 -142 -65 -253 -187 -310h198v-78z" />
    <glyph glyph-name="uni0394" unicode="&#x394;" horiz-adv-x="757" 
d="M760 0h-765l332 706h101zM606 86l-230 513l-229 -513h459z" />
    <glyph glyph-name="uni2215" unicode="&#x2215;" horiz-adv-x="125" 
d="M300 670l-432 -682l-49 30l432 683z" />
    <glyph glyph-name="uni2219" unicode="&#x2219;" horiz-adv-x="250" 
d="M179 239h-110v109h110v-109z" />
    <glyph glyph-name="uni02C9" unicode="&#x2c9;" horiz-adv-x="375" 
d="M368 569h-361v76h361v-76z" />
    <glyph glyph-name="uni037E" unicode="&#x37e;" horiz-adv-x="292" 
d="M220 388h-109v109h109v-109zM111 108h109v-127c0 -64 -17 -110 -109 -116v55c34 4 45 15 45 49v31h-45v108z" />
    <glyph glyph-name="zero.tab" horiz-adv-x="708" 
d="M676 340c0 -247 -153 -356 -314 -356c-235 0 -311 201 -311 364c0 191 111 354 311 354c269 0 314 -248 314 -362zM152 336c0 -121 56 -271 212 -271c129 0 212 110 212 276c0 189 -99 280 -209 280c-126 0 -215 -106 -215 -285z" />
    <glyph glyph-name="one.tab" horiz-adv-x="708" 
d="M429 0h-99v537c-53 -24 -83 -29 -191 -33v68h10c87 0 167 36 205 115h75v-687z" />
    <glyph glyph-name="two.tab" horiz-adv-x="708" 
d="M640 0h-564v94c90 45 180 90 266 143c79 49 181 110 181 216c0 104 -82 162 -180 162c-21 0 -101 -3 -146 -63c-31 -41 -33 -86 -35 -134l-97 15c2 22 3 44 8 66c6 30 25 89 87 138c31 24 91 61 187 61c29 0 105 -2 174 -50c62 -43 102 -117 102 -193
c0 -31 -5 -94 -56 -154c-79 -93 -266 -183 -355 -219h428v-82z" />
    <glyph glyph-name="three.tab" horiz-adv-x="708" 
d="M273 323v74h75c65 0 170 8 170 103c0 82 -77 124 -166 124c-148 0 -185 -92 -186 -134l-92 17c19 86 70 194 278 194c109 0 268 -40 268 -193c0 -28 -6 -105 -104 -138c52 -22 132 -62 132 -173c0 -171 -177 -211 -289 -211c-167 0 -280 52 -312 200l94 22
c19 -120 127 -141 218 -141c136 0 186 65 186 132c0 89 -66 124 -179 124h-93z" />
    <glyph glyph-name="four.tab" horiz-adv-x="708" 
d="M655 166h-118v-166h-94v166h-400v79l415 443h78v-443h119v-79zM443 245v316c-17 -21 -31 -37 -292 -316h292z" />
    <glyph glyph-name="five.tab" horiz-adv-x="708" 
d="M96 688h528l-5 -85h-448l-11 -183c50 43 119 72 214 72c179 0 283 -112 283 -241c0 -138 -115 -265 -309 -265c-178 0 -272 97 -301 193l94 20c35 -79 100 -133 214 -133c144 0 202 95 202 178c0 133 -121 168 -195 168c-85 0 -172 -39 -209 -114l-77 15z" />
    <glyph glyph-name="six.tab" horiz-adv-x="708" 
d="M673 562l-93 -35c-37 58 -107 93 -184 93c-28 0 -112 -6 -173 -73c-54 -59 -69 -144 -69 -217c25 72 118 130 240 130c151 0 285 -74 285 -231c0 -136 -105 -245 -291 -245c-244 0 -323 180 -323 354c0 265 177 363 339 363c124 0 221 -67 269 -139zM584 223
c0 111 -108 157 -202 157c-129 0 -198 -72 -198 -157c0 -119 121 -157 209 -157c96 0 191 44 191 157z" />
    <glyph glyph-name="seven.tab" horiz-adv-x="708" 
d="M80 688h548v-65c-194 -177 -249 -415 -260 -464c-12 -53 -19 -106 -25 -159h-109c9 67 23 182 94 337c5 11 40 84 85 148c39 56 81 100 97 118h-430v85z" />
    <glyph glyph-name="eight.tab" horiz-adv-x="708" 
d="M502 360c26 -6 47 -11 70 -24c52 -30 82 -85 82 -145c0 -154 -152 -207 -307 -207c-140 0 -296 53 -296 207c0 84 50 126 76 142c28 17 59 25 68 28c-80 23 -121 77 -121 150c0 20 3 62 35 103c58 75 163 87 248 87c190 0 271 -86 271 -187c0 -33 -10 -69 -30 -95
c-25 -33 -60 -46 -96 -59zM356 624h-12c-98 0 -170 -33 -170 -115c0 -70 54 -115 180 -115c121 0 174 49 174 113c0 46 -25 117 -172 117zM364 318h-24c-114 0 -190 -38 -190 -123c0 -50 31 -128 197 -128h29c91 0 179 38 179 123c0 57 -37 128 -191 128z" />
    <glyph glyph-name="nine.tab" horiz-adv-x="708" 
d="M37 150l89 36c2 -3 13 -25 23 -39c43 -59 99 -83 171 -83c117 0 203 67 234 179c10 37 10 71 11 84c-18 -19 -38 -40 -88 -64c-69 -34 -127 -36 -157 -36c-144 0 -284 76 -284 233c0 22 3 77 39 128c34 49 118 113 264 113c131 0 206 -53 241 -94c38 -43 75 -118 75 -249
c0 -274 -164 -374 -334 -374c-125 0 -200 57 -234 92c-29 31 -43 59 -50 74zM546 466c0 91 -77 156 -201 156c-128 0 -210 -64 -210 -160c0 -75 61 -157 199 -157c106 0 212 57 212 161z" />
    <glyph glyph-name="Amacron" unicode="&#x100;" horiz-adv-x="833" 
d="M834 0h-116l-86 174h-434l-86 -174h-113l366 706h107zM589 255l-173 350l-176 -350h349zM597 774h-361v76h361v-76z" />
    <glyph glyph-name="amacron" unicode="&#x101;" horiz-adv-x="688" 
d="M681 0c-28 -2 -56 -5 -84 -5c-83 0 -90 47 -94 83c-18 -36 -89 -96 -235 -96c-186 0 -229 100 -229 168c0 84 60 120 86 131c47 21 123 23 238 23h139v12c0 60 -1 118 -162 118c-73 0 -152 -13 -173 -64l-96 9c1 4 10 30 22 48c19 28 61 76 242 76c14 0 83 -1 139 -15
c13 -3 64 -14 93 -53c24 -32 24 -65 24 -102v-195c0 -56 9 -75 55 -75c9 0 35 3 35 3v-66zM503 231h-179c-96 0 -190 0 -190 -80c0 -48 44 -96 141 -96c57 0 165 13 210 96c18 34 17 66 18 80zM522 569h-361v76h361v-76z" />
    <glyph glyph-name="Abreve" unicode="&#x102;" horiz-adv-x="833" 
d="M834 0h-116l-86 174h-434l-86 -174h-113l366 706h107zM589 255l-173 350l-176 -350h349zM502 875h58c-8 -33 -27 -113 -137 -113c-46 0 -124 9 -144 113h56c10 -22 34 -51 85 -51c49 0 74 33 82 51z" />
    <glyph glyph-name="abreve" unicode="&#x103;" horiz-adv-x="688" 
d="M681 0c-28 -2 -56 -5 -84 -5c-83 0 -90 47 -94 83c-18 -36 -89 -96 -235 -96c-186 0 -229 100 -229 168c0 84 60 120 86 131c47 21 123 23 238 23h139v12c0 60 -1 118 -162 118c-73 0 -152 -13 -173 -64l-96 9c1 4 10 30 22 48c19 28 61 76 242 76c14 0 83 -1 139 -15
c13 -3 64 -14 93 -53c24 -32 24 -65 24 -102v-195c0 -56 9 -75 55 -75c9 0 35 3 35 3v-66zM503 231h-179c-96 0 -190 0 -190 -80c0 -48 44 -96 141 -96c57 0 165 13 210 96c18 34 17 66 18 80zM418 687h58c-9 -43 -31 -122 -135 -122c-42 0 -115 15 -134 122h56
c10 -24 28 -59 79 -59c49 0 68 39 76 59z" />
    <glyph glyph-name="Aogonek" unicode="&#x104;" horiz-adv-x="833" 
d="M834 0h-46c-49 -6 -84 -39 -84 -72c0 -39 51 -40 69 -40c25 0 46 6 55 8v-60c-27 -6 -48 -10 -75 -10c-70 0 -110 34 -110 77c0 26 11 65 72 103l-83 168h-434l-86 -174h-113l366 706h107zM589 255l-173 350l-176 -350h349z" />
    <glyph glyph-name="aogonek" unicode="&#x105;" horiz-adv-x="688" 
d="M681 66v-66l-63 -3c-77 -4 -119 -30 -119 -69s51 -40 69 -40c25 0 46 6 55 8v-60c-27 -6 -48 -10 -75 -10c-70 0 -110 34 -110 77c0 25 14 76 91 111c-20 17 -24 43 -26 64c-18 -36 -89 -96 -235 -96c-186 0 -229 100 -229 168c0 84 60 120 86 131c47 21 123 23 238 23
h139v12c0 60 -1 118 -162 118c-73 0 -152 -13 -173 -64l-96 9c1 4 10 30 22 48c19 28 61 76 242 76c14 0 83 -1 139 -15c13 -3 64 -14 93 -53c24 -32 24 -65 24 -102v-195c0 -56 9 -75 55 -75c9 0 35 3 35 3zM503 231h-179c-96 0 -190 0 -190 -80c0 -48 44 -96 141 -96
c57 0 165 13 210 96c18 34 17 66 18 80z" />
    <glyph glyph-name="Cacute" unicode="&#x106;" horiz-adv-x="917" 
d="M781 215l106 -22c-83 -172 -262 -211 -410 -211c-240 0 -428 124 -428 376c0 220 159 369 426 369c168 0 316 -57 397 -205l-107 -23c-55 103 -172 140 -286 140c-156 0 -324 -69 -324 -280c0 -198 147 -289 336 -289c97 0 226 24 290 145zM593 878l-126 -125h-65l64 125
h127z" />
    <glyph glyph-name="cacute" unicode="&#x107;" horiz-adv-x="688" 
d="M571 154l91 -24c-46 -89 -146 -147 -297 -147c-191 0 -322 87 -322 264c0 165 142 255 325 255c152 0 247 -64 289 -148l-91 -26c-34 61 -103 99 -198 99c-115 0 -224 -62 -224 -188c0 -131 126 -180 225 -180c98 0 171 40 202 95zM482 688l-129 -137h-66l70 137h125z
" />
    <glyph glyph-name="Ccircumflex" unicode="&#x108;" horiz-adv-x="917" 
d="M781 215l106 -22c-83 -172 -262 -211 -410 -211c-240 0 -428 124 -428 376c0 220 159 369 426 369c168 0 316 -57 397 -205l-107 -23c-55 103 -172 140 -286 140c-156 0 -324 -69 -324 -280c0 -198 147 -289 336 -289c97 0 226 24 290 145zM660 753h-82l-81 69l-82 -70
h-79l107 125h107z" />
    <glyph glyph-name="ccircumflex" unicode="&#x109;" horiz-adv-x="688" 
d="M571 154l91 -24c-46 -89 -146 -147 -297 -147c-191 0 -322 87 -322 264c0 165 142 255 325 255c152 0 247 -64 289 -148l-91 -26c-34 61 -103 99 -198 99c-115 0 -224 -62 -224 -188c0 -131 126 -180 225 -180c98 0 171 40 202 95zM529 552h-81l-82 76l-76 -77h-82
l105 138h108z" />
    <glyph glyph-name="Cdotaccent" unicode="&#x10a;" horiz-adv-x="917" 
d="M781 215l106 -22c-83 -172 -262 -211 -410 -211c-240 0 -428 124 -428 376c0 220 159 369 426 369c168 0 316 -57 397 -205l-107 -23c-55 103 -172 140 -286 140c-156 0 -324 -69 -324 -280c0 -198 147 -289 336 -289c97 0 226 24 290 145zM544 774h-101v106h101v-106z
" />
    <glyph glyph-name="cdotaccent" unicode="&#x10b;" horiz-adv-x="688" 
d="M571 154l91 -24c-46 -89 -146 -147 -297 -147c-191 0 -322 87 -322 264c0 165 142 255 325 255c152 0 247 -64 289 -148l-91 -26c-34 61 -103 99 -198 99c-115 0 -224 -62 -224 -188c0 -131 126 -180 225 -180c98 0 171 40 202 95zM423 569h-101v106h101v-106z" />
    <glyph glyph-name="Ccaron" unicode="&#x10c;" horiz-adv-x="917" 
d="M781 215l106 -22c-83 -172 -262 -211 -410 -211c-240 0 -428 124 -428 376c0 220 159 369 426 369c168 0 316 -57 397 -205l-107 -23c-55 103 -172 140 -286 140c-156 0 -324 -69 -324 -280c0 -198 147 -289 336 -289c97 0 226 24 290 145zM633 876l-109 -124h-106
l-109 126h82l80 -71l82 69h80z" />
    <glyph glyph-name="ccaron" unicode="&#x10d;" horiz-adv-x="688" 
d="M571 154l91 -24c-46 -89 -146 -147 -297 -147c-191 0 -322 87 -322 264c0 165 142 255 325 255c152 0 247 -64 289 -148l-91 -26c-34 61 -103 99 -198 99c-115 0 -224 -62 -224 -188c0 -131 126 -180 225 -180c98 0 171 40 202 95zM524 692l-106 -138h-108l-107 137h81
l81 -76l78 77h81z" />
    <glyph glyph-name="Dcaron" unicode="&#x10e;" horiz-adv-x="875" 
d="M85 0v706h351c74 0 154 0 242 -57c99 -65 145 -174 145 -291c0 -102 -39 -207 -119 -274c-96 -81 -219 -84 -337 -84h-282zM186 85h216c86 0 165 7 234 68c80 71 85 175 85 209c-1 116 -59 220 -176 251c-34 9 -74 10 -109 10h-250v-538zM546 876l-109 -124h-106
l-109 126h82l80 -71l82 69h80z" />
    <glyph glyph-name="dcaron" unicode="&#x10f;" 
d="M649 0h-95v65c-23 -21 -86 -74 -219 -74c-30 0 -116 2 -189 56c-32 23 -101 88 -101 201c0 34 7 114 79 178c32 28 104 74 214 74c35 0 134 -5 216 -69v275h95v-706zM559 249c0 23 -1 78 -50 122c-58 52 -141 53 -165 53c-114 0 -200 -68 -200 -184
c0 -96 70 -171 203 -171c91 0 212 34 212 180zM682 706h94v-99c0 -57 -15 -92 -94 -99v47c30 3 39 12 39 42v19h-39v90z" />
    <glyph glyph-name="Dcroat" unicode="&#x110;" horiz-adv-x="875" 
d="M85 0v343h-85v68h85v295h351c46 0 92 0 138 -12c177 -45 249 -193 249 -337c0 -65 -15 -136 -57 -201c-98 -155 -269 -156 -394 -156h-287zM186 85h206c51 0 102 1 153 17c129 41 176 151 176 257c0 98 -43 218 -174 254c-36 10 -75 10 -111 10h-250v-212h324v-68h-324
v-258z" />
    <glyph glyph-name="dcroat" unicode="&#x111;" 
d="M649 0h-95v65c-23 -21 -86 -74 -219 -74c-30 0 -116 2 -189 56c-32 23 -101 88 -101 201c0 34 7 114 79 178c32 28 104 74 214 74c35 0 134 -5 216 -69v115h-232v66h232v94h95v-94h80v-66h-80v-546zM559 249c0 23 -1 78 -50 122c-58 52 -141 53 -165 53
c-114 0 -200 -68 -200 -184c0 -96 70 -171 203 -171c91 0 212 34 212 180z" />
    <glyph glyph-name="Emacron" unicode="&#x112;" horiz-adv-x="792" 
d="M762 0h-677v706h651v-87h-551v-210h537v-84h-537v-238h577v-87zM603 774h-361v76h361v-76z" />
    <glyph glyph-name="emacron" unicode="&#x113;" horiz-adv-x="688" 
d="M643 233h-501c4 -83 74 -172 214 -172c75 0 154 33 186 106l91 -25c-58 -126 -191 -157 -290 -157c-158 0 -299 91 -299 260c0 196 173 259 297 259c220 0 302 -167 302 -257v-14zM145 304h391c-25 71 -80 129 -189 129c-88 0 -170 -42 -202 -129zM523 569h-361v76h361
v-76z" />
    <glyph glyph-name="Ebreve" unicode="&#x114;" horiz-adv-x="792" 
d="M762 0h-677v706h651v-87h-551v-210h537v-84h-537v-238h577v-87zM517 875h58c-8 -33 -27 -113 -137 -113c-46 0 -124 9 -144 113h56c10 -22 34 -51 85 -51c49 0 74 33 82 51z" />
    <glyph glyph-name="ebreve" unicode="&#x115;" horiz-adv-x="688" 
d="M643 233h-501c4 -83 74 -172 214 -172c75 0 154 33 186 106l91 -25c-58 -126 -191 -157 -290 -157c-158 0 -299 91 -299 260c0 196 173 259 297 259c220 0 302 -167 302 -257v-14zM145 304h391c-25 71 -80 129 -189 129c-88 0 -170 -42 -202 -129zM426 687h58
c-9 -43 -31 -122 -135 -122c-42 0 -115 15 -134 122h56c10 -24 28 -59 79 -59c49 0 68 39 76 59z" />
    <glyph glyph-name="Edotaccent" unicode="&#x116;" horiz-adv-x="792" 
d="M762 0h-677v706h651v-87h-551v-210h537v-84h-537v-238h577v-87zM474 774h-101v106h101v-106z" />
    <glyph glyph-name="edotaccent" unicode="&#x117;" horiz-adv-x="688" 
d="M643 233h-501c4 -83 74 -172 214 -172c75 0 154 33 186 106l91 -25c-58 -126 -191 -157 -290 -157c-158 0 -299 91 -299 260c0 196 173 259 297 259c220 0 302 -167 302 -257v-14zM145 304h391c-25 71 -80 129 -189 129c-88 0 -170 -42 -202 -129zM393 569h-101v106h101
v-106z" />
    <glyph glyph-name="Eogonek" unicode="&#x118;" horiz-adv-x="792" 
d="M762 0h-71c-49 -6 -84 -39 -84 -72c0 -39 51 -40 69 -40c25 0 46 6 55 8v-60c-27 -6 -48 -10 -75 -10c-70 0 -110 34 -110 77c0 25 13 67 66 97h-527v706h651v-87h-551v-210h537v-84h-537v-238h577v-87z" />
    <glyph glyph-name="eogonek" unicode="&#x119;" horiz-adv-x="688" 
d="M643 233h-501c4 -83 74 -172 214 -172c75 0 154 33 186 106l91 -25c-43 -86 -97 -116 -174 -142c-62 -21 -78 -43 -78 -72c0 -39 51 -40 69 -40c25 0 46 6 55 8v-60c-27 -6 -48 -10 -75 -10c-70 0 -110 34 -110 77c0 22 8 52 44 83c-7 -1 -14 -1 -21 -1
c-158 0 -299 91 -299 260c0 196 173 259 297 259c220 0 302 -167 302 -257v-14zM145 304h391c-25 71 -80 129 -189 129c-88 0 -170 -42 -202 -129z" />
    <glyph glyph-name="Ecaron" unicode="&#x11a;" horiz-adv-x="792" 
d="M762 0h-677v706h651v-87h-551v-210h537v-84h-537v-238h577v-87zM580 876l-109 -124h-106l-109 126h82l80 -71l82 69h80z" />
    <glyph glyph-name="ecaron" unicode="&#x11b;" horiz-adv-x="688" 
d="M643 233h-501c4 -83 74 -172 214 -172c75 0 154 33 186 106l91 -25c-58 -126 -191 -157 -290 -157c-158 0 -299 91 -299 260c0 196 173 259 297 259c220 0 302 -167 302 -257v-14zM145 304h391c-25 71 -80 129 -189 129c-88 0 -170 -42 -202 -129zM501 692l-106 -138
h-108l-107 137h81l81 -76l78 77h81z" />
    <glyph glyph-name="Gcircumflex" unicode="&#x11c;" horiz-adv-x="917" 
d="M848 0h-87v97c-49 -54 -150 -113 -308 -113c-251 0 -404 173 -404 371c0 205 162 368 422 368c141 0 306 -54 373 -186l-98 -30c-42 62 -126 130 -268 130c-173 0 -322 -98 -322 -278c0 -192 152 -291 319 -291c98 0 208 42 261 129c19 32 23 56 28 91h-311v84h395v-372z
M634 753h-82l-81 69l-82 -70h-79l107 125h107z" />
    <glyph glyph-name="gcircumflex" unicode="&#x11d;" 
d="M558 488h91v-458c0 -67 0 -137 -76 -185c-44 -29 -112 -54 -231 -54c-178 0 -273 58 -276 178l100 4v-5c0 -50 41 -97 187 -97c61 0 157 11 191 73c14 25 14 50 14 78v56c-87 -76 -190 -83 -231 -83c-149 0 -283 87 -283 248c0 205 182 254 294 254c92 0 168 -25 220 -67
v58zM556 250c0 115 -105 170 -206 170c-108 0 -207 -57 -207 -176c0 -133 129 -169 203 -169c108 0 210 62 210 175zM515 552h-81l-82 76l-76 -77h-82l105 138h108z" />
    <glyph glyph-name="Gbreve" unicode="&#x11e;" horiz-adv-x="917" 
d="M848 0h-87v97c-49 -54 -150 -113 -308 -113c-251 0 -404 173 -404 371c0 205 162 368 422 368c141 0 306 -54 373 -186l-98 -30c-42 62 -126 130 -268 130c-173 0 -322 -98 -322 -278c0 -192 152 -291 319 -291c98 0 208 42 261 129c19 32 23 56 28 91h-311v84h395v-372z
M553 875h58c-8 -33 -27 -113 -137 -113c-46 0 -124 9 -144 113h56c10 -22 34 -51 85 -51c49 0 74 33 82 51z" />
    <glyph glyph-name="gbreve" unicode="&#x11f;" 
d="M558 488h91v-458c0 -67 0 -137 -76 -185c-44 -29 -112 -54 -231 -54c-178 0 -273 58 -276 178l100 4v-5c0 -50 41 -97 187 -97c61 0 157 11 191 73c14 25 14 50 14 78v56c-87 -76 -190 -83 -231 -83c-149 0 -283 87 -283 248c0 205 182 254 294 254c92 0 168 -25 220 -67
v58zM556 250c0 115 -105 170 -206 170c-108 0 -207 -57 -207 -176c0 -133 129 -169 203 -169c108 0 210 62 210 175zM431 687h58c-9 -43 -31 -122 -135 -122c-42 0 -115 15 -134 122h56c10 -24 28 -59 79 -59c49 0 68 39 76 59z" />
    <glyph glyph-name="Gdotaccent" unicode="&#x120;" horiz-adv-x="917" 
d="M848 0h-87v97c-49 -54 -150 -113 -308 -113c-251 0 -404 173 -404 371c0 205 162 368 422 368c141 0 306 -54 373 -186l-98 -30c-42 62 -126 130 -268 130c-173 0 -322 -98 -322 -278c0 -192 152 -291 319 -291c98 0 208 42 261 129c19 32 23 56 28 91h-311v84h395v-372z
M519 774h-101v106h101v-106z" />
    <glyph glyph-name="gdotaccent" unicode="&#x121;" 
d="M558 488h91v-458c0 -67 0 -137 -76 -185c-44 -29 -112 -54 -231 -54c-178 0 -273 58 -276 178l100 4v-5c0 -50 41 -97 187 -97c61 0 157 11 191 73c14 25 14 50 14 78v56c-87 -76 -190 -83 -231 -83c-149 0 -283 87 -283 248c0 205 182 254 294 254c92 0 168 -25 220 -67
v58zM556 250c0 115 -105 170 -206 170c-108 0 -207 -57 -207 -176c0 -133 129 -169 203 -169c108 0 210 62 210 175zM403 569h-101v106h101v-106z" />
    <glyph glyph-name="Gcommaaccent" unicode="&#x122;" horiz-adv-x="917" 
d="M848 0h-87v97c-49 -54 -150 -113 -308 -113c-251 0 -404 173 -404 371c0 205 162 368 422 368c141 0 306 -54 373 -186l-98 -30c-42 62 -126 130 -268 130c-173 0 -322 -98 -322 -278c0 -192 152 -291 319 -291c98 0 208 42 261 129c19 32 23 56 28 91h-311v84h395v-372z
M421 -36h88v-55c0 -60 -23 -86 -84 -90v36c25 2 36 10 36 37h-40v72z" />
    <glyph glyph-name="gcommaaccent" unicode="&#x123;" 
d="M558 488h91v-458c0 -67 0 -137 -76 -185c-44 -29 -112 -54 -231 -54c-178 0 -273 58 -276 178l100 4v-5c0 -50 41 -97 187 -97c61 0 157 11 191 73c14 25 14 50 14 78v56c-87 -76 -190 -83 -231 -83c-149 0 -283 87 -283 248c0 205 182 254 294 254c92 0 168 -25 220 -67
v58zM556 250c0 115 -105 170 -206 170c-108 0 -207 -57 -207 -176c0 -133 129 -169 203 -169c108 0 210 62 210 175zM388 551h-88v55c0 60 23 86 84 90v-36c-25 -2 -36 -10 -36 -37h40v-72z" />
    <glyph glyph-name="Hbar" unicode="&#x126;" horiz-adv-x="917" 
d="M12 500v84h72v122h101v-122h541v122h102v-122h73v-84h-73v-500h-101v334h-541v-334h-102v500h-72zM185 418h541v82h-541v-82z" />
    <glyph glyph-name="hbar" unicode="&#x127;" 
d="M406 546h-233v-111c55 37 99 68 219 68c147 0 216 -70 240 -129c15 -35 16 -69 16 -107v-267h-95v250c0 32 -1 62 -13 91c-26 61 -102 82 -163 82c-31 0 -146 -7 -205 -107v-316h-95v546h-77v66h77v94h96v-94h233v-66z" />
    <glyph glyph-name="Hcircumflex" unicode="&#x124;" horiz-adv-x="917" 
d="M828 0h-101v334h-541v-334h-102v706h101v-288h541v288h102v-706zM614 753h-82l-81 69l-82 -70h-79l107 125h107z" />
    <glyph glyph-name="hcircumflex" unicode="&#x125;" 
d="M648 0h-95v250c0 32 -1 62 -13 91c-26 61 -102 82 -163 82c-31 0 -146 -7 -205 -107v-316h-95v706h96v-271c55 37 99 68 219 68c147 0 216 -70 240 -129c15 -35 16 -69 16 -107v-267zM288 753h-82l-81 69l-82 -70h-79l107 125h107z" />
    <glyph glyph-name="Itilde" unicode="&#x128;" horiz-adv-x="271" 
d="M186 0h-102v706h102v-706zM281 875l42 -38c-39 -56 -77 -80 -116 -80c-52 0 -97 48 -148 48c-28 0 -44 -18 -70 -48l-41 39c34 46 73 80 116 80c51 0 101 -48 153 -48c27 0 44 20 64 47z" />
    <glyph glyph-name="itilde" unicode="&#x129;" horiz-adv-x="250" 
d="M172 0h-95v488h95v-488zM268 678l47 -35c-34 -62 -79 -93 -120 -93c-52 0 -96 52 -147 52c-28 0 -44 -18 -69 -50l-43 36c31 50 74 91 117 91c53 0 98 -52 152 -52c27 0 44 22 63 51z" />
    <glyph glyph-name="uni012A" unicode="&#x12a;" horiz-adv-x="271" 
d="M186 0h-102v706h102v-706zM273 774h-275v76h275v-76z" />
    <glyph glyph-name="imacron" unicode="&#x12b;" horiz-adv-x="250" 
d="M172 0h-95v488h95v-488zM252 569h-255v76h255v-76z" />
    <glyph glyph-name="Ibreve" unicode="&#x12c;" horiz-adv-x="271" 
d="M186 0h-102v706h102v-706zM218 875h58c-8 -33 -27 -113 -137 -113c-46 0 -124 9 -144 113h56c10 -22 34 -51 85 -51c49 0 74 33 82 51z" />
    <glyph glyph-name="uni012D" unicode="&#x12d;" horiz-adv-x="250" 
d="M172 0h-95v488h95v-488zM202 687h58c-9 -43 -31 -122 -135 -122c-42 0 -115 15 -134 122h56c10 -24 28 -59 79 -59c49 0 68 39 76 59z" />
    <glyph glyph-name="Iogonek" unicode="&#x12e;" horiz-adv-x="271" 
d="M186 0h-12c-41 -6 -79 -39 -79 -72c0 -39 51 -40 69 -40c25 0 46 6 55 8v-60c-27 -6 -48 -10 -75 -10c-70 0 -110 34 -110 77c0 25 14 67 66 97h-16v706h102v-706z" />
    <glyph glyph-name="iogonek" unicode="&#x12f;" horiz-adv-x="250" 
d="M172 488v-488c-54 -7 -87 -39 -87 -72c0 -39 51 -40 69 -40c25 0 46 6 55 8v-60c-27 -6 -48 -10 -75 -10c-70 0 -110 34 -110 77c0 25 13 67 66 97h-13v488h95zM170 570h-94v96h94v-96z" />
    <glyph glyph-name="Idotaccent" unicode="&#x130;" horiz-adv-x="271" 
d="M186 0h-102v706h102v-706zM186 774h-101v106h101v-106z" />
    <glyph glyph-name="IJ" unicode="&#x132;" horiz-adv-x="979" 
d="M186 0h-102v706h102v-706zM792 706h100v-482c0 -24 -1 -65 -16 -100c-44 -103 -173 -141 -273 -141c-225 0 -279 129 -304 192l102 19c7 -15 29 -64 72 -92c47 -30 105 -30 121 -30c18 0 90 1 139 32c42 27 59 63 59 139v463z" />
    <glyph glyph-name="ij" unicode="&#x133;" horiz-adv-x="500" 
d="M170 570h-94v96h94v-96zM172 0h-95v488h95v-488zM422 569h-95v96h95v-96zM422 488v-512c0 -40 -1 -58 -6 -78c-26 -101 -129 -101 -156 -101c-32 0 -57 5 -84 11v89c26 -9 42 -14 70 -14c17 0 82 1 82 87v518h94z" />
    <glyph glyph-name="Jcircumflex" unicode="&#x134;" horiz-adv-x="708" 
d="M521 706h100v-482c0 -24 -1 -65 -16 -100c-44 -103 -173 -141 -273 -141c-225 0 -279 129 -304 192l102 19c7 -15 29 -64 72 -92c47 -30 105 -30 121 -30c18 0 90 1 139 32c42 27 59 63 59 139v463zM734 753h-82l-81 69l-82 -70h-79l107 125h107z" />
    <glyph glyph-name="jcircumflex" unicode="&#x135;" horiz-adv-x="250" 
d="M172 488v-512c0 -40 -1 -58 -6 -78c-26 -101 -129 -101 -156 -101c-32 0 -57 5 -84 11v89c26 -9 42 -14 70 -14c17 0 82 1 82 87v518h94zM286 552h-81l-82 76l-76 -77h-82l105 138h108z" />
    <glyph glyph-name="Kcommaaccent" unicode="&#x136;" horiz-adv-x="833" 
d="M854 0h-134l-319 380l-219 -161v-219h-97v706h99v-376l509 376h147l-357 -266zM395 -36h88v-55c0 -60 -23 -86 -84 -90v36c25 2 36 10 36 37h-40v72z" />
    <glyph glyph-name="kcommaaccent" unicode="&#x137;" horiz-adv-x="688" 
d="M705 0h-140l-256 236l-134 -103v-133h-97v706h97v-471l307 253h147l-245 -192zM316 -36h88v-55c0 -60 -23 -86 -84 -90v36c25 2 36 10 36 37h-40v72z" />
    <glyph glyph-name="kgreenlandic" unicode="&#x138;" horiz-adv-x="688" 
d="M705 0h-140l-256 236l-134 -103v-133h-97v488h97v-253l307 253h147l-245 -192z" />
    <glyph glyph-name="Lacute" unicode="&#x139;" horiz-adv-x="646" 
d="M654 0h-569v706h100v-620h469v-86zM296 878l-126 -125h-65l64 125h127z" />
    <glyph glyph-name="lacute" unicode="&#x13a;" horiz-adv-x="250" 
d="M171 0h-94v706h94v-706zM268 878l-126 -125h-65l64 125h127z" />
    <glyph glyph-name="Lcommaaccent" unicode="&#x13b;" horiz-adv-x="646" 
d="M654 0h-569v706h100v-620h469v-86zM327 -36h88v-55c0 -60 -23 -86 -84 -90v36c25 2 36 10 36 37h-40v72z" />
    <glyph glyph-name="lcommaaccent" unicode="&#x13c;" horiz-adv-x="250" 
d="M171 0h-94v706h94v-706zM81 -36h88v-55c0 -60 -23 -86 -84 -90v36c25 2 36 10 36 37h-40v72z" />
    <glyph glyph-name="Lcaron" unicode="&#x13d;" horiz-adv-x="646" 
d="M654 0h-569v706h100v-620h469v-86zM218 706h94v-99c0 -57 -15 -92 -94 -99v47c30 3 39 12 39 42v19h-39v90z" />
    <glyph glyph-name="lcaron" unicode="&#x13e;" horiz-adv-x="250" 
d="M171 0h-94v706h94v-706zM204 706h94v-99c0 -57 -15 -92 -94 -99v47c30 3 39 12 39 42v19h-39v90z" />
    <glyph glyph-name="Ldot" unicode="&#x13f;" horiz-adv-x="646" 
d="M654 0h-569v706h100v-620h469v-86zM492 324h-109v109h109v-109z" />
    <glyph glyph-name="ldot" unicode="&#x140;" horiz-adv-x="323" 
d="M171 0h-94v706h94v-706zM339 314h-103v108h103v-108z" />
    <glyph glyph-name="Nacute" unicode="&#x143;" horiz-adv-x="917" 
d="M829 0h-98l-553 584s2 -532 2 -584h-96v706h103l549 -583s-3 547 -3 583h96v-706zM589 878l-126 -125h-65l64 125h127z" />
    <glyph glyph-name="nacute" unicode="&#x144;" 
d="M649 0h-94v258c0 42 -4 60 -13 80c-18 42 -68 83 -168 83c-71 0 -157 -23 -189 -103c-11 -28 -12 -56 -12 -86v-232h-95v488h95v-59c17 14 35 31 74 47c29 12 76 26 144 26c121 0 210 -49 242 -122c16 -38 16 -76 16 -116v-264zM491 688l-129 -137h-66l70 137h125z" />
    <glyph glyph-name="Ncommaaccent" unicode="&#x145;" horiz-adv-x="917" 
d="M829 0h-98l-553 584s2 -532 2 -584h-96v706h103l549 -583s-3 547 -3 583h96v-706zM411 -36h88v-55c0 -60 -23 -86 -84 -90v36c25 2 36 10 36 37h-40v72z" />
    <glyph glyph-name="ncommaaccent" unicode="&#x146;" 
d="M649 0h-94v258c0 42 -4 60 -13 80c-18 42 -68 83 -168 83c-71 0 -157 -23 -189 -103c-11 -28 -12 -56 -12 -86v-232h-95v488h95v-59c17 14 35 31 74 47c29 12 76 26 144 26c121 0 210 -49 242 -122c16 -38 16 -76 16 -116v-264zM319 -36h88v-55c0 -60 -23 -86 -84 -90v36
c25 2 36 10 36 37h-40v72z" />
    <glyph glyph-name="Ncaron" unicode="&#x147;" horiz-adv-x="917" 
d="M829 0h-98l-553 584s2 -532 2 -584h-96v706h103l549 -583s-3 547 -3 583h96v-706zM618 876l-109 -124h-106l-109 126h82l80 -71l82 69h80z" />
    <glyph glyph-name="ncaron" unicode="&#x148;" 
d="M649 0h-94v258c0 42 -4 60 -13 80c-18 42 -68 83 -168 83c-71 0 -157 -23 -189 -103c-11 -28 -12 -56 -12 -86v-232h-95v488h95v-59c17 14 35 31 74 47c29 12 76 26 144 26c121 0 210 -49 242 -122c16 -38 16 -76 16 -116v-264zM521 692l-106 -138h-108l-107 137h81
l81 -76l78 77h81z" />
    <glyph glyph-name="napostrophe" unicode="&#x149;" 
d="M649 0h-94v258c0 42 -4 60 -13 80c-18 42 -68 83 -168 83c-71 0 -157 -23 -189 -103c-11 -28 -12 -56 -12 -86v-232h-95v488h95v-59c17 14 35 31 74 47c29 12 76 26 144 26c121 0 210 -49 242 -122c16 -38 16 -76 16 -116v-264zM27 706h94v-99c0 -57 -15 -92 -94 -99v47
c30 3 39 12 39 42v19h-39v90z" />
    <glyph glyph-name="Eng" unicode="&#x14a;" horiz-adv-x="917" 
d="M180 0h-96v706h103l549 -583s-3 547 -3 583h96v-711c0 -61 -2 -107 -41 -142c-34 -31 -79 -37 -110 -37c-27 0 -45 2 -66 5v88c20 -5 40 -7 61 -7c35 0 63 19 63 82v12l-558 588s2 -532 2 -584z" />
    <glyph glyph-name="eng" unicode="&#x14b;" 
d="M78 488h95v-59c17 14 35 31 74 47c29 12 76 26 144 26c121 0 210 -49 242 -122c16 -38 16 -76 16 -116v-250c0 -67 -7 -115 -40 -144c-30 -27 -67 -35 -105 -35c-25 0 -47 2 -70 6v88c20 -6 44 -8 58 -8c38 0 63 17 63 87v250c0 42 -4 60 -13 80c-18 42 -68 83 -168 83
c-71 0 -157 -23 -189 -103c-11 -28 -12 -56 -12 -86v-232h-95v488z" />
    <glyph glyph-name="Omacron" unicode="&#x14c;" horiz-adv-x="958" 
d="M906 343c0 -198 -148 -362 -426 -362c-262 0 -432 134 -432 364c0 254 203 378 426 378c208 0 432 -114 432 -380zM805 353c0 128 -83 284 -331 284c-171 0 -326 -88 -326 -288c0 -175 126 -281 334 -281c242 0 323 145 323 285zM658 774h-361v76h361v-76z" />
    <glyph glyph-name="omacron" unicode="&#x14d;" 
d="M682 242c0 -141 -115 -257 -317 -257c-185 0 -320 94 -320 249c0 200 186 266 317 266c154 0 320 -68 320 -258zM587 244c0 134 -129 178 -227 178c-109 0 -219 -62 -219 -182c0 -102 91 -176 229 -176c95 0 217 50 217 180zM543 569h-361v76h361v-76z" />
    <glyph glyph-name="Obreve" unicode="&#x14e;" horiz-adv-x="958" 
d="M906 343c0 -198 -148 -362 -426 -362c-262 0 -432 134 -432 364c0 254 203 378 426 378c208 0 432 -114 432 -380zM805 353c0 128 -83 284 -331 284c-171 0 -326 -88 -326 -288c0 -175 126 -281 334 -281c242 0 323 145 323 285zM561 875h58c-8 -33 -27 -113 -137 -113
c-46 0 -124 9 -144 113h56c10 -22 34 -51 85 -51c49 0 74 33 82 51z" />
    <glyph glyph-name="obreve" unicode="&#x14f;" 
d="M682 242c0 -141 -115 -257 -317 -257c-185 0 -320 94 -320 249c0 200 186 266 317 266c154 0 320 -68 320 -258zM587 244c0 134 -129 178 -227 178c-109 0 -219 -62 -219 -182c0 -102 91 -176 229 -176c95 0 217 50 217 180zM441 687h58c-9 -43 -31 -122 -135 -122
c-42 0 -115 15 -134 122h56c10 -24 28 -59 79 -59c49 0 68 39 76 59z" />
    <glyph glyph-name="Ohungarumlaut" unicode="&#x150;" horiz-adv-x="958" 
d="M906 343c0 -198 -148 -362 -426 -362c-262 0 -432 134 -432 364c0 254 203 378 426 378c208 0 432 -114 432 -380zM805 353c0 128 -83 284 -331 284c-171 0 -326 -88 -326 -288c0 -175 126 -281 334 -281c242 0 323 145 323 285zM528 878l-120 -125h-56l62 125h114z
M699 878l-120 -125h-56l62 125h114z" />
    <glyph glyph-name="ohungarumlaut" unicode="&#x151;" 
d="M682 242c0 -141 -115 -257 -317 -257c-185 0 -320 94 -320 249c0 200 186 266 317 266c154 0 320 -68 320 -258zM587 244c0 134 -129 178 -227 178c-109 0 -219 -62 -219 -182c0 -102 91 -176 229 -176c95 0 217 50 217 180zM421 688l-120 -137h-58l70 137h108zM576 688
l-120 -137h-58l70 137h108z" />
    <glyph glyph-name="Racute" unicode="&#x154;" horiz-adv-x="896" 
d="M896 0h-131l-239 283h-341v-283h-101v706h481c60 0 82 -3 112 -11c95 -25 149 -99 149 -196c0 -38 -8 -137 -114 -181c-18 -7 -37 -13 -77 -19zM184 366h349c57 0 124 2 163 52c10 12 26 36 26 77c0 13 -1 40 -18 69c-30 53 -77 58 -132 58h-388v-256zM542 878l-126 -125
h-65l64 125h127z" />
    <glyph glyph-name="racute" unicode="&#x155;" horiz-adv-x="417" 
d="M78 488h95v-55c7 7 67 69 188 69c28 0 44 -5 56 -8v-93c-18 6 -41 11 -79 11c-37 0 -165 -3 -165 -140v-272h-95v488zM316 688l-129 -137h-66l70 137h125z" />
    <glyph glyph-name="Rcommaaccent" unicode="&#x156;" horiz-adv-x="896" 
d="M896 0h-131l-239 283h-341v-283h-101v706h481c60 0 82 -3 112 -11c95 -25 149 -99 149 -196c0 -38 -8 -137 -114 -181c-18 -7 -37 -13 -77 -19zM184 366h349c57 0 124 2 163 52c10 12 26 36 26 77c0 13 -1 40 -18 69c-30 53 -77 58 -132 58h-388v-256zM423 -36h88v-55
c0 -60 -23 -86 -84 -90v36c25 2 36 10 36 37h-40v72z" />
    <glyph glyph-name="rcommaaccent" unicode="&#x157;" horiz-adv-x="417" 
d="M78 488h95v-55c7 7 67 69 188 69c28 0 44 -5 56 -8v-93c-18 6 -41 11 -79 11c-37 0 -165 -3 -165 -140v-272h-95v488zM82 -36h88v-55c0 -60 -23 -86 -84 -90v36c25 2 36 10 36 37h-40v72z" />
    <glyph glyph-name="Rcaron" unicode="&#x158;" horiz-adv-x="896" 
d="M896 0h-131l-239 283h-341v-283h-101v706h481c60 0 82 -3 112 -11c95 -25 149 -99 149 -196c0 -38 -8 -137 -114 -181c-18 -7 -37 -13 -77 -19zM184 366h349c57 0 124 2 163 52c10 12 26 36 26 77c0 13 -1 40 -18 69c-30 53 -77 58 -132 58h-388v-256zM567 876l-109 -124
h-106l-109 126h82l80 -71l82 69h80z" />
    <glyph glyph-name="rcaron" unicode="&#x159;" horiz-adv-x="417" 
d="M78 488h95v-55c7 7 67 69 188 69c28 0 44 -5 56 -8v-93c-18 6 -41 11 -79 11c-37 0 -165 -3 -165 -140v-272h-95v488zM388 692l-106 -138h-108l-107 137h81l81 -76l78 77h81z" />
    <glyph glyph-name="Sacute" unicode="&#x15a;" horiz-adv-x="812" 
d="M19 143l93 38c27 -29 48 -52 112 -78c81 -33 169 -34 203 -34s126 0 189 48c42 32 48 76 48 95c0 90 -100 105 -182 112l-108 10c-138 13 -201 18 -253 66c-48 44 -50 94 -50 118c0 99 68 144 98 160c42 23 119 46 233 46c213 0 308 -78 353 -142l-92 -37
c-63 59 -134 96 -260 96c-105 0 -232 -23 -232 -118c0 -76 72 -88 143 -95l219 -21c144 -14 230 -78 230 -194c0 -107 -71 -230 -346 -230c-160 0 -327 43 -398 160zM536 878l-126 -125h-65l64 125h127z" />
    <glyph glyph-name="sacute" unicode="&#x15b;" horiz-adv-x="667" 
d="M18 84l82 54c5 -4 28 -22 50 -34c77 -40 173 -42 196 -42c96 0 174 24 174 79c0 13 -5 32 -31 45c-43 23 -135 20 -254 33c-42 5 -89 13 -125 39c-30 22 -46 56 -46 94c0 54 31 96 78 120c68 35 183 35 193 35c76 0 156 -13 224 -49c33 -18 48 -30 60 -42l-83 -46
c-80 55 -178 57 -208 57c-69 0 -112 -10 -138 -29c-18 -14 -21 -27 -21 -38c0 -9 4 -27 24 -38c34 -20 126 -23 229 -32c75 -6 111 -14 142 -34c38 -25 57 -65 57 -109c0 -11 -1 -40 -16 -67c-54 -96 -212 -98 -253 -98c-50 0 -222 3 -334 102zM478 688l-129 -137h-66
l70 137h125z" />
    <glyph glyph-name="Scircumflex" unicode="&#x15c;" horiz-adv-x="812" 
d="M19 143l93 38c27 -29 48 -52 112 -78c81 -33 169 -34 203 -34s126 0 189 48c42 32 48 76 48 95c0 90 -100 105 -182 112l-108 10c-138 13 -201 18 -253 66c-48 44 -50 94 -50 118c0 99 68 144 98 160c42 23 119 46 233 46c213 0 308 -78 353 -142l-92 -37
c-63 59 -134 96 -260 96c-105 0 -232 -23 -232 -118c0 -76 72 -88 143 -95l219 -21c144 -14 230 -78 230 -194c0 -107 -71 -230 -346 -230c-160 0 -327 43 -398 160zM568 753h-82l-81 69l-82 -70h-79l107 125h107z" />
    <glyph glyph-name="scircumflex" unicode="&#x15d;" horiz-adv-x="667" 
d="M18 84l82 54c5 -4 28 -22 50 -34c77 -40 173 -42 196 -42c96 0 174 24 174 79c0 13 -5 32 -31 45c-43 23 -135 20 -254 33c-42 5 -89 13 -125 39c-30 22 -46 56 -46 94c0 54 31 96 78 120c68 35 183 35 193 35c76 0 156 -13 224 -49c33 -18 48 -30 60 -42l-83 -46
c-80 55 -178 57 -208 57c-69 0 -112 -10 -138 -29c-18 -14 -21 -27 -21 -38c0 -9 4 -27 24 -38c34 -20 126 -23 229 -32c75 -6 111 -14 142 -34c38 -25 57 -65 57 -109c0 -11 -1 -40 -16 -67c-54 -96 -212 -98 -253 -98c-50 0 -222 3 -334 102zM494 552h-81l-82 76l-76 -77
h-82l105 138h108z" />
    <glyph glyph-name="Scedilla" unicode="&#x15e;" horiz-adv-x="812" 
d="M19 143l93 38c27 -29 48 -52 112 -78c81 -33 169 -34 203 -34s126 0 189 48c42 32 48 76 48 95c0 90 -100 105 -182 112l-108 10c-138 13 -201 18 -253 66c-48 44 -50 94 -50 118c0 99 68 144 98 160c42 23 119 46 233 46c213 0 308 -78 353 -142l-92 -37
c-63 59 -134 96 -260 96c-105 0 -232 -23 -232 -118c0 -76 72 -88 143 -95l219 -21c144 -14 230 -78 230 -194c0 -106 -70 -227 -336 -230l-11 -32c29 0 67 -1 95 -34c17 -20 17 -44 17 -49c0 -63 -58 -103 -153 -103c-32 0 -58 3 -90 10l20 51c34 -8 47 -10 65 -10
c40 0 67 16 67 42c0 30 -27 42 -67 42c-10 0 -21 -1 -31 -2l30 86c-144 8 -286 53 -350 159z" />
    <glyph glyph-name="scedilla" unicode="&#x15f;" horiz-adv-x="667" 
d="M18 84l82 54c5 -4 28 -22 50 -34c77 -40 173 -42 196 -42c96 0 174 24 174 79c0 13 -5 32 -31 45c-43 23 -135 20 -254 33c-42 5 -89 13 -125 39c-30 22 -46 56 -46 94c0 54 31 96 78 120c68 35 183 35 193 35c76 0 156 -13 224 -49c33 -18 48 -30 60 -42l-83 -46
c-80 55 -178 57 -208 57c-69 0 -112 -10 -138 -29c-18 -14 -21 -27 -21 -38c0 -9 4 -27 24 -38c34 -20 126 -23 229 -32c75 -6 111 -14 142 -34c38 -25 57 -65 57 -109c0 -11 -1 -40 -16 -67c-54 -96 -212 -98 -255 -98l-14 -36c27 0 99 -10 99 -76c0 -42 -38 -89 -128 -89
c-35 0 -87 9 -91 10l18 47c8 -1 33 -8 58 -8c14 0 58 1 58 37c0 25 -31 33 -63 33c-10 0 -18 0 -26 -1l33 85c-75 6 -192 26 -276 100z" />
    <glyph glyph-name="Tcommaaccent" unicode="&#x162;" horiz-adv-x="708" 
d="M691 622h-289v-622h-100v622h-288v84h677v-84zM308 -36h88v-55c0 -60 -23 -86 -84 -90v36c25 2 36 10 36 37h-40v72z" />
    <glyph glyph-name="tcommaaccent" unicode="&#x163;" horiz-adv-x="333" 
d="M322 423h-139v-261c0 -62 9 -85 68 -85c30 0 60 6 69 7v-84c-31 -4 -63 -7 -95 -7c-36 0 -79 4 -107 31c-24 24 -28 50 -28 111v288h-83v65h85v169h94v-169h136v-65zM145 -36h88v-55c0 -60 -23 -86 -84 -90v36c25 2 36 10 36 37h-40v72z" />
    <glyph glyph-name="Tcaron" unicode="&#x164;" horiz-adv-x="708" 
d="M691 622h-289v-622h-100v622h-288v84h677v-84zM514 876l-109 -124h-106l-109 126h82l80 -71l82 69h80z" />
    <glyph glyph-name="tcaron" unicode="&#x165;" horiz-adv-x="333" 
d="M322 423h-139v-261c0 -62 9 -85 68 -85c30 0 60 6 69 7v-84c-31 -4 -63 -7 -95 -7c-36 0 -79 4 -107 31c-24 24 -28 50 -28 111v288h-83v65h85v169h94v-169h136v-65zM219 706h94v-99c0 -57 -15 -92 -94 -99v47c30 3 39 12 39 42v19h-39v90z" />
    <glyph glyph-name="Tbar" unicode="&#x166;" horiz-adv-x="708" 
d="M108 415v84h194v123h-288v84h677v-84h-289v-123h194v-84h-194v-415h-100v415h-194z" />
    <glyph glyph-name="tbar" unicode="&#x167;" horiz-adv-x="333" 
d="M299 295h-116v-133c0 -62 9 -85 68 -85c30 0 60 6 69 7v-84c-31 -4 -63 -7 -95 -7c-36 0 -79 4 -107 31c-24 24 -28 50 -28 111v160h-74v65h74v63h-83v65h85v169h94v-169h136v-65h-139v-63h116v-65z" />
    <glyph glyph-name="Utilde" unicode="&#x168;" horiz-adv-x="896" 
d="M84 706h101v-431c0 -114 43 -139 72 -158c35 -22 93 -47 192 -47c20 0 197 2 242 101c15 34 16 65 16 103v432h101v-425c0 -47 -1 -87 -20 -132c-56 -135 -214 -166 -343 -166c-54 0 -253 6 -331 147c-28 52 -30 104 -30 161v415zM593 875l42 -38
c-39 -56 -77 -80 -116 -80c-52 0 -97 48 -148 48c-28 0 -44 -18 -70 -48l-41 39c34 46 73 80 116 80c51 0 101 -48 153 -48c27 0 44 20 64 47z" />
    <glyph glyph-name="utilde" unicode="&#x169;" 
d="M646 0h-93v62c-9 -8 -25 -22 -51 -38c-64 -39 -142 -41 -164 -41c-63 0 -197 18 -243 114c-20 41 -20 91 -20 135v256h94v-246c0 -49 4 -74 13 -96c33 -77 146 -79 165 -79c103 0 167 48 189 85c15 26 15 49 15 78v258h95v-488zM507 678l47 -35c-34 -62 -79 -93 -120 -93
c-52 0 -96 52 -147 52c-28 0 -44 -18 -69 -50l-43 36c31 50 74 91 117 91c53 0 98 -52 152 -52c27 0 44 22 63 51z" />
    <glyph glyph-name="Umacron" unicode="&#x16a;" horiz-adv-x="896" 
d="M84 706h101v-431c0 -114 43 -139 72 -158c35 -22 93 -47 192 -47c20 0 197 2 242 101c15 34 16 65 16 103v432h101v-425c0 -47 -1 -87 -20 -132c-56 -135 -214 -166 -343 -166c-54 0 -253 6 -331 147c-28 52 -30 104 -30 161v415zM626 774h-361v76h361v-76z" />
    <glyph glyph-name="umacron" unicode="&#x16b;" 
d="M646 0h-93v62c-9 -8 -25 -22 -51 -38c-64 -39 -142 -41 -164 -41c-63 0 -197 18 -243 114c-20 41 -20 91 -20 135v256h94v-246c0 -49 4 -74 13 -96c33 -77 146 -79 165 -79c103 0 167 48 189 85c15 26 15 49 15 78v258h95v-488zM541 569h-361v76h361v-76z" />
    <glyph glyph-name="Ubreve" unicode="&#x16c;" horiz-adv-x="896" 
d="M84 706h101v-431c0 -114 43 -139 72 -158c35 -22 93 -47 192 -47c20 0 197 2 242 101c15 34 16 65 16 103v432h101v-425c0 -47 -1 -87 -20 -132c-56 -135 -214 -166 -343 -166c-54 0 -253 6 -331 147c-28 52 -30 104 -30 161v415zM530 875h58c-8 -33 -27 -113 -137 -113
c-46 0 -124 9 -144 113h56c10 -22 34 -51 85 -51c49 0 74 33 82 51z" />
    <glyph glyph-name="ubreve" unicode="&#x16d;" 
d="M646 0h-93v62c-9 -8 -25 -22 -51 -38c-64 -39 -142 -41 -164 -41c-63 0 -197 18 -243 114c-20 41 -20 91 -20 135v256h94v-246c0 -49 4 -74 13 -96c33 -77 146 -79 165 -79c103 0 167 48 189 85c15 26 15 49 15 78v258h95v-488zM441 687h58c-9 -43 -31 -122 -135 -122
c-42 0 -115 15 -134 122h56c10 -24 28 -59 79 -59c49 0 68 39 76 59z" />
    <glyph glyph-name="Uring" unicode="&#x16e;" horiz-adv-x="896" 
d="M84 706h101v-431c0 -114 43 -139 72 -158c35 -22 93 -47 192 -47c20 0 197 2 242 101c15 34 16 65 16 103v432h101v-425c0 -47 -1 -87 -20 -132c-56 -135 -214 -166 -343 -166c-54 0 -253 6 -331 147c-28 52 -30 104 -30 161v415zM329 836c0 70 67 93 118 93
c60 0 115 -34 115 -93c0 -25 -15 -98 -115 -98c-57 0 -118 33 -118 98zM501 835c0 23 -18 47 -54 47c-45 0 -58 -30 -58 -48c0 -25 22 -47 58 -47c27 0 54 17 54 48z" />
    <glyph glyph-name="uring" unicode="&#x16f;" 
d="M646 0h-93v62c-9 -8 -25 -22 -51 -38c-64 -39 -142 -41 -164 -41c-63 0 -197 18 -243 114c-20 41 -20 91 -20 135v256h94v-246c0 -49 4 -74 13 -96c33 -77 146 -79 165 -79c103 0 167 48 189 85c15 26 15 49 15 78v258h95v-488zM477 643c0 -66 -63 -95 -114 -95
c-88 0 -119 55 -119 97c0 70 72 93 119 93c66 0 114 -38 114 -95zM416 644c0 19 -14 48 -56 48c-32 0 -56 -23 -56 -48c0 -19 16 -47 56 -47c41 0 56 28 56 47z" />
    <glyph glyph-name="Uhungarumlaut" unicode="&#x170;" horiz-adv-x="896" 
d="M84 706h101v-431c0 -114 43 -139 72 -158c35 -22 93 -47 192 -47c20 0 197 2 242 101c15 34 16 65 16 103v432h101v-425c0 -47 -1 -87 -20 -132c-56 -135 -214 -166 -343 -166c-54 0 -253 6 -331 147c-28 52 -30 104 -30 161v415zM493 878l-120 -125h-56l62 125h114z
M664 878l-120 -125h-56l62 125h114z" />
    <glyph glyph-name="uhungarumlaut" unicode="&#x171;" 
d="M646 0h-93v62c-9 -8 -25 -22 -51 -38c-64 -39 -142 -41 -164 -41c-63 0 -197 18 -243 114c-20 41 -20 91 -20 135v256h94v-246c0 -49 4 -74 13 -96c33 -77 146 -79 165 -79c103 0 167 48 189 85c15 26 15 49 15 78v258h95v-488zM421 688l-120 -137h-58l70 137h108z
M576 688l-120 -137h-58l70 137h108z" />
    <glyph glyph-name="Uogonek" unicode="&#x172;" horiz-adv-x="896" 
d="M84 706h101v-431c0 -114 43 -139 72 -158c35 -22 93 -47 192 -47c20 0 197 2 242 101c15 34 16 65 16 103v432h101v-425c0 -47 -1 -87 -20 -132c-50 -120 -177 -154 -272 -163c-42 -4 -63 -34 -63 -58c0 -39 51 -40 69 -40c25 0 46 6 55 8v-60c-27 -6 -48 -10 -75 -10
c-70 0 -110 34 -110 77c0 21 8 51 42 80c-66 1 -247 14 -320 147c-28 52 -30 104 -30 161v415z" />
    <glyph glyph-name="uogonek" unicode="&#x173;" 
d="M646 0h-22c-40 -6 -79 -39 -79 -72c0 -39 51 -40 69 -40c25 0 46 6 55 8v-60c-27 -6 -48 -10 -75 -10c-70 0 -110 34 -110 77c0 26 11 65 69 100v59c-9 -8 -25 -22 -51 -38c-64 -39 -142 -41 -164 -41c-63 0 -197 18 -243 114c-20 41 -20 91 -20 135v256h94v-246
c0 -49 4 -74 13 -96c33 -77 146 -79 165 -79c103 0 167 48 189 85c15 26 15 49 15 78v258h95v-488z" />
    <glyph glyph-name="Wacute" unicode="&#x1e82;" horiz-adv-x="1104" 
d="M1102 706l-233 -706h-111l-208 578l-209 -578h-114l-230 706h107l184 -595l218 595h89l217 -592l184 592h106zM679 878l-126 -125h-65l64 125h127z" />
    <glyph glyph-name="wacute" unicode="&#x1e83;" horiz-adv-x="896" 
d="M892 488l-198 -488h-108l-150 395l-142 -395h-108l-187 488h103l138 -391l137 391h118l145 -394l149 394h103zM573 688l-129 -137h-66l70 137h125z" />
    <glyph glyph-name="Wcircumflex" unicode="&#x174;" horiz-adv-x="1104" 
d="M1102 706l-233 -706h-111l-208 578l-209 -578h-114l-230 706h107l184 -595l218 595h89l217 -592l184 592h106zM714 753h-82l-81 69l-82 -70h-79l107 125h107z" />
    <glyph glyph-name="wcircumflex" unicode="&#x175;" horiz-adv-x="896" 
d="M892 488l-198 -488h-108l-150 395l-142 -395h-108l-187 488h103l138 -391l137 391h118l145 -394l149 394h103zM608 552h-81l-82 76l-76 -77h-82l105 138h108z" />
    <glyph glyph-name="Wdieresis" unicode="&#x1e84;" horiz-adv-x="1104" 
d="M1102 706l-233 -706h-111l-208 578l-209 -578h-114l-230 706h107l184 -595l218 595h89l217 -592l184 592h106zM730 774h-97v103h97v-103zM467 774h-97v103h97v-103z" />
    <glyph glyph-name="wdieresis" unicode="&#x1e85;" horiz-adv-x="896" 
d="M892 488l-198 -488h-108l-150 395l-142 -395h-108l-187 488h103l138 -391l137 391h118l145 -394l149 394h103zM618 569h-98v103h98v-103zM354 569h-97v103h97v-103z" />
    <glyph glyph-name="Wgrave" unicode="&#x1e80;" horiz-adv-x="1104" 
d="M1102 706l-233 -706h-111l-208 578l-209 -578h-114l-230 706h107l184 -595l218 595h89l217 -592l184 592h106zM605 755h-66l-120 126h125z" />
    <glyph glyph-name="wgrave" unicode="&#x1e81;" horiz-adv-x="896" 
d="M892 488l-198 -488h-108l-150 395l-142 -395h-108l-187 488h103l138 -391l137 391h118l145 -394l149 394h103zM503 551h-65l-128 137h125z" />
    <glyph glyph-name="Ycircumflex" unicode="&#x176;" horiz-adv-x="812" 
d="M811 706l-358 -433v-273h-99v275l-352 431h129l273 -346l279 346h128zM567 753h-82l-81 69l-82 -70h-79l107 125h107z" />
    <glyph glyph-name="ycircumflex" unicode="&#x177;" horiz-adv-x="604" 
d="M497 489h106l-276 -536c-33 -64 -69 -123 -183 -123c-45 0 -103 10 -114 12v86c50 -11 76 -15 100 -15c59 0 85 23 118 84l-248 492h108l191 -394zM459 552h-81l-82 76l-76 -77h-82l105 138h108z" />
    <glyph glyph-name="Ygrave" unicode="&#x1ef2;" horiz-adv-x="812" 
d="M811 706l-358 -433v-273h-99v275l-352 431h129l273 -346l279 346h128zM467 755h-66l-120 126h125z" />
    <glyph glyph-name="ygrave" unicode="&#x1ef3;" horiz-adv-x="604" 
d="M497 489h106l-276 -536c-33 -64 -69 -123 -183 -123c-45 0 -103 10 -114 12v86c50 -11 76 -15 100 -15c59 0 85 23 118 84l-248 492h108l191 -394zM368 551h-65l-128 137h125z" />
    <glyph glyph-name="Zacute" unicode="&#x179;" horiz-adv-x="771" 
d="M735 0h-705v84l553 536h-511v86h653v-83l-554 -535h564v-88zM541 878l-126 -125h-65l64 125h127z" />
    <glyph glyph-name="zacute" unicode="&#x17a;" horiz-adv-x="604" 
d="M580 0h-556v79l403 330h-372v79h506v-74l-403 -330h422v-84zM442 688l-129 -137h-66l70 137h125z" />
    <glyph glyph-name="Zdotaccent" unicode="&#x17b;" horiz-adv-x="771" 
d="M735 0h-705v84l553 536h-511v86h653v-83l-554 -535h564v-88zM451 774h-101v106h101v-106z" />
    <glyph glyph-name="zdotaccent" unicode="&#x17c;" horiz-adv-x="604" 
d="M580 0h-556v79l403 330h-372v79h506v-74l-403 -330h422v-84zM362 569h-101v106h101v-106z" />
    <glyph glyph-name="longs" unicode="&#x17f;" horiz-adv-x="270" 
d="M315 705l-1 -85c-6 2 -34 9 -59 9c-32 0 -76 -7 -76 -70v-559h-94v424h-79v64h80v61c0 15 1 47 8 72c12 42 47 91 144 91c18 0 39 -1 77 -7z" />
    <glyph glyph-name="Aringacute" unicode="&#x1fa;" horiz-adv-x="833" 
d="M558 998l-144 -100h-65l82 100h127zM834 0h-116l-86 174h-434l-86 -174h-113l366 706h107zM589 255l-173 350l-176 -350h349zM326 809c0 42 35 71 87 71c51 0 88 -25 88 -70c0 -36 -24 -72 -87 -72c-62 0 -88 33 -88 71zM451 810c0 17 -13 32 -37 32
c-28 0 -39 -16 -39 -33c0 -16 11 -32 39 -32c24 0 37 15 37 33z" />
    <glyph glyph-name="aringacute" unicode="&#x1fb;" horiz-adv-x="688" 
d="M478 889l-149 -138h-66l90 138h125zM681 0c-28 -2 -56 -5 -84 -5c-83 0 -90 47 -94 83c-18 -36 -89 -96 -235 -96c-186 0 -229 100 -229 168c0 84 60 120 86 131c47 21 123 23 238 23h139v12c0 60 -1 118 -162 118c-73 0 -152 -13 -173 -64l-96 9c1 4 10 30 22 48
c19 28 61 76 242 76c14 0 83 -1 139 -15c13 -3 64 -14 93 -53c24 -32 24 -65 24 -102v-195c0 -56 9 -75 55 -75c9 0 35 3 35 3v-66zM503 231h-179c-96 0 -190 0 -190 -80c0 -48 44 -96 141 -96c57 0 165 13 210 96c18 34 17 66 18 80zM449 635c0 -50 -45 -87 -107 -87
c-82 0 -113 42 -113 85c0 60 57 89 111 89c62 0 109 -27 109 -87zM387 636c0 18 -9 40 -48 40c-33 0 -48 -19 -48 -40c0 -20 14 -39 48 -39s48 20 48 39z" />
    <glyph glyph-name="AEacute" unicode="&#x1fc;" horiz-adv-x="1125" 
d="M1094 0h-570v170h-294l-113 -170h-117l486 706h602v-86h-464v-212h436v-82h-436v-238h470v-88zM525 252v361l-241 -361h241zM917 878l-126 -125h-65l64 125h127z" />
    <glyph glyph-name="aeacute" unicode="&#x1fd;" horiz-adv-x="1146" 
d="M1100 234h-496c11 -134 136 -171 211 -171c38 0 141 14 182 102l90 -23c-58 -124 -185 -156 -273 -156c-83 0 -184 23 -254 106c-47 -53 -127 -109 -278 -109c-99 0 -164 25 -203 69c-38 42 -39 90 -39 103c0 39 14 68 25 83c42 58 104 68 207 68h239
c0 89 -63 123 -185 123c-82 0 -139 -17 -164 -67l-95 11c32 94 119 127 262 127c134 0 210 -33 244 -80c42 40 102 82 222 82c158 0 292 -82 305 -268zM988 305c-17 62 -71 124 -185 124c-115 0 -173 -56 -196 -124h381zM510 234h-186c-62 0 -114 -1 -138 -11
c-49 -20 -50 -61 -50 -70c0 -70 63 -95 159 -95c53 0 156 11 197 87c13 24 16 58 18 84v5zM707 688l-129 -137h-66l70 137h125z" />
    <glyph glyph-name="Oslashacute" unicode="&#x1fe;" horiz-adv-x="979" 
d="M898 715l46 -59l-98 -77c31 -48 79 -107 79 -220c0 -54 -8 -169 -111 -266c-117 -109 -270 -110 -320 -110c-111 0 -225 28 -297 84l-101 -80l-45 60l88 69c-30 37 -87 112 -87 236c0 49 9 164 108 258c116 110 276 114 324 114c103 0 234 -31 306 -95zM773 522
l-503 -397c60 -40 145 -58 218 -58c110 0 183 33 220 56c83 53 119 136 119 232c0 28 -1 100 -54 167zM212 173l507 401c-51 34 -116 66 -232 66c-201 0 -337 -108 -337 -287c0 -65 21 -135 62 -180zM630 878l-126 -125h-65l64 125h127z" />
    <glyph glyph-name="oslashacute" unicode="&#x1ff;" 
d="M640 498l38 -54l-57 -43c30 -39 61 -82 61 -161c0 -129 -101 -254 -322 -254c-20 0 -108 2 -175 36c-19 10 -42 26 -45 28l-71 -52l-41 57l60 44c-38 49 -45 116 -45 142c0 33 5 98 62 162c65 72 163 99 259 99c30 0 124 -2 205 -54zM555 353l-341 -250
c28 -20 79 -42 154 -42c99 0 224 52 224 184c0 46 -14 71 -37 108zM160 151l339 245c-26 12 -68 31 -136 31c-171 0 -230 -108 -230 -185c0 -43 13 -73 27 -91zM514 688l-129 -137h-66l70 137h125z" />
    <glyph glyph-name="Scommaaccent" unicode="&#x218;" horiz-adv-x="812" 
d="M19 143l93 38c27 -29 48 -52 112 -78c81 -33 169 -34 203 -34s126 0 189 48c42 32 48 76 48 95c0 90 -100 105 -182 112l-108 10c-138 13 -201 18 -253 66c-48 44 -50 94 -50 118c0 99 68 144 98 160c42 23 119 46 233 46c213 0 308 -78 353 -142l-92 -37
c-63 59 -134 96 -260 96c-105 0 -232 -23 -232 -118c0 -76 72 -88 143 -95l219 -21c144 -14 230 -78 230 -194c0 -107 -71 -230 -346 -230c-160 0 -327 43 -398 160zM367 -36h88v-55c0 -60 -23 -86 -84 -90v36c25 2 36 10 36 37h-40v72z" />
    <glyph glyph-name="scommaaccent" unicode="&#x219;" horiz-adv-x="667" 
d="M18 84l82 54c5 -4 28 -22 50 -34c77 -40 173 -42 196 -42c96 0 174 24 174 79c0 13 -5 32 -31 45c-43 23 -135 20 -254 33c-42 5 -89 13 -125 39c-30 22 -46 56 -46 94c0 54 31 96 78 120c68 35 183 35 193 35c76 0 156 -13 224 -49c33 -18 48 -30 60 -42l-83 -46
c-80 55 -178 57 -208 57c-69 0 -112 -10 -138 -29c-18 -14 -21 -27 -21 -38c0 -9 4 -27 24 -38c34 -20 126 -23 229 -32c75 -6 111 -14 142 -34c38 -25 57 -65 57 -109c0 -11 -1 -40 -16 -67c-54 -96 -212 -98 -253 -98c-50 0 -222 3 -334 102zM299 -36h88v-55
c0 -60 -23 -86 -84 -90v36c25 2 36 10 36 37h-40v72z" />
    <glyph glyph-name="uni021A" unicode="&#x21a;" horiz-adv-x="708" 
d="M691 622h-289v-622h-100v622h-288v84h677v-84zM308 -36h88v-55c0 -60 -23 -86 -84 -90v36c25 2 36 10 36 37h-40v72z" />
    <glyph glyph-name="uni021B" unicode="&#x21b;" horiz-adv-x="333" 
d="M322 423h-139v-261c0 -62 9 -85 68 -85c30 0 60 6 69 7v-84c-31 -4 -63 -7 -95 -7c-36 0 -79 4 -107 31c-24 24 -28 50 -28 111v288h-83v65h85v169h94v-169h136v-65zM145 -36h88v-55c0 -60 -23 -86 -84 -90v36c25 2 36 10 36 37h-40v72z" />
    <glyph glyph-name="uniF6C1" unicode="&#xf6c1;" horiz-adv-x="812" 
d="M19 143l93 38c27 -29 48 -52 112 -78c81 -33 169 -34 203 -34s126 0 189 48c42 32 48 76 48 95c0 90 -100 105 -182 112l-108 10c-138 13 -201 18 -253 66c-48 44 -50 94 -50 118c0 99 68 144 98 160c42 23 119 46 233 46c213 0 308 -78 353 -142l-92 -37
c-63 59 -134 96 -260 96c-105 0 -232 -23 -232 -118c0 -76 72 -88 143 -95l219 -21c144 -14 230 -78 230 -194c0 -106 -70 -227 -336 -230l-11 -32c29 0 67 -1 95 -34c17 -20 17 -44 17 -49c0 -63 -58 -103 -153 -103c-32 0 -58 3 -90 10l20 51c34 -8 47 -10 65 -10
c40 0 67 16 67 42c0 30 -27 42 -67 42c-10 0 -21 -1 -31 -2l30 86c-144 8 -286 53 -350 159z" />
    <glyph glyph-name="uniF6C2" unicode="&#xf6c2;" horiz-adv-x="667" 
d="M18 84l82 54c5 -4 28 -22 50 -34c77 -40 173 -42 196 -42c96 0 174 24 174 79c0 13 -5 32 -31 45c-43 23 -135 20 -254 33c-42 5 -89 13 -125 39c-30 22 -46 56 -46 94c0 54 31 96 78 120c68 35 183 35 193 35c76 0 156 -13 224 -49c33 -18 48 -30 60 -42l-83 -46
c-80 55 -178 57 -208 57c-69 0 -112 -10 -138 -29c-18 -14 -21 -27 -21 -38c0 -9 4 -27 24 -38c34 -20 126 -23 229 -32c75 -6 111 -14 142 -34c38 -25 57 -65 57 -109c0 -11 -1 -40 -16 -67c-54 -96 -212 -98 -255 -98l-14 -36c27 0 99 -10 99 -76c0 -42 -38 -89 -128 -89
c-35 0 -87 9 -91 10l18 47c8 -1 33 -8 58 -8c14 0 58 1 58 37c0 25 -31 33 -63 33c-10 0 -18 0 -26 -1l33 85c-75 6 -192 26 -276 100z" />
    <glyph glyph-name="i.dot" horiz-adv-x="250" 
d="M170 570h-94v96h94v-96zM172 0h-95v488h95v-488z" />
    <glyph glyph-name="zero.numerator" horiz-adv-x="458" 
d="M434 471c0 -140 -80 -231 -205 -231c-124 0 -204 93 -204 233c0 138 83 230 208 230c127 0 201 -91 201 -232zM362 468c0 106 -51 174 -131 174c-81 0 -134 -68 -134 -173c0 -101 53 -168 133 -168c81 0 132 65 132 167z" />
    <glyph glyph-name="one.numerator" horiz-adv-x="458" 
d="M284 246h-70v338c-29 -13 -54 -17 -112 -17h-9v49c77 2 112 26 138 73h53v-443z" />
    <glyph glyph-name="two.numerator" horiz-adv-x="458" 
d="M411 246h-364v69c109 48 223 118 251 149c12 14 31 40 31 75c0 34 -27 95 -107 95c-29 0 -113 -12 -113 -109v-14l-69 10c0 6 0 42 11 70c22 53 78 100 171 100c133 0 178 -92 178 -153c0 -44 -19 -76 -32 -92c-47 -59 -163 -118 -220 -140h263v-60z" />
    <glyph glyph-name="three.numerator" horiz-adv-x="458" 
d="M29 377l67 16c3 -18 7 -31 14 -43c23 -39 78 -50 124 -50c36 0 73 5 95 33c12 15 15 31 15 43c0 70 -65 74 -136 74h-34v54h50c46 0 105 4 105 61c0 39 -39 71 -104 71c-33 0 -108 -10 -111 -91l-67 14c0 3 7 36 18 56c26 48 79 78 163 78c100 0 174 -49 174 -126
c0 -32 -20 -74 -63 -85c55 -15 78 -61 78 -108c0 -72 -62 -134 -187 -134c-49 0 -135 10 -177 73c-14 21 -20 41 -24 64z" />
    <glyph glyph-name="four.numerator" horiz-adv-x="458" 
d="M429 350h-86v-104h-67v104h-255v57l267 281h55v-279h86v-59zM276 408v186l-176 -186h176z" />
    <glyph glyph-name="five.numerator" horiz-adv-x="458" 
d="M62 688h337v-60h-280l-6 -103c36 28 78 41 131 41c105 0 179 -65 179 -157c0 -98 -83 -169 -200 -169c-96 0 -162 42 -193 123l63 25c27 -65 81 -88 134 -88c71 0 122 43 122 103c0 62 -47 102 -117 102c-60 0 -101 -23 -130 -71l-53 9z" />
    <glyph glyph-name="six.numerator" horiz-adv-x="458" 
d="M426 605l-59 -29c-34 43 -67 60 -118 60c-87 0 -139 -57 -144 -159c31 43 80 65 146 65c106 0 179 -60 179 -147c0 -93 -74 -155 -185 -155c-131 0 -208 82 -208 222c0 143 82 231 214 231c74 0 129 -28 175 -88zM357 389c0 56 -46 92 -119 92c-68 0 -115 -37 -115 -91
c0 -53 50 -89 121 -89c69 0 113 34 113 88z" />
    <glyph glyph-name="seven.numerator" horiz-adv-x="458" 
d="M401 687v-42c-100 -101 -157 -221 -178 -399h-72c16 148 65 280 166 382h-259v59h343z" />
    <glyph glyph-name="eight.numerator" horiz-adv-x="458" 
d="M326 478c63 -12 99 -52 99 -108c0 -82 -74 -130 -200 -130c-118 0 -193 51 -193 130c0 60 40 95 93 108c-52 15 -78 47 -78 96c0 74 68 119 181 119c114 0 180 -44 180 -120c0 -47 -23 -77 -82 -95zM338 568c0 43 -38 68 -110 68c-68 0 -108 -25 -108 -67
c0 -43 38 -66 109 -66c70 0 109 23 109 65zM354 372c-1 50 -41 73 -127 73c-85 0 -122 -22 -122 -71s43 -74 128 -74c77 0 121 26 121 72z" />
    <glyph glyph-name="nine.numerator" horiz-adv-x="458" 
d="M32 328l59 31c35 -43 73 -62 124 -62c86 0 134 54 140 158c-30 -42 -78 -63 -144 -63c-105 0 -177 59 -177 145c0 93 75 156 184 156c131 0 207 -82 207 -222c0 -143 -81 -231 -215 -231c-75 0 -131 27 -178 88zM106 544c0 -56 45 -90 117 -90c69 0 116 35 116 88
s-50 90 -121 90c-68 0 -112 -35 -112 -88z" />
    <glyph glyph-name="period.numerator" horiz-adv-x="169" 
d="M124 246h-79v83h79v-83z" />
    <glyph glyph-name="comma.numerator" horiz-adv-x="169" 
d="M45 329h79v-88c0 -53 -26 -84 -79 -84v39c24 3 28 14 28 39v11h-28v83z" />
    <glyph glyph-name="hyphen.numerator" horiz-adv-x="250" 
d="M226 408h-202v65h202v-65z" />
    <glyph glyph-name="parenleft.numerator" horiz-adv-x="216" 
d="M216 194l-26 -27c-94 64 -160 169 -160 285s63 216 157 280l26 -27c-72 -75 -109 -131 -109 -241c0 -103 33 -202 112 -270z" />
    <glyph glyph-name="parenright.numerator" horiz-adv-x="216" 
d="M0 706l26 27c94 -64 160 -169 160 -285s-63 -216 -157 -280l-26 27c72 75 109 131 109 241c0 103 -33 202 -112 270z" />
    <glyph glyph-name="dollar.numerator" horiz-adv-x="503" 
d="M224 158v79c-63 3 -155 22 -206 101l65 35c32 -52 87 -69 141 -72v145c-43 3 -99 12 -137 36c-25 16 -46 47 -46 87c0 25 9 72 59 100c39 22 80 27 124 29v68h58v-69c54 -2 134 -19 183 -86l-64 -32c-22 27 -59 53 -119 58v-129c89 -7 143 -20 175 -63
c21 -29 21 -56 21 -69c0 -48 -22 -84 -64 -108s-88 -30 -134 -31v-79h-56zM224 514v126c-68 -3 -113 -18 -113 -64c0 -38 27 -54 113 -62zM281 441v-141c75 1 130 22 130 73c0 43 -33 61 -130 68z" />
    <glyph glyph-name="cent.numerator" horiz-adv-x="450" 
d="M436 459l-67 -16c-22 43 -59 55 -97 60v-208c31 3 81 16 102 54l62 -21c-39 -66 -106 -86 -164 -91v-79h-57v78c-138 6 -182 93 -182 162c0 108 91 157 182 163v69h57v-68c92 -7 136 -47 164 -103zM215 295v208c-86 -3 -114 -57 -114 -104c0 -57 33 -98 114 -104z" />
    <glyph glyph-name="sterling.numerator" horiz-adv-x="475" 
d="M459 393v-22c0 -56 -22 -131 -110 -131c-45 0 -84 25 -120 48c-33 -33 -79 -48 -117 -48c-58 0 -90 34 -90 73c0 42 27 76 88 76c34 0 59 -9 89 -23c0 36 -14 52 -37 79h-118v53h74c-9 10 -30 34 -30 77c0 88 80 128 173 128c100 0 141 -38 160 -71c17 -29 23 -60 24 -72
l-67 -14c-8 76 -53 100 -121 100c-59 0 -96 -25 -96 -73c0 -34 27 -56 44 -75h135v-54h-97c10 -21 18 -37 18 -63c0 -19 -3 -32 -6 -42c26 -16 60 -37 89 -37c44 0 52 32 52 91h63zM176 316c-17 10 -39 19 -63 19c-20 0 -33 -8 -33 -22c0 -16 17 -23 34 -23
c27 0 48 11 62 26z" />
    <glyph glyph-name="yen.numerator" horiz-adv-x="527" 
d="M522 688l-157 -189h91v-49h-133l-27 -32v-13h160v-50h-160v-109h-69v109h-160v49h160v14l-26 32h-134v49h95l-157 189h92l169 -215l171 215h85z" />
    <glyph glyph-name="florin.numerator" horiz-adv-x="241" 
d="M254 684l-8 -60c-15 4 -26 6 -36 6c-37 0 -50 -13 -53 -45l-4 -36h78l-7 -54h-78l-28 -257c-7 -61 -16 -85 -44 -105c-18 -13 -50 -19 -74 -19c-18 0 -32 2 -48 5l6 58c20 -5 27 -5 37 -5c46 0 51 27 54 49l31 274h-59l8 54h58l3 25c2 18 5 45 14 63c24 51 75 52 99 52
c19 0 34 -2 51 -5z" />
    <glyph glyph-name="Euro.numerator" horiz-adv-x="588" 
d="M565 632l-32 -65c-46 55 -118 77 -195 77c-97 0 -156 -38 -177 -105h353l-19 -49h-342c0 -12 0 -31 2 -45h324l-19 -50h-294c20 -60 73 -99 184 -99c80 0 153 21 204 72v-81c-60 -35 -127 -52 -209 -52c-142 0 -226 60 -254 160h-61l20 50h32c-1 10 -1 16 -1 24
s0 13 1 21h-52l20 49h39c27 102 113 164 256 164c97 0 179 -28 220 -71z" />
    <glyph glyph-name="zero.denominator" horiz-adv-x="458" 
d="M434 225c0 -140 -80 -231 -205 -231c-124 0 -204 93 -204 233c0 138 83 230 208 230c127 0 201 -91 201 -232zM362 222c0 106 -51 174 -131 174c-81 0 -134 -68 -134 -173c0 -101 53 -168 133 -168c81 0 132 65 132 167z" />
    <glyph glyph-name="one.denominator" horiz-adv-x="458" 
d="M284 0h-70v338c-29 -13 -54 -17 -112 -17h-9v49c77 2 112 26 138 73h53v-443z" />
    <glyph glyph-name="two.denominator" horiz-adv-x="458" 
d="M411 0h-364v69c109 48 223 118 251 149c12 14 31 40 31 75c0 34 -27 95 -107 95c-29 0 -113 -12 -113 -109v-14l-69 10c0 6 0 42 11 70c22 53 78 100 171 100c133 0 178 -92 178 -153c0 -44 -19 -76 -32 -92c-47 -59 -163 -118 -220 -140h263v-60z" />
    <glyph glyph-name="three.denominator" horiz-adv-x="458" 
d="M29 131l67 16c3 -18 7 -31 14 -43c23 -39 78 -50 124 -50c36 0 73 5 95 33c12 15 15 31 15 43c0 70 -65 74 -136 74h-34v54h50c46 0 105 4 105 61c0 39 -39 71 -104 71c-33 0 -108 -10 -111 -91l-67 14c0 3 7 36 18 56c26 48 79 78 163 78c100 0 174 -49 174 -126
c0 -32 -20 -74 -63 -85c55 -15 78 -61 78 -108c0 -72 -62 -134 -187 -134c-49 0 -135 10 -177 73c-14 21 -20 41 -24 64z" />
    <glyph glyph-name="four.denominator" horiz-adv-x="458" 
d="M429 104h-86v-104h-67v104h-255v57l267 281h55v-279h86v-59zM276 162v186l-176 -186h176z" />
    <glyph glyph-name="five.denominator" horiz-adv-x="458" 
d="M62 442h337v-60h-280l-6 -103c36 28 78 41 131 41c105 0 179 -65 179 -157c0 -98 -83 -169 -200 -169c-96 0 -162 42 -193 123l63 25c27 -65 81 -88 134 -88c71 0 122 43 122 103c0 62 -47 102 -117 102c-60 0 -101 -23 -130 -71l-53 9z" />
    <glyph glyph-name="six.denominator" horiz-adv-x="458" 
d="M426 359l-59 -29c-34 43 -67 60 -118 60c-87 0 -139 -57 -144 -159c31 43 80 65 146 65c106 0 179 -60 179 -147c0 -93 -74 -155 -185 -155c-131 0 -208 82 -208 222c0 143 82 231 214 231c74 0 129 -28 175 -88zM357 143c0 56 -46 92 -119 92c-68 0 -115 -37 -115 -91
c0 -53 50 -89 121 -89c69 0 113 34 113 88z" />
    <glyph glyph-name="seven.denominator" horiz-adv-x="458" 
d="M401 441v-42c-100 -101 -157 -221 -178 -399h-72c16 148 65 280 166 382h-259v59h343z" />
    <glyph glyph-name="eight.denominator" horiz-adv-x="458" 
d="M326 232c63 -12 99 -52 99 -108c0 -82 -74 -130 -200 -130c-118 0 -193 51 -193 130c0 60 40 95 93 108c-52 15 -78 47 -78 96c0 74 68 119 181 119c114 0 180 -44 180 -120c0 -47 -23 -77 -82 -95zM338 322c0 43 -38 68 -110 68c-68 0 -108 -25 -108 -67
c0 -43 38 -66 109 -66c70 0 109 23 109 65zM354 126c-1 50 -41 73 -127 73c-85 0 -122 -22 -122 -71s43 -74 128 -74c77 0 121 26 121 72z" />
    <glyph glyph-name="nine.denominator" horiz-adv-x="458" 
d="M32 82l59 31c35 -43 73 -62 124 -62c86 0 134 54 140 158c-30 -42 -78 -63 -144 -63c-105 0 -177 59 -177 145c0 93 75 156 184 156c131 0 207 -82 207 -222c0 -143 -81 -231 -215 -231c-75 0 -131 27 -178 88zM106 298c0 -56 45 -90 117 -90c69 0 116 35 116 88
s-50 90 -121 90c-68 0 -112 -35 -112 -88z" />
    <glyph glyph-name="period.denominator" horiz-adv-x="169" 
d="M124 0h-79v83h79v-83z" />
    <glyph glyph-name="comma.denominator" horiz-adv-x="169" 
d="M45 83h79v-88c0 -53 -26 -84 -79 -84v39c24 3 28 14 28 39v11h-28v83z" />
    <glyph glyph-name="hyphen.denominator" horiz-adv-x="250" 
d="M226 162h-202v65h202v-65z" />
    <glyph glyph-name="parenleft.denominator" horiz-adv-x="216" 
d="M216 -52l-26 -27c-94 64 -160 169 -160 285s63 216 157 280l26 -27c-72 -75 -109 -131 -109 -241c0 -103 33 -202 112 -270z" />
    <glyph glyph-name="parenright.denominator" horiz-adv-x="216" 
d="M0 460l26 27c94 -64 160 -169 160 -285s-63 -216 -157 -280l-26 27c72 75 109 131 109 241c0 103 -33 202 -112 270z" />
    <glyph glyph-name="dollar.denominator" horiz-adv-x="503" 
d="M224 -88v79c-63 3 -155 22 -206 101l65 35c32 -52 87 -69 141 -72v145c-43 3 -99 12 -137 36c-25 16 -46 47 -46 87c0 25 9 72 59 100c39 22 80 27 124 29v68h58v-69c54 -2 134 -19 183 -86l-64 -32c-22 27 -59 53 -119 58v-129c89 -7 143 -20 175 -63
c21 -29 21 -56 21 -69c0 -48 -22 -84 -64 -108s-88 -30 -134 -31v-79h-56zM224 268v126c-68 -3 -113 -18 -113 -64c0 -38 27 -54 113 -62zM281 195v-141c75 1 130 22 130 73c0 43 -33 61 -130 68z" />
    <glyph glyph-name="cent.denominator" horiz-adv-x="450" 
d="M436 213l-67 -16c-22 43 -59 55 -97 60v-208c31 3 81 16 102 54l62 -21c-39 -66 -106 -86 -164 -91v-79h-57v78c-138 6 -182 93 -182 162c0 108 91 157 182 163v69h57v-68c92 -7 136 -47 164 -103zM215 49v208c-86 -3 -114 -57 -114 -104c0 -57 33 -98 114 -104z" />
    <glyph glyph-name="sterling.denominator" horiz-adv-x="475" 
d="M459 147v-22c0 -56 -22 -131 -110 -131c-45 0 -84 25 -120 48c-33 -33 -79 -48 -117 -48c-58 0 -90 34 -90 73c0 42 27 76 88 76c34 0 59 -9 89 -23c0 36 -14 52 -37 79h-118v53h74c-9 10 -30 34 -30 77c0 88 80 128 173 128c100 0 141 -38 160 -71c17 -29 23 -60 24 -72
l-67 -14c-8 76 -53 100 -121 100c-59 0 -96 -25 -96 -73c0 -34 27 -56 44 -75h135v-54h-97c10 -21 18 -37 18 -63c0 -19 -3 -32 -6 -42c26 -16 60 -37 89 -37c44 0 52 32 52 91h63zM176 70c-17 10 -39 19 -63 19c-20 0 -33 -8 -33 -22c0 -16 17 -23 34 -23c27 0 48 11 62 26
z" />
    <glyph glyph-name="yen.denominator" horiz-adv-x="527" 
d="M522 442l-157 -189h91v-49h-133l-27 -32v-13h160v-50h-160v-109h-69v109h-160v49h160v14l-26 32h-134v49h95l-157 189h92l169 -215l171 215h85z" />
    <glyph glyph-name="florin.denominator" horiz-adv-x="241" 
d="M254 438l-8 -60c-15 4 -26 6 -36 6c-37 0 -50 -13 -53 -45l-4 -36h78l-7 -54h-78l-28 -257c-7 -61 -16 -85 -44 -105c-18 -13 -50 -19 -74 -19c-18 0 -32 2 -48 5l6 58c20 -5 27 -5 37 -5c46 0 51 27 54 49l31 274h-59l8 54h58l3 25c2 18 5 45 14 63c24 51 75 52 99 52
c19 0 34 -2 51 -5z" />
    <glyph glyph-name="Euro.denominator" horiz-adv-x="588" 
d="M565 386l-32 -65c-46 55 -118 77 -195 77c-97 0 -156 -38 -177 -105h353l-19 -49h-342c0 -12 0 -31 2 -45h324l-19 -50h-294c20 -60 73 -99 184 -99c80 0 153 21 204 72v-81c-60 -35 -127 -52 -209 -52c-142 0 -226 60 -254 160h-61l20 50h32c-1 10 -1 16 -1 24
s0 13 1 21h-52l20 49h39c27 102 113 164 256 164c97 0 179 -28 220 -71z" />
    <glyph glyph-name="zero.superior" unicode="&#x2070;" horiz-adv-x="458" 
d="M434 640c0 -140 -80 -231 -205 -231c-124 0 -204 93 -204 233c0 138 83 230 208 230c127 0 201 -91 201 -232zM362 637c0 106 -51 174 -131 174c-81 0 -134 -68 -134 -173c0 -101 53 -168 133 -168c81 0 132 65 132 167z" />
    <glyph glyph-name="one.superior" horiz-adv-x="458" 
d="M284 415h-70v338c-29 -13 -54 -17 -112 -17h-9v49c77 2 112 26 138 73h53v-443z" />
    <glyph glyph-name="two.superior" horiz-adv-x="458" 
d="M411 415h-364v69c109 48 223 118 251 149c12 14 31 40 31 75c0 34 -27 95 -107 95c-29 0 -113 -12 -113 -109v-14l-69 10c0 6 0 42 11 70c22 53 78 100 171 100c133 0 178 -92 178 -153c0 -44 -19 -76 -32 -92c-47 -59 -163 -118 -220 -140h263v-60z" />
    <glyph glyph-name="three.superior" horiz-adv-x="458" 
d="M29 546l67 16c3 -18 7 -31 14 -43c23 -39 78 -50 124 -50c36 0 73 5 95 33c12 15 15 31 15 43c0 70 -65 74 -136 74h-34v54h50c46 0 105 4 105 61c0 39 -39 71 -104 71c-33 0 -108 -10 -111 -91l-67 14c0 3 7 36 18 56c26 48 79 78 163 78c100 0 174 -49 174 -126
c0 -32 -20 -74 -63 -85c55 -15 78 -61 78 -108c0 -72 -62 -134 -187 -134c-49 0 -135 10 -177 73c-14 21 -20 41 -24 64z" />
    <glyph glyph-name="four.superior" unicode="&#x2074;" horiz-adv-x="458" 
d="M429 519h-86v-104h-67v104h-255v57l267 281h55v-279h86v-59zM276 577v186l-176 -186h176z" />
    <glyph glyph-name="five.superior" unicode="&#x2075;" horiz-adv-x="458" 
d="M62 857h337v-60h-280l-6 -103c36 28 78 41 131 41c105 0 179 -65 179 -157c0 -98 -83 -169 -200 -169c-96 0 -162 42 -193 123l63 25c27 -65 81 -88 134 -88c71 0 122 43 122 103c0 62 -47 102 -117 102c-60 0 -101 -23 -130 -71l-53 9z" />
    <glyph glyph-name="six.superior" unicode="&#x2076;" horiz-adv-x="458" 
d="M426 774l-59 -29c-34 43 -67 60 -118 60c-87 0 -139 -57 -144 -159c31 43 80 65 146 65c106 0 179 -60 179 -147c0 -93 -74 -155 -185 -155c-131 0 -208 82 -208 222c0 143 82 231 214 231c74 0 129 -28 175 -88zM357 558c0 56 -46 92 -119 92c-68 0 -115 -37 -115 -91
c0 -53 50 -89 121 -89c69 0 113 34 113 88z" />
    <glyph glyph-name="seven.superior" unicode="&#x2077;" horiz-adv-x="458" 
d="M401 856v-42c-100 -101 -157 -221 -178 -399h-72c16 148 65 280 166 382h-259v59h343z" />
    <glyph glyph-name="eight.superior" unicode="&#x2078;" horiz-adv-x="458" 
d="M326 647c63 -12 99 -52 99 -108c0 -82 -74 -130 -200 -130c-118 0 -193 51 -193 130c0 60 40 95 93 108c-52 15 -78 47 -78 96c0 74 68 119 181 119c114 0 180 -44 180 -120c0 -47 -23 -77 -82 -95zM338 737c0 43 -38 68 -110 68c-68 0 -108 -25 -108 -67
c0 -43 38 -66 109 -66c70 0 109 23 109 65zM354 541c-1 50 -41 73 -127 73c-85 0 -122 -22 -122 -71s43 -74 128 -74c77 0 121 26 121 72z" />
    <glyph glyph-name="nine.superior" unicode="&#x2079;" horiz-adv-x="458" 
d="M32 497l59 31c35 -43 73 -62 124 -62c86 0 134 54 140 158c-30 -42 -78 -63 -144 -63c-105 0 -177 59 -177 145c0 93 75 156 184 156c131 0 207 -82 207 -222c0 -143 -81 -231 -215 -231c-75 0 -131 27 -178 88zM106 713c0 -56 45 -90 117 -90c69 0 116 35 116 88
s-50 90 -121 90c-68 0 -112 -35 -112 -88z" />
    <glyph glyph-name="period.superior" horiz-adv-x="169" 
d="M124 415h-79v83h79v-83z" />
    <glyph glyph-name="comma.superior" horiz-adv-x="169" 
d="M45 498h79v-88c0 -53 -26 -84 -79 -84v39c24 3 28 14 28 39v11h-28v83z" />
    <glyph glyph-name="hyphen.superior" horiz-adv-x="250" 
d="M226 577h-202v65h202v-65z" />
    <glyph glyph-name="parenleft.superior" unicode="&#x207d;" horiz-adv-x="216" 
d="M216 363l-26 -27c-94 64 -160 169 -160 285s63 216 157 280l26 -27c-72 -75 -109 -131 -109 -241c0 -103 33 -202 112 -270z" />
    <glyph glyph-name="parenright.superior" unicode="&#x207e;" horiz-adv-x="216" 
d="M0 875l26 27c94 -64 160 -169 160 -285s-63 -216 -157 -280l-26 27c72 75 109 131 109 241c0 103 -33 202 -112 270z" />
    <glyph glyph-name="dollar.superior" horiz-adv-x="503" 
d="M224 327v79c-63 3 -155 22 -206 101l65 35c32 -52 87 -69 141 -72v145c-43 3 -99 12 -137 36c-25 16 -46 47 -46 87c0 25 9 72 59 100c39 22 80 27 124 29v68h58v-69c54 -2 134 -19 183 -86l-64 -32c-22 27 -59 53 -119 58v-129c89 -7 143 -20 175 -63
c21 -29 21 -56 21 -69c0 -48 -22 -84 -64 -108s-88 -30 -134 -31v-79h-56zM224 683v126c-68 -3 -113 -18 -113 -64c0 -38 27 -54 113 -62zM281 610v-141c75 1 130 22 130 73c0 43 -33 61 -130 68z" />
    <glyph glyph-name="cent.superior" horiz-adv-x="450" 
d="M436 628l-67 -16c-22 43 -59 55 -97 60v-208c31 3 81 16 102 54l62 -21c-39 -66 -106 -86 -164 -91v-79h-57v78c-138 6 -182 93 -182 162c0 108 91 157 182 163v69h57v-68c92 -7 136 -47 164 -103zM215 464v208c-86 -3 -114 -57 -114 -104c0 -57 33 -98 114 -104z" />
    <glyph glyph-name="sterling.superior" horiz-adv-x="475" 
d="M459 562v-22c0 -56 -22 -131 -110 -131c-45 0 -84 25 -120 48c-33 -33 -79 -48 -117 -48c-58 0 -90 34 -90 73c0 42 27 76 88 76c34 0 59 -9 89 -23c0 36 -14 52 -37 79h-118v53h74c-9 10 -30 34 -30 77c0 88 80 128 173 128c100 0 141 -38 160 -71c17 -29 23 -60 24 -72
l-67 -14c-8 76 -53 100 -121 100c-59 0 -96 -25 -96 -73c0 -34 27 -56 44 -75h135v-54h-97c10 -21 18 -37 18 -63c0 -19 -3 -32 -6 -42c26 -16 60 -37 89 -37c44 0 52 32 52 91h63zM176 485c-17 10 -39 19 -63 19c-20 0 -33 -8 -33 -22c0 -16 17 -23 34 -23
c27 0 48 11 62 26z" />
    <glyph glyph-name="yen.superior" horiz-adv-x="527" 
d="M522 857l-157 -189h91v-49h-133l-27 -32v-13h160v-50h-160v-109h-69v109h-160v49h160v14l-26 32h-134v49h95l-157 189h92l169 -215l171 215h85z" />
    <glyph glyph-name="florin.superior" horiz-adv-x="241" 
d="M254 853l-8 -60c-15 4 -26 6 -36 6c-37 0 -50 -13 -53 -45l-4 -36h78l-7 -54h-78l-28 -257c-7 -61 -16 -85 -44 -105c-18 -13 -50 -19 -74 -19c-18 0 -32 2 -48 5l6 58c20 -5 27 -5 37 -5c46 0 51 27 54 49l31 274h-59l8 54h58l3 25c2 18 5 45 14 63c24 51 75 52 99 52
c19 0 34 -2 51 -5z" />
    <glyph glyph-name="Euro.superior" horiz-adv-x="588" 
d="M565 801l-32 -65c-46 55 -118 77 -195 77c-97 0 -156 -38 -177 -105h353l-19 -49h-342c0 -12 0 -31 2 -45h324l-19 -50h-294c20 -60 73 -99 184 -99c80 0 153 21 204 72v-81c-60 -35 -127 -52 -209 -52c-142 0 -226 60 -254 160h-61l20 50h32c-1 10 -1 16 -1 24
s0 13 1 21h-52l20 49h39c27 102 113 164 256 164c97 0 179 -28 220 -71z" />
    <glyph glyph-name="zero.inferior" unicode="&#x2080;" horiz-adv-x="458" 
d="M434 75c0 -140 -80 -231 -205 -231c-124 0 -204 93 -204 233c0 138 83 230 208 230c127 0 201 -91 201 -232zM362 72c0 106 -51 174 -131 174c-81 0 -134 -68 -134 -173c0 -101 53 -168 133 -168c81 0 132 65 132 167z" />
    <glyph glyph-name="one.inferior" unicode="&#x2081;" horiz-adv-x="458" 
d="M284 -150h-70v338c-29 -13 -54 -17 -112 -17h-9v49c77 2 112 26 138 73h53v-443z" />
    <glyph glyph-name="two.inferior" unicode="&#x2082;" horiz-adv-x="458" 
d="M411 -150h-364v69c109 48 223 118 251 149c12 14 31 40 31 75c0 34 -27 95 -107 95c-29 0 -113 -12 -113 -109v-14l-69 10c0 6 0 42 11 70c22 53 78 100 171 100c133 0 178 -92 178 -153c0 -44 -19 -76 -32 -92c-47 -59 -163 -118 -220 -140h263v-60z" />
    <glyph glyph-name="three.inferior" unicode="&#x2083;" horiz-adv-x="458" 
d="M29 -19l67 16c3 -18 7 -31 14 -43c23 -39 78 -50 124 -50c36 0 73 5 95 33c12 15 15 31 15 43c0 70 -65 74 -136 74h-34v54h50c46 0 105 4 105 61c0 39 -39 71 -104 71c-33 0 -108 -10 -111 -91l-67 14c0 3 7 36 18 56c26 48 79 78 163 78c100 0 174 -49 174 -126
c0 -32 -20 -74 -63 -85c55 -15 78 -61 78 -108c0 -72 -62 -134 -187 -134c-49 0 -135 10 -177 73c-14 21 -20 41 -24 64z" />
    <glyph glyph-name="four.inferior" unicode="&#x2084;" horiz-adv-x="458" 
d="M429 -46h-86v-104h-67v104h-255v57l267 281h55v-279h86v-59zM276 12v186l-176 -186h176z" />
    <glyph glyph-name="five.inferior" unicode="&#x2085;" horiz-adv-x="458" 
d="M62 292h337v-60h-280l-6 -103c36 28 78 41 131 41c105 0 179 -65 179 -157c0 -98 -83 -169 -200 -169c-96 0 -162 42 -193 123l63 25c27 -65 81 -88 134 -88c71 0 122 43 122 103c0 62 -47 102 -117 102c-60 0 -101 -23 -130 -71l-53 9z" />
    <glyph glyph-name="six.inferior" unicode="&#x2086;" horiz-adv-x="458" 
d="M426 209l-59 -29c-34 43 -67 60 -118 60c-87 0 -139 -57 -144 -159c31 43 80 65 146 65c106 0 179 -60 179 -147c0 -93 -74 -155 -185 -155c-131 0 -208 82 -208 222c0 143 82 231 214 231c74 0 129 -28 175 -88zM357 -7c0 56 -46 92 -119 92c-68 0 -115 -37 -115 -91
c0 -53 50 -89 121 -89c69 0 113 34 113 88z" />
    <glyph glyph-name="seven.inferior" unicode="&#x2087;" horiz-adv-x="458" 
d="M401 291v-42c-100 -101 -157 -221 -178 -399h-72c16 148 65 280 166 382h-259v59h343z" />
    <glyph glyph-name="eight.inferior" unicode="&#x2088;" horiz-adv-x="458" 
d="M326 82c63 -12 99 -52 99 -108c0 -82 -74 -130 -200 -130c-118 0 -193 51 -193 130c0 60 40 95 93 108c-52 15 -78 47 -78 96c0 74 68 119 181 119c114 0 180 -44 180 -120c0 -47 -23 -77 -82 -95zM338 172c0 43 -38 68 -110 68c-68 0 -108 -25 -108 -67
c0 -43 38 -66 109 -66c70 0 109 23 109 65zM354 -24c-1 50 -41 73 -127 73c-85 0 -122 -22 -122 -71s43 -74 128 -74c77 0 121 26 121 72z" />
    <glyph glyph-name="nine.inferior" unicode="&#x2089;" horiz-adv-x="458" 
d="M32 -68l59 31c35 -43 73 -62 124 -62c86 0 134 54 140 158c-30 -42 -78 -63 -144 -63c-105 0 -177 59 -177 145c0 93 75 156 184 156c131 0 207 -82 207 -222c0 -143 -81 -231 -215 -231c-75 0 -131 27 -178 88zM106 148c0 -56 45 -90 117 -90c69 0 116 35 116 88
s-50 90 -121 90c-68 0 -112 -35 -112 -88z" />
    <glyph glyph-name="period.inferior" horiz-adv-x="169" 
d="M124 -150h-79v83h79v-83z" />
    <glyph glyph-name="comma.inferior" horiz-adv-x="169" 
d="M45 -67h79v-88c0 -53 -26 -84 -79 -84v39c24 3 28 14 28 39v11h-28v83z" />
    <glyph glyph-name="hyphen.inferior" horiz-adv-x="250" 
d="M226 12h-202v65h202v-65z" />
    <glyph glyph-name="parenleft.inferior" unicode="&#x208d;" horiz-adv-x="216" 
d="M216 -202l-26 -27c-94 64 -160 169 -160 285s63 216 157 280l26 -27c-72 -75 -109 -131 -109 -241c0 -103 33 -202 112 -270z" />
    <glyph glyph-name="parenright.inferior" unicode="&#x208e;" horiz-adv-x="216" 
d="M0 310l26 27c94 -64 160 -169 160 -285s-63 -216 -157 -280l-26 27c72 75 109 131 109 241c0 103 -33 202 -112 270z" />
    <glyph glyph-name="dollar.inferior" horiz-adv-x="503" 
d="M224 -238v79c-63 3 -155 22 -206 101l65 35c32 -52 87 -69 141 -72v145c-43 3 -99 12 -137 36c-25 16 -46 47 -46 87c0 25 9 72 59 100c39 22 80 27 124 29v68h58v-69c54 -2 134 -19 183 -86l-64 -32c-22 27 -59 53 -119 58v-129c89 -7 143 -20 175 -63
c21 -29 21 -56 21 -69c0 -48 -22 -84 -64 -108s-88 -30 -134 -31v-79h-56zM224 118v126c-68 -3 -113 -18 -113 -64c0 -38 27 -54 113 -62zM281 45v-141c75 1 130 22 130 73c0 43 -33 61 -130 68z" />
    <glyph glyph-name="cent.inferior" horiz-adv-x="450" 
d="M436 63l-67 -16c-22 43 -59 55 -97 60v-208c31 3 81 16 102 54l62 -21c-39 -66 -106 -86 -164 -91v-79h-57v78c-138 6 -182 93 -182 162c0 108 91 157 182 163v69h57v-68c92 -7 136 -47 164 -103zM215 -101v208c-86 -3 -114 -57 -114 -104c0 -57 33 -98 114 -104z" />
    <glyph glyph-name="sterling.inferior" horiz-adv-x="475" 
d="M459 -3v-22c0 -56 -22 -131 -110 -131c-45 0 -84 25 -120 48c-33 -33 -79 -48 -117 -48c-58 0 -90 34 -90 73c0 42 27 76 88 76c34 0 59 -9 89 -23c0 36 -14 52 -37 79h-118v53h74c-9 10 -30 34 -30 77c0 88 80 128 173 128c100 0 141 -38 160 -71c17 -29 23 -60 24 -72
l-67 -14c-8 76 -53 100 -121 100c-59 0 -96 -25 -96 -73c0 -34 27 -56 44 -75h135v-54h-97c10 -21 18 -37 18 -63c0 -19 -3 -32 -6 -42c26 -16 60 -37 89 -37c44 0 52 32 52 91h63zM176 -80c-17 10 -39 19 -63 19c-20 0 -33 -8 -33 -22c0 -16 17 -23 34 -23
c27 0 48 11 62 26z" />
    <glyph glyph-name="yen.inferior" horiz-adv-x="527" 
d="M522 292l-157 -189h91v-49h-133l-27 -32v-13h160v-50h-160v-109h-69v109h-160v49h160v14l-26 32h-134v49h95l-157 189h92l169 -215l171 215h85z" />
    <glyph glyph-name="florin.inferior" horiz-adv-x="241" 
d="M254 288l-8 -60c-15 4 -26 6 -36 6c-37 0 -50 -13 -53 -45l-4 -36h78l-7 -54h-78l-28 -257c-7 -61 -16 -85 -44 -105c-18 -13 -50 -19 -74 -19c-18 0 -32 2 -48 5l6 58c20 -5 27 -5 37 -5c46 0 51 27 54 49l31 274h-59l8 54h58l3 25c2 18 5 45 14 63c24 51 75 52 99 52
c19 0 34 -2 51 -5z" />
    <glyph glyph-name="Euro.inferior" horiz-adv-x="588" 
d="M565 236l-32 -65c-46 55 -118 77 -195 77c-97 0 -156 -38 -177 -105h353l-19 -49h-342c0 -12 0 -31 2 -45h324l-19 -50h-294c20 -60 73 -99 184 -99c80 0 153 21 204 72v-81c-60 -35 -127 -52 -209 -52c-142 0 -226 60 -254 160h-61l20 50h32c-1 10 -1 16 -1 24
s0 13 1 21h-52l20 49h39c27 102 113 164 256 164c97 0 179 -28 220 -71z" />
    <glyph glyph-name="zero.fitted" horiz-adv-x="687" 
d="M656 340c0 -247 -153 -356 -314 -356c-235 0 -311 201 -311 364c0 191 111 354 311 354c269 0 314 -248 314 -362zM132 336c0 -121 56 -271 212 -271c129 0 212 110 212 276c0 189 -99 280 -209 280c-126 0 -215 -106 -215 -285z" />
    <glyph glyph-name="one.fitted" horiz-adv-x="429" 
d="M313 0h-99v537c-53 -24 -83 -29 -191 -33v68h10c87 0 167 36 205 115h75v-687z" />
    <glyph glyph-name="two.fitted" horiz-adv-x="637" 
d="M606 0h-564v94c90 45 180 90 266 143c79 49 181 110 181 216c0 104 -82 162 -180 162c-21 0 -101 -3 -146 -63c-31 -41 -33 -86 -35 -134l-97 15c2 22 3 44 8 66c6 30 25 89 87 138c31 24 91 61 187 61c29 0 105 -2 174 -50c62 -43 102 -117 102 -193
c0 -31 -5 -94 -56 -154c-79 -93 -266 -183 -355 -219h428v-82z" />
    <glyph glyph-name="three.fitted" horiz-adv-x="662" 
d="M250 323v74h75c65 0 170 8 170 103c0 82 -77 124 -166 124c-148 0 -185 -92 -186 -134l-92 17c19 86 70 194 278 194c109 0 268 -40 268 -193c0 -28 -6 -105 -104 -138c52 -22 132 -62 132 -173c0 -171 -177 -211 -289 -211c-167 0 -280 52 -312 200l94 22
c19 -120 127 -141 218 -141c136 0 186 65 186 132c0 89 -66 124 -179 124h-93z" />
    <glyph glyph-name="four.fitted" horiz-adv-x="666" 
d="M637 166h-118v-166h-94v166h-400v79l415 443h78v-443h119v-79zM425 245v316c-17 -21 -31 -37 -292 -316h292z" />
    <glyph glyph-name="five.fitted" horiz-adv-x="672" 
d="M80 688h528l-5 -85h-448l-11 -183c50 43 119 72 214 72c179 0 283 -112 283 -241c0 -138 -115 -265 -309 -265c-178 0 -272 97 -301 193l94 20c35 -79 100 -133 214 -133c144 0 202 95 202 178c0 133 -121 168 -195 168c-85 0 -172 -39 -209 -114l-77 15z" />
    <glyph glyph-name="six.fitted" horiz-adv-x="676" 
d="M648 562l-93 -35c-37 58 -107 93 -184 93c-28 0 -112 -6 -173 -73c-54 -59 -69 -144 -69 -217c25 72 118 130 240 130c151 0 285 -74 285 -231c0 -136 -105 -245 -291 -245c-244 0 -323 180 -323 354c0 265 177 363 339 363c124 0 221 -67 269 -139zM559 223
c0 111 -108 157 -202 157c-129 0 -198 -72 -198 -157c0 -119 121 -157 209 -157c96 0 191 44 191 157z" />
    <glyph glyph-name="seven.fitted" horiz-adv-x="564" 
d="M-5 688h548v-65c-194 -177 -249 -415 -260 -464c-12 -53 -19 -106 -25 -159h-109c9 67 23 182 94 337c5 11 40 84 85 148c39 56 81 100 97 118h-430v85z" />
    <glyph glyph-name="eight.fitted" horiz-adv-x="665" 
d="M482 360c26 -6 47 -11 70 -24c52 -30 82 -85 82 -145c0 -154 -152 -207 -307 -207c-140 0 -296 53 -296 207c0 84 50 126 76 142c28 17 59 25 68 28c-80 23 -121 77 -121 150c0 20 3 62 35 103c58 75 163 87 248 87c190 0 271 -86 271 -187c0 -33 -10 -69 -30 -95
c-25 -33 -60 -46 -96 -59zM336 624h-12c-98 0 -170 -33 -170 -115c0 -70 54 -115 180 -115c121 0 174 49 174 113c0 46 -25 117 -172 117zM344 318h-24c-114 0 -190 -38 -190 -123c0 -50 31 -128 197 -128h29c91 0 179 38 179 123c0 57 -37 128 -191 128z" />
    <glyph glyph-name="nine.fitted" horiz-adv-x="681" 
d="M24 150l89 36c2 -3 13 -25 23 -39c43 -59 99 -83 171 -83c117 0 203 67 234 179c10 37 10 71 11 84c-18 -19 -38 -40 -88 -64c-69 -34 -127 -36 -157 -36c-144 0 -284 76 -284 233c0 22 3 77 39 128c34 49 118 113 264 113c131 0 206 -53 241 -94c38 -43 75 -118 75 -249
c0 -274 -164 -374 -334 -374c-125 0 -200 57 -234 92c-29 31 -43 59 -50 74zM533 466c0 91 -77 156 -201 156c-128 0 -210 -64 -210 -160c0 -75 61 -157 199 -157c106 0 212 57 212 161z" />
    <glyph glyph-name="oneeighth" unicode="&#x215b;" horiz-adv-x="1042" 
d="M696 670l-432 -682l-49 30l431 683zM276 246h-70v338c-29 -13 -54 -17 -112 -17h-9v49c77 2 112 26 138 73h53v-443zM875 232c63 -12 99 -52 99 -108c0 -82 -74 -130 -200 -130c-118 0 -193 51 -193 130c0 60 40 95 93 108c-52 15 -78 47 -78 96c0 74 68 119 181 119
c114 0 180 -44 180 -120c0 -47 -23 -77 -82 -95zM887 322c0 43 -38 68 -110 68c-68 0 -108 -25 -108 -67c0 -43 38 -66 109 -66c70 0 109 23 109 65zM903 126c-1 50 -41 73 -127 73c-85 0 -122 -22 -122 -71s43 -74 128 -74c77 0 121 26 121 72z" />
    <glyph glyph-name="threeeighths" unicode="&#x215c;" horiz-adv-x="1042" 
d="M757 670l-432 -682l-49 30l431 683zM904 232c63 -12 99 -52 99 -108c0 -82 -74 -130 -200 -130c-118 0 -193 51 -193 130c0 60 40 95 93 108c-52 15 -78 47 -78 96c0 74 68 119 181 119c114 0 180 -44 180 -120c0 -47 -23 -77 -82 -95zM916 322c0 43 -38 68 -110 68
c-68 0 -108 -25 -108 -67c0 -43 38 -66 109 -66c70 0 109 23 109 65zM932 126c-1 50 -41 73 -127 73c-85 0 -122 -22 -122 -71s43 -74 128 -74c77 0 121 26 121 72zM21 377l67 16c3 -18 7 -31 14 -43c23 -39 78 -50 124 -50c36 0 73 5 95 33c12 15 15 31 15 43
c0 70 -65 74 -136 74h-34v54h50c46 0 105 4 105 61c0 39 -39 71 -104 71c-33 0 -108 -10 -111 -91l-67 14c0 3 7 36 18 56c26 48 79 78 163 78c100 0 174 -49 174 -126c0 -32 -20 -74 -63 -85c55 -15 78 -61 78 -108c0 -72 -62 -134 -187 -134c-49 0 -135 10 -177 73
c-14 21 -20 41 -24 64z" />
    <glyph glyph-name="fiveeighths" unicode="&#x215d;" horiz-adv-x="1042" 
d="M764 670l-432 -682l-49 30l431 683zM915 232c63 -12 99 -52 99 -108c0 -82 -74 -130 -200 -130c-118 0 -193 51 -193 130c0 60 40 95 93 108c-52 15 -78 47 -78 96c0 74 68 119 181 119c114 0 180 -44 180 -120c0 -47 -23 -77 -82 -95zM927 322c0 43 -38 68 -110 68
c-68 0 -108 -25 -108 -67c0 -43 38 -66 109 -66c70 0 109 23 109 65zM943 126c-1 50 -41 73 -127 73c-85 0 -122 -22 -122 -71s43 -74 128 -74c77 0 121 26 121 72zM62 688h337v-60h-280l-6 -103c36 28 78 41 131 41c105 0 179 -65 179 -157c0 -98 -83 -169 -200 -169
c-96 0 -162 42 -193 123l63 25c27 -65 81 -88 134 -88c71 0 122 43 122 103c0 62 -47 102 -117 102c-60 0 -101 -23 -130 -71l-53 9z" />
    <glyph glyph-name="seveneighths" unicode="&#x215e;" horiz-adv-x="1042" 
d="M690 670l-432 -682l-49 30l431 683zM893 232c63 -12 99 -52 99 -108c0 -82 -74 -130 -200 -130c-118 0 -193 51 -193 130c0 60 40 95 93 108c-52 15 -78 47 -78 96c0 74 68 119 181 119c114 0 180 -44 180 -120c0 -47 -23 -77 -82 -95zM905 322c0 43 -38 68 -110 68
c-68 0 -108 -25 -108 -67c0 -43 38 -66 109 -66c70 0 109 23 109 65zM921 126c-1 50 -41 73 -127 73c-85 0 -122 -22 -122 -71s43 -74 128 -74c77 0 121 26 121 72zM401 687v-42c-100 -101 -157 -221 -178 -399h-72c16 148 65 280 166 382h-259v59h343z" />
    <glyph glyph-name="onethird" unicode="&#x2153;" horiz-adv-x="1042" 
d="M710 670l-432 -682l-49 30l431 683zM284 246h-70v338c-29 -13 -54 -17 -112 -17h-9v49c77 2 112 26 138 73h53v-443zM594 131l67 16c3 -18 7 -31 14 -43c23 -39 78 -50 124 -50c36 0 73 5 95 33c12 15 15 31 15 43c0 70 -65 74 -136 74h-34v54h50c46 0 105 4 105 61
c0 39 -39 71 -104 71c-33 0 -108 -10 -111 -91l-67 14c0 3 7 36 18 56c26 48 79 78 163 78c100 0 174 -49 174 -126c0 -32 -20 -74 -63 -85c55 -15 78 -61 78 -108c0 -72 -62 -134 -187 -134c-49 0 -135 10 -177 73c-14 21 -20 41 -24 64z" />
    <glyph glyph-name="twothirds" unicode="&#x2154;" horiz-adv-x="1042" 
d="M787 670l-432 -682l-49 30l431 683zM411 246h-364v69c109 48 223 118 251 149c12 14 31 40 31 75c0 34 -27 95 -107 95c-29 0 -113 -12 -113 -109v-14l-69 10c0 6 0 42 11 70c22 53 78 100 171 100c133 0 178 -92 178 -153c0 -44 -19 -76 -32 -92
c-47 -59 -163 -118 -220 -140h263v-60zM618 131l67 16c3 -18 7 -31 14 -43c23 -39 78 -50 124 -50c36 0 73 5 95 33c12 15 15 31 15 43c0 70 -65 74 -136 74h-34v54h50c46 0 105 4 105 61c0 39 -39 71 -104 71c-33 0 -108 -10 -111 -91l-67 14c0 3 7 36 18 56
c26 48 79 78 163 78c100 0 174 -49 174 -126c0 -32 -20 -74 -63 -85c55 -15 78 -61 78 -108c0 -72 -62 -134 -187 -134c-49 0 -135 10 -177 73c-14 21 -20 41 -24 64z" />
    <glyph glyph-name="onefifth" horiz-adv-x="1042" 
d="M686 670l-432 -682l-49 30l431 683zM264 246h-70v338c-29 -13 -54 -17 -112 -17h-9v49c77 2 112 26 138 73h53v-443zM625 442h337v-60h-280l-6 -103c36 28 78 41 131 41c105 0 179 -65 179 -157c0 -98 -83 -169 -200 -169c-96 0 -162 42 -193 123l63 25
c27 -65 81 -88 134 -88c71 0 122 43 122 103c0 62 -47 102 -117 102c-60 0 -101 -23 -130 -71l-53 9z" />
    <glyph glyph-name="twofifths" horiz-adv-x="1042" 
d="M766 670l-432 -682l-49 30l431 683zM663 442h337v-60h-280l-6 -103c36 28 78 41 131 41c105 0 179 -65 179 -157c0 -98 -83 -169 -200 -169c-96 0 -162 42 -193 123l63 25c27 -65 81 -88 134 -88c71 0 122 43 122 103c0 62 -47 102 -117 102c-60 0 -101 -23 -130 -71
l-53 9zM401 246h-364v69c109 48 223 118 251 149c12 14 31 40 31 75c0 34 -27 95 -107 95c-29 0 -113 -12 -113 -109v-14l-69 10c0 6 0 42 11 70c22 53 78 100 171 100c133 0 178 -92 178 -153c0 -44 -19 -76 -32 -92c-47 -59 -163 -118 -220 -140h263v-60z" />
    <glyph glyph-name="threefifths" horiz-adv-x="1042" 
d="M753 670l-432 -682l-49 30l431 683zM656 442h337v-60h-280l-6 -103c36 28 78 41 131 41c105 0 179 -65 179 -157c0 -98 -83 -169 -200 -169c-96 0 -162 42 -193 123l63 25c27 -65 81 -88 134 -88c71 0 122 43 122 103c0 62 -47 102 -117 102c-60 0 -101 -23 -130 -71
l-53 9zM29 377l67 16c3 -18 7 -31 14 -43c23 -39 78 -50 124 -50c36 0 73 5 95 33c12 15 15 31 15 43c0 70 -65 74 -136 74h-34v54h50c46 0 105 4 105 61c0 39 -39 71 -104 71c-33 0 -108 -10 -111 -91l-67 14c0 3 7 36 18 56c26 48 79 78 163 78c100 0 174 -49 174 -126
c0 -32 -20 -74 -63 -85c55 -15 78 -61 78 -108c0 -72 -62 -134 -187 -134c-49 0 -135 10 -177 73c-14 21 -20 41 -24 64z" />
    <glyph glyph-name="fourfifths" horiz-adv-x="1042" 
d="M754 670l-432 -682l-49 30l431 683zM663 442h337v-60h-280l-6 -103c36 28 78 41 131 41c105 0 179 -65 179 -157c0 -98 -83 -169 -200 -169c-96 0 -162 42 -193 123l63 25c27 -65 81 -88 134 -88c71 0 122 43 122 103c0 62 -47 102 -117 102c-60 0 -101 -23 -130 -71
l-53 9zM423 350h-86v-104h-67v104h-255v57l267 281h55v-279h86v-59zM270 408v186l-176 -186h176z" />
    <glyph glyph-name="braceleft.cap" horiz-adv-x="344" 
d="M315 -115h-65c-114 0 -141 56 -141 143v180c0 79 -18 98 -94 101v74c66 2 95 18 95 94v184c0 87 20 147 140 147h65v-70h-38c-50 0 -68 -21 -68 -65v-194c0 -92 -35 -114 -91 -132c70 -25 90 -54 90 -137v-185c0 -49 19 -71 71 -71h36v-69z" />
    <glyph glyph-name="braceright.cap" horiz-adv-x="344" 
d="M28 807h65c113 0 141 -56 141 -139v-185c0 -76 14 -95 94 -100v-74c-65 -2 -95 -15 -95 -96v-181c0 -88 -19 -148 -141 -148h-64v70h38c50 0 68 20 68 64v195c0 92 35 114 91 132c-70 26 -90 50 -90 133v194c0 42 -19 66 -71 66h-36v69z" />
    <glyph glyph-name="bracketleft.cap" horiz-adv-x="375" 
d="M341 729h-122v-766h120v-76h-219v918h221v-76z" />
    <glyph glyph-name="bracketright.cap" horiz-adv-x="375" 
d="M255 -113h-221v76h122v766h-120v76h219v-918z" />
    <glyph glyph-name="emdash.cap" horiz-adv-x="932" 
d="M897 309h-862v82h862v-82z" />
    <glyph glyph-name="endash.cap" horiz-adv-x="626" 
d="M591 309h-556v82h556v-82z" />
    <glyph glyph-name="guillemotleft.cap" horiz-adv-x="500" 
d="M448 144l-203 159v86l203 158v-63l-128 -139l128 -137v-64zM247 144l-203 159v85l203 159v-65l-128 -137l128 -137v-64z" />
    <glyph glyph-name="guillemotright.cap" horiz-adv-x="500" 
d="M454 302l-202 -159v64l128 138l-128 137v65l202 -159v-86zM253 303l-202 -161v64l129 139l-129 137v64l202 -160v-83z" />
    <glyph glyph-name="guilsinglleft.cap" horiz-adv-x="292" 
d="M243 144l-202 159v86l202 158v-63l-128 -139l128 -137v-64z" />
    <glyph glyph-name="guilsinglright.cap" horiz-adv-x="292" 
d="M250 302l-203 -159v64l129 138l-129 137v65l203 -159v-86z" />
    <glyph glyph-name="hyphen.cap" horiz-adv-x="385" 
d="M350 309h-315v82h315v-82z" />
    <glyph glyph-name="parenleft.cap" horiz-adv-x="333" 
d="M325 -70l-32 -31c-55 44 -108 89 -151 146c-66 87 -103 197 -103 306c0 184 101 343 250 444l29 -30c-118 -119 -181 -221 -181 -395c0 -122 32 -245 103 -346c25 -35 54 -65 85 -94z" />
    <glyph glyph-name="parenright.cap" horiz-adv-x="333" 
d="M8 766l32 31c55 -45 108 -89 151 -146c67 -89 104 -200 104 -311c0 -181 -104 -339 -251 -439l-29 30c117 118 182 220 182 393c0 123 -33 247 -104 348c-25 35 -54 65 -85 94z" />
    <glyph glyph-name="periodcentered.cap" horiz-adv-x="250" 
d="M179 294h-110v109h110v-109z" />
    <glyph glyph-name="afii10017" unicode="&#x410;" horiz-adv-x="833" 
d="M834 0h-116l-86 174h-434l-86 -174h-113l366 706h107zM589 255l-173 350l-176 -350h349z" />
    <glyph glyph-name="afii10018" unicode="&#x411;" horiz-adv-x="888" 
d="M81 706h695v-86h-593v-204h332c191 0 329 -31 329 -211c0 -163 -113 -205 -249 -205h-514v706zM183 332v-246h415c95 0 141 46 141 119c0 114 -94 127 -186 127h-370z" />
    <glyph glyph-name="afii10019" unicode="&#x412;" horiz-adv-x="896" 
d="M85 0v706h464c99 0 254 -20 254 -183c0 -119 -89 -139 -99 -145c70 -22 134 -77 134 -181c0 -19 -1 -61 -30 -105c-60 -91 -175 -92 -270 -92h-453zM186 408h369c46 0 95 1 125 44c7 10 19 32 19 64c0 18 -4 60 -47 87c-35 22 -76 22 -115 22h-351v-217zM186 82h382
c52 0 107 5 142 50c10 12 23 37 23 72c0 15 0 42 -20 71c-34 49 -91 52 -145 52h-382v-245z" />
    <glyph glyph-name="afii10020" unicode="&#x413;" horiz-adv-x="667" 
d="M661 706v-86h-478v-620h-102v706h580z" />
    <glyph glyph-name="afii10021" unicode="&#x414;" horiz-adv-x="942" 
d="M801 706v-620h97v-236h-96v150h-694v-150h-96v236c10 0 28 2 37 7c71 35 141 163 141 427v186h611zM286 620v-74c0 -179 -18 -362 -115 -460h528v534h-413z" />
    <glyph glyph-name="afii10022" unicode="&#x415;" horiz-adv-x="792" 
d="M762 0h-677v706h651v-87h-551v-210h537v-84h-537v-238h577v-87z" />
    <glyph glyph-name="afii10024" unicode="&#x416;" horiz-adv-x="1140" 
d="M621 706v-290h90c127 0 164 67 190 144c15 44 25 96 51 146h108c-39 -58 -54 -125 -74 -180c-22 -62 -50 -122 -128 -145c119 -22 150 -115 172 -206c14 -57 28 -115 66 -175h-107c-33 44 -44 94 -55 143c-22 96 -50 192 -224 192h-89v-335h-102v335h-90
c-174 0 -201 -96 -223 -192c-11 -49 -22 -99 -55 -143h-107c38 60 50 118 66 175c24 90 53 184 171 206c-78 23 -106 83 -128 145c-20 55 -36 122 -73 180h107c26 -50 37 -102 52 -146c26 -77 62 -144 189 -144h91v290h102z" />
    <glyph glyph-name="afii10025" unicode="&#x417;" horiz-adv-x="800" 
d="M143 525l-95 36c40 104 152 165 354 165c235 0 329 -75 329 -193c0 -72 -38 -134 -132 -156c87 -11 157 -59 157 -168c0 -163 -155 -228 -368 -228c-121 0 -319 43 -372 196l101 32c26 -57 103 -142 285 -142c131 0 251 44 251 142s-96 116 -183 116h-203v84h211
c60 0 149 28 149 111c0 85 -95 120 -230 120c-109 0 -220 -22 -254 -115z" />
    <glyph glyph-name="afii10026" unicode="&#x418;" horiz-adv-x="912" 
d="M81 0v706h102v-524l546 454v70h102v-706h-102v532l-546 -454v-78h-102z" />
    <glyph glyph-name="afii10027" unicode="&#x419;" horiz-adv-x="912" 
d="M81 0v706h102v-524l546 454v70h102v-706h-102v532l-546 -454v-78h-102zM582 895l75 -25c-21 -81 -102 -110 -202 -110c-101 0 -181 29 -202 110l75 25c7 -23 38 -63 127 -63c78 0 112 23 127 63z" />
    <glyph glyph-name="afii10028" unicode="&#x41a;" horiz-adv-x="861" 
d="M81 706h102v-290h251c149 0 184 77 212 162c13 39 24 84 49 128h108c-34 -49 -50 -105 -66 -152c-24 -72 -51 -145 -142 -173c128 -24 153 -130 176 -227c12 -50 26 -100 62 -154h-108c-42 58 -48 131 -70 195c-25 74 -67 140 -208 140h-264v-335h-102v706z" />
    <glyph glyph-name="afii10029" unicode="&#x41b;" horiz-adv-x="850" 
d="M769 0h-102v620h-406v-89c0 -405 -27 -531 -224 -531h-25v86h25c106 0 128 85 128 457v163h604v-706z" />
    <glyph glyph-name="afii10030" unicode="&#x41c;" horiz-adv-x="1000" 
d="M934 0h-95c0 37 5 606 5 606l-289 -606h-94l-288 606s5 -580 5 -606h-94v706h138l288 -598l288 598h136v-706z" />
    <glyph glyph-name="afii10031" unicode="&#x41d;" horiz-adv-x="917" 
d="M828 0h-101v334h-541v-334h-102v706h101v-288h541v288h102v-706z" />
    <glyph glyph-name="afii10032" unicode="&#x41e;" horiz-adv-x="958" 
d="M906 343c0 -198 -148 -362 -426 -362c-262 0 -432 134 -432 364c0 254 203 378 426 378c208 0 432 -114 432 -380zM805 353c0 128 -83 284 -331 284c-171 0 -326 -88 -326 -288c0 -175 126 -281 334 -281c242 0 323 145 323 285z" />
    <glyph glyph-name="afii10033" unicode="&#x41f;" horiz-adv-x="887" 
d="M806 0h-102v620h-521v-620h-102v706h725v-706z" />
    <glyph glyph-name="afii10034" unicode="&#x420;" horiz-adv-x="812" 
d="M83 0v706h443c63 0 175 -7 236 -95c24 -35 36 -78 36 -121c0 -28 -5 -107 -74 -159c-61 -47 -127 -48 -200 -48h-339v-283h-102zM184 367h326c55 0 115 2 153 49c11 13 26 38 26 80c0 13 -1 46 -25 76c-40 50 -108 50 -165 50h-315v-255z" />
    <glyph glyph-name="afii10035" unicode="&#x421;" horiz-adv-x="917" 
d="M781 215l106 -22c-83 -172 -262 -211 -410 -211c-240 0 -428 124 -428 376c0 220 159 369 426 369c168 0 316 -57 397 -205l-107 -23c-55 103 -172 140 -286 140c-156 0 -324 -69 -324 -280c0 -198 147 -289 336 -289c97 0 226 24 290 145z" />
    <glyph glyph-name="afii10036" unicode="&#x422;" horiz-adv-x="708" 
d="M691 622h-289v-622h-100v622h-288v84h677v-84z" />
    <glyph glyph-name="afii10037" unicode="&#x423;" horiz-adv-x="768" 
d="M129 706l299 -457l225 457h110l-266 -513c-68 -132 -118 -202 -259 -202c-41 0 -69 4 -96 11v84c23 -4 63 -11 96 -11c63 0 108 26 132 85l-365 546h124z" />
    <glyph glyph-name="afii10038" unicode="&#x424;" horiz-adv-x="1022" 
d="M562 726v-86c362 0 416 -143 416 -279c0 -135 -56 -276 -416 -276v-95h-102v95c-363 0 -416 132 -416 276c0 136 54 279 416 279v86h102zM463 169v387c-257 0 -314 -78 -314 -193c0 -117 57 -194 314 -194zM559 556v-387c257 0 314 77 314 194c0 115 -56 193 -314 193z
" />
    <glyph glyph-name="afii10039" unicode="&#x425;" horiz-adv-x="854" 
d="M854 0h-141l-290 309l-288 -309h-137l361 374l-317 332h138l244 -267l247 267h137l-323 -331z" />
    <glyph glyph-name="afii10040" unicode="&#x426;" horiz-adv-x="947" 
d="M806 706v-620h97v-236h-96v150h-726v706h102v-620h521v620h102z" />
    <glyph glyph-name="afii10041" unicode="&#x427;" horiz-adv-x="800" 
d="M719 706v-706h-102v281c-77 -14 -147 -31 -233 -31c-227 0 -329 63 -329 203v253h102v-224c0 -125 93 -146 231 -146c83 0 161 11 229 26v344h102z" />
    <glyph glyph-name="afii10042" unicode="&#x428;" horiz-adv-x="1180" 
d="M641 706v-620h356v620h102v-706h-1018v706h102v-620h356v620h102z" />
    <glyph glyph-name="afii10043" unicode="&#x429;" horiz-adv-x="1240" 
d="M641 706v-620h356v620h102v-620h97v-236h-96v150h-1019v706h102v-620h356v620h102z" />
    <glyph glyph-name="afii10044" unicode="&#x42a;" horiz-adv-x="995" 
d="M325 706v-286h376c161 0 266 -62 266 -210c0 -163 -118 -210 -249 -210h-495v620h-211v86h313zM325 334v-248h382c96 0 155 39 155 124c0 97 -72 124 -187 124h-350z" />
    <glyph glyph-name="afii10045" unicode="&#x42b;" horiz-adv-x="1050" 
d="M81 706h102v-286h334c171 0 266 -65 266 -210c0 -163 -93 -210 -295 -210h-407v706zM183 335v-251h354c96 0 141 53 141 126c0 100 -62 125 -186 125h-309zM969 0h-102v706h102v-706z" />
    <glyph glyph-name="afii10046" unicode="&#x42c;" horiz-adv-x="852" 
d="M81 706h102v-284h375c180 0 266 -71 266 -211c0 -164 -105 -211 -300 -211h-443v706zM183 336v-250h395c95 0 141 49 141 125c0 98 -55 125 -186 125h-350z" />
    <glyph glyph-name="afii10047" unicode="&#x42d;" horiz-adv-x="851" 
d="M272 319v84h426c-8 141 -139 239 -301 239c-106 0 -204 -31 -266 -144l-98 28c72 147 234 202 365 202c226 0 409 -136 409 -373c0 -234 -170 -375 -408 -375c-219 0 -340 121 -383 216l99 29c52 -109 174 -159 280 -159c155 0 297 77 306 253h-429z" />
    <glyph glyph-name="afii10048" unicode="&#x42e;" horiz-adv-x="1249" 
d="M183 414h185c29 220 220 314 416 314c237 0 421 -130 421 -371c0 -237 -184 -377 -421 -377c-212 0 -409 123 -420 350h-181v-330h-102v706h102v-292zM471 350c0 -185 157 -284 315 -284c223 0 314 137 314 291c0 148 -115 285 -316 285c-156 0 -313 -80 -313 -292z" />
    <glyph glyph-name="afii10049" unicode="&#x42f;" horiz-adv-x="892" 
d="M811 706v-706h-102v298h-275c-128 0 -177 -56 -202 -123c-21 -56 -33 -123 -84 -175h-120c58 47 76 119 98 180c22 64 51 129 130 142c-129 6 -187 74 -187 175c0 139 88 209 222 209h520zM709 382v240h-388c-82 0 -147 -29 -147 -122c0 -103 97 -118 182 -118h353z" />
    <glyph glyph-name="afii10065" unicode="&#x430;" horiz-adv-x="688" 
d="M681 0c-28 -2 -56 -5 -84 -5c-83 0 -90 47 -94 83c-18 -36 -89 -96 -235 -96c-186 0 -229 100 -229 168c0 84 60 120 86 131c47 21 123 23 238 23h139v12c0 60 -1 118 -162 118c-73 0 -152 -13 -173 -64l-96 9c1 4 10 30 22 48c19 28 61 76 242 76c14 0 83 -1 139 -15
c13 -3 64 -14 93 -53c24 -32 24 -65 24 -102v-195c0 -56 9 -75 55 -75c9 0 35 3 35 3v-66zM503 231h-179c-96 0 -190 0 -190 -80c0 -48 44 -96 141 -96c57 0 165 13 210 96c18 34 17 66 18 80z" />
    <glyph glyph-name="afii10066" unicode="&#x431;" horiz-adv-x="737" 
d="M554 733h98c-5 -98 -88 -133 -212 -136c-172 -4 -287 -53 -306 -220c49 77 153 108 254 108c159 0 303 -66 303 -240c0 -171 -148 -261 -323 -261c-183 0 -322 87 -322 288c0 345 171 390 390 406c58 4 117 13 118 55zM586 242c0 116 -90 171 -206 171
c-115 0 -229 -34 -229 -171c0 -114 100 -182 217 -182c115 0 218 55 218 182z" />
    <glyph glyph-name="afii10067" unicode="&#x432;" horiz-adv-x="693" 
d="M78 488h393c88 0 156 -38 156 -123c0 -60 -36 -90 -87 -105c62 -12 107 -47 107 -122c0 -105 -87 -138 -177 -138h-392v488zM174 421v-134h261c61 0 97 20 97 69c0 55 -44 65 -95 65h-263zM174 220v-153h261c92 0 116 18 116 75s-37 78 -144 78h-233z" />
    <glyph glyph-name="afii10068" unicode="&#x433;" horiz-adv-x="564" 
d="M552 488v-72h-378v-416h-96v488h474z" />
    <glyph glyph-name="afii10069" unicode="&#x434;" horiz-adv-x="749" 
d="M616 70h87v-193h-90v123h-511v-120h-90v193c108 29 135 153 136 314v101h468v-418zM520 416h-282v-38c0 -155 -30 -263 -92 -306h374v344z" />
    <glyph glyph-name="afii10070" unicode="&#x435;" horiz-adv-x="688" 
d="M643 233h-501c4 -83 74 -172 214 -172c75 0 154 33 186 106l91 -25c-58 -126 -191 -157 -290 -157c-158 0 -299 91 -299 260c0 196 173 259 297 259c220 0 302 -167 302 -257v-14zM145 304h391c-25 71 -80 129 -189 129c-88 0 -170 -42 -202 -129z" />
    <glyph glyph-name="afii10072" unicode="&#x436;" horiz-adv-x="867" 
d="M387 488h92v-190h100c129 0 81 117 138 190h99c-73 -95 -25 -185 -127 -221c128 -29 77 -169 150 -267h-99c-58 70 2 226 -165 226h-96v-226h-92v226h-96c-166 0 -107 -156 -164 -226h-99c73 98 23 226 150 267c-102 34 -54 126 -128 221h100c56 -73 8 -190 137 -190h100
v190z" />
    <glyph glyph-name="afii10073" unicode="&#x437;" horiz-adv-x="643" 
d="M224 226v67h138c70 0 119 28 119 65c0 50 -57 72 -170 72c-72 0 -143 -19 -173 -79l-97 30c50 85 133 124 272 124c188 0 264 -45 264 -136c0 -56 -37 -89 -87 -104c53 -12 107 -40 107 -118c0 -107 -106 -161 -283 -161c-188 0 -254 54 -288 126l96 36
c32 -54 96 -87 194 -87c109 0 185 30 185 88c0 63 -54 77 -144 77h-133z" />
    <glyph glyph-name="afii10074" unicode="&#x438;" horiz-adv-x="743" 
d="M665 0h-96v339l-395 -273v-66h-96v488h96v-329l395 273v56h96v-488z" />
    <glyph glyph-name="afii10075" unicode="&#x439;" horiz-adv-x="743" 
d="M665 0h-96v339l-395 -273v-66h-96v488h96v-329l395 273v56h96v-488zM463 681l74 -15c-16 -84 -81 -118 -165 -118c-83 0 -153 33 -165 118l74 15c5 -25 40 -67 91 -67c59 0 89 35 91 67z" />
    <glyph glyph-name="afii10076" unicode="&#x43a;" horiz-adv-x="687" 
d="M174 488v-190h224c127 0 84 117 142 190h103c-76 -95 -33 -188 -132 -221c123 -19 77 -169 150 -267h-102c-58 70 -3 226 -165 226h-220v-226h-96v488h96z" />
    <glyph glyph-name="afii10077" unicode="&#x43b;" horiz-adv-x="700" 
d="M622 0h-96v416h-300v-78c0 -263 -41 -338 -187 -338h-27v72h27c83 2 100 47 100 290v126h483v-488z" />
    <glyph glyph-name="afii10078" unicode="&#x43c;" horiz-adv-x="766" 
d="M688 0h-87v398l-186 -398h-64l-186 396v-396h-87v488h131l175 -390l173 390h131v-488z" />
    <glyph glyph-name="afii10079" unicode="&#x43d;" horiz-adv-x="733" 
d="M655 0h-96v226h-385v-226h-96v488h96v-190h385v190h96v-488z" />
    <glyph glyph-name="afii10080" unicode="&#x43e;" 
d="M682 242c0 -141 -115 -257 -317 -257c-185 0 -320 94 -320 249c0 200 186 266 317 266c154 0 320 -68 320 -258zM587 244c0 134 -129 178 -227 178c-109 0 -219 -62 -219 -182c0 -102 91 -176 229 -176c95 0 217 50 217 180z" />
    <glyph glyph-name="afii10081" unicode="&#x43f;" horiz-adv-x="733" 
d="M655 0h-96v416h-385v-416h-96v488h577v-488z" />
    <glyph glyph-name="afii10082" unicode="&#x440;" horiz-adv-x="728" 
d="M78 488h96v-52c37 37 131 64 210 64c190 0 298 -116 298 -252c0 -130 -90 -257 -279 -257c-138 0 -201 49 -229 77v-263h-96v683zM579 251c0 96 -75 173 -205 173c-139 0 -205 -80 -205 -183c0 -130 116 -174 209 -174c122 0 201 76 201 184z" />
    <glyph glyph-name="afii10083" unicode="&#x441;" horiz-adv-x="688" 
d="M571 154l91 -24c-46 -89 -146 -147 -297 -147c-191 0 -322 87 -322 264c0 165 142 255 325 255c152 0 247 -64 289 -148l-91 -26c-34 61 -103 99 -198 99c-115 0 -224 -62 -224 -188c0 -131 126 -180 225 -180c98 0 171 40 202 95z" />
    <glyph glyph-name="afii10084" unicode="&#x442;" horiz-adv-x="578" 
d="M566 416h-229v-416h-96v416h-229v72h554v-72z" />
    <glyph glyph-name="afii10085" unicode="&#x443;" horiz-adv-x="604" 
d="M497 489h106l-276 -536c-33 -64 -69 -123 -183 -123c-45 0 -103 10 -114 12v86c50 -11 76 -15 100 -15c59 0 85 23 118 84l-248 492h108l191 -394z" />
    <glyph glyph-name="afii10086" unicode="&#x444;" horiz-adv-x="832" 
d="M464 706v-218c177 0 322 -59 322 -247c0 -180 -135 -241 -322 -241v-189h-96v189c-187 0 -322 61 -322 241c0 188 145 247 322 247v218h96zM369 76v336c-159 0 -223 -61 -223 -173c0 -102 60 -163 223 -163zM463 412v-336c161 0 223 60 223 163c0 111 -62 173 -223 173z
" />
    <glyph glyph-name="afii10087" unicode="&#x445;" horiz-adv-x="625" 
d="M628 0h-135l-177 197l-185 -197h-133l250 257l-222 231h132l156 -171l159 171h128l-221 -230z" />
    <glyph glyph-name="afii10088" unicode="&#x446;" horiz-adv-x="787" 
d="M654 488v-415h89v-196h-90v123h-575v488h96v-412h384v412h96z" />
    <glyph glyph-name="afii10089" unicode="&#x447;" horiz-adv-x="652" 
d="M142 488v-120c0 -99 75 -116 167 -116c57 0 116 8 169 20v216h96v-488h-96v199c-48 -10 -111 -19 -176 -19c-150 0 -256 33 -256 161v147h96z" />
    <glyph glyph-name="afii10090" unicode="&#x448;" horiz-adv-x="956" 
d="M878 488v-488h-800v488h96v-412h256v412h96v-412h256v412h96z" />
    <glyph glyph-name="afii10091" unicode="&#x449;" horiz-adv-x="1010" 
d="M878 488v-415h88v-196h-90v123h-798v488h96v-412h256v412h96v-412h256v412h96z" />
    <glyph glyph-name="afii10092" unicode="&#x44a;" horiz-adv-x="778" 
d="M207 0v416h-195v72h291v-182h199c134 0 248 -4 248 -154c0 -101 -66 -152 -162 -152h-381zM303 72h226c79 0 125 3 125 82c0 74 -52 80 -133 80h-218v-162z" />
    <glyph glyph-name="afii10093" unicode="&#x44b;" horiz-adv-x="837" 
d="M78 0v488h96v-182h207c135 0 205 -30 205 -154c0 -108 -64 -152 -160 -152h-348zM174 72h193c93 0 123 27 123 82c0 54 -41 80 -131 80h-185v-162zM759 0h-96v488h96v-488z" />
    <glyph glyph-name="afii10094" unicode="&#x44c;" horiz-adv-x="650" 
d="M78 0v488h96v-182h200c133 0 248 -7 248 -154c0 -107 -67 -152 -163 -152h-381zM174 72h226c92 0 126 17 126 81c0 67 -53 81 -133 81h-219v-162z" />
    <glyph glyph-name="afii10095" unicode="&#x44d;" horiz-adv-x="683" 
d="M215 293h315c-6 60 -83 139 -208 139c-100 0 -145 -43 -176 -76l-95 33c55 84 170 119 284 119c153 0 302 -92 302 -262c0 -189 -153 -260 -306 -260c-101 0 -258 45 -303 147l99 25c29 -49 127 -96 202 -96c103 0 195 54 205 165h-319v66z" />
    <glyph glyph-name="afii10096" unicode="&#x44e;" horiz-adv-x="1000" 
d="M174 296h138c27 133 155 210 326 210c174 0 307 -93 307 -263c0 -154 -118 -259 -314 -259c-162 0 -308 75 -319 240h-138v-224h-96v488h96v-192zM850 243c0 134 -109 187 -214 187c-130 0 -231 -64 -231 -191c0 -102 87 -179 225 -179c108 0 220 65 220 183z" />
    <glyph glyph-name="afii10097" unicode="&#x44f;" horiz-adv-x="670" 
d="M497 186h-178c-136 0 -101 -122 -162 -186h-111c78 69 53 190 149 210c-70 12 -110 49 -110 124c0 99 61 154 184 154h323v-488h-95v186zM497 416h-219c-50 0 -97 -11 -97 -81c0 -59 42 -77 105 -77h211v158z" />
    <glyph glyph-name="afii10050" unicode="&#x490;" horiz-adv-x="667" 
d="M565 706v150h96v-236h-478v-620h-102v706h484z" />
    <glyph glyph-name="afii10055" unicode="&#x406;" horiz-adv-x="271" 
d="M186 0h-102v706h102v-706z" />
    <glyph glyph-name="afii10051" unicode="&#x402;" horiz-adv-x="974" 
d="M697 620h-290v-211c69 11 163 25 240 25c153 0 299 -54 299 -218c0 -163 -109 -213 -244 -215c-19 -1 -38 -1 -120 -1v86h107c89 0 152 44 152 125c0 113 -97 137 -198 137c-73 0 -175 -13 -236 -25v-323h-102v620h-299v86h691v-86z" />
    <glyph glyph-name="afii10099" unicode="&#x452;" horiz-adv-x="756" 
d="M678 233v-259c0 -120 -78 -164 -144 -164c-36 0 -70 4 -103 11v89c28 -9 53 -15 74 -15c49 0 77 32 77 126v183c0 132 -67 175 -184 175c-92 0 -165 -47 -206 -96v-283h-96v558h-84v66h84v82h96v-82h249v-66h-249v-171c49 30 118 68 221 68c143 0 265 -37 265 -222z" />
    <glyph glyph-name="afii10052" unicode="&#x403;" horiz-adv-x="667" 
d="M661 706v-86h-478v-620h-102v706h580zM499 878l-126 -125h-65l64 125h127z" />
    <glyph glyph-name="afii10100" unicode="&#x453;" horiz-adv-x="564" 
d="M552 488v-72h-378v-416h-96v488h474zM481 688l-129 -137h-66l70 137h125z" />
    <glyph glyph-name="afii10103" unicode="&#x456;" horiz-adv-x="250" 
d="M170 570h-94v96h94v-96zM172 0h-95v488h95v-488z" />
    <glyph glyph-name="afii10098" unicode="&#x491;" horiz-adv-x="564" 
d="M552 416h-378v-416h-96v488h384v123h90v-195z" />
    <glyph glyph-name="afii10057" unicode="&#x408;" horiz-adv-x="708" 
d="M521 706h100v-482c0 -24 -1 -65 -16 -100c-44 -103 -173 -141 -273 -141c-225 0 -279 129 -304 192l102 19c7 -15 29 -64 72 -92c47 -30 105 -30 121 -30c18 0 90 1 139 32c42 27 59 63 59 139v463z" />
    <glyph glyph-name="afii10053" unicode="&#x404;" horiz-adv-x="849" 
d="M577 319h-424c2 -161 166 -253 302 -253c96 0 202 29 279 159l99 -29c-72 -129 -179 -216 -385 -216c-243 0 -404 143 -404 372c0 244 194 376 408 376c169 0 296 -71 366 -202l-99 -30c-62 115 -162 146 -277 146c-136 0 -287 -102 -287 -239h422v-84z" />
    <glyph glyph-name="afii10101" unicode="&#x454;" horiz-adv-x="696" 
d="M448 292v-65h-297c7 -110 105 -165 208 -165c74 0 187 44 211 127l98 -25c-58 -140 -207 -178 -316 -178c-133 0 -306 55 -306 260c0 172 150 262 316 262c127 0 230 -40 296 -160l-99 -24c-28 56 -90 108 -198 108c-105 0 -183 -38 -206 -140h293z" />
    <glyph glyph-name="afii10056" unicode="&#x407;" horiz-adv-x="290" 
d="M266 774h-90v105h90v-105zM115 774h-91v105h91v-105zM197 0h-102v706h102v-706z" />
    <glyph glyph-name="afii10104" unicode="&#x457;" horiz-adv-x="271" 
d="M249 569h-83v101h83v-101zM104 569h-82v101h82v-101zM183 0h-96v488h96v-488z" />
    <glyph glyph-name="afii10058" unicode="&#x409;" horiz-adv-x="1391" 
d="M661 0v620h-401v-89c0 -404 -27 -531 -224 -531h-24v86h24c106 0 128 74 128 457v163h599v-286h334c154 0 266 -49 266 -210c0 -163 -118 -210 -249 -210h-453zM763 334v-249h338c106 0 157 39 157 125c0 114 -99 124 -187 124h-308z" />
    <glyph glyph-name="afii10106" unicode="&#x459;" horiz-adv-x="1048" 
d="M512 0v416h-286v-78c0 -263 -41 -338 -187 -338h-27v73h27c83 2 100 46 100 289v126h469v-182h163c134 0 249 -3 249 -154c0 -108 -67 -152 -163 -152h-345zM608 72h190c79 0 126 3 126 82c0 71 -53 80 -134 80h-182v-162z" />
    <glyph glyph-name="afii10059" unicode="&#x40a;" horiz-adv-x="1405" 
d="M674 0v335h-491v-335h-102v706h102v-285h491v285h102v-285h270c194 0 331 -29 331 -210c0 -163 -118 -211 -249 -211h-454zM776 335v-250h355c83 0 141 44 141 126c0 91 -69 124 -187 124h-309z" />
    <glyph glyph-name="afii10107" unicode="&#x45a;" horiz-adv-x="1055" 
d="M520 0v234h-346v-234h-96v488h96v-182h346v182h96v-182h163c151 0 248 -8 248 -154c0 -107 -66 -152 -162 -152h-345zM616 72h190c79 0 125 3 125 82c0 69 -53 80 -133 80h-182v-162z" />
    <glyph glyph-name="afii10105" unicode="&#x458;" horiz-adv-x="250" 
d="M172 569h-95v96h95v-96zM172 488v-512c0 -40 -1 -58 -6 -78c-26 -101 -129 -101 -156 -101c-32 0 -57 5 -84 11v89c26 -9 42 -14 70 -14c17 0 82 1 82 87v518h94z" />
    <glyph glyph-name="afii10054" unicode="&#x405;" horiz-adv-x="812" 
d="M19 143l93 38c27 -29 48 -52 112 -78c81 -33 169 -34 203 -34s126 0 189 48c42 32 48 76 48 95c0 90 -100 105 -182 112l-108 10c-138 13 -201 18 -253 66c-48 44 -50 94 -50 118c0 99 68 144 98 160c42 23 119 46 233 46c213 0 308 -78 353 -142l-92 -37
c-63 59 -134 96 -260 96c-105 0 -232 -23 -232 -118c0 -76 72 -88 143 -95l219 -21c144 -14 230 -78 230 -194c0 -107 -71 -230 -346 -230c-160 0 -327 43 -398 160z" />
    <glyph glyph-name="afii10060" unicode="&#x40b;" horiz-adv-x="976" 
d="M703 620h-290v-211c69 11 163 25 240 25c227 0 295 -84 295 -202v-232h-102v208c0 107 -59 140 -197 140c-73 0 -175 -13 -236 -25v-323h-102v620h-299v86h691v-86z" />
    <glyph glyph-name="afii10108" unicode="&#x45b;" horiz-adv-x="736" 
d="M658 233v-233h-96v211c0 127 -61 168 -185 168c-86 0 -185 -58 -205 -112v-267h-96v556h-64v68h64v82h96v-82h249v-68h-249v-177c41 33 114 76 240 76c118 0 246 -38 246 -222z" />
    <glyph glyph-name="afii10061" unicode="&#x40c;" horiz-adv-x="861" 
d="M81 706h102v-290h251c149 0 184 77 212 162c13 39 24 84 49 128h108c-34 -49 -50 -105 -66 -152c-24 -72 -51 -145 -142 -173c128 -24 153 -130 176 -227c12 -50 26 -100 62 -154h-108c-42 58 -48 131 -70 195c-25 74 -67 140 -208 140h-264v-335h-102v706zM563 878
l-126 -125h-65l64 125h127z" />
    <glyph glyph-name="afii10109" unicode="&#x45c;" horiz-adv-x="689" 
d="M174 488v-190h224c127 0 84 117 142 190h103c-76 -95 -33 -188 -132 -221c123 -19 77 -169 150 -267h-102c-58 70 -3 226 -165 226h-220v-226h-96v488h96zM505 688l-129 -137h-66l70 137h125z" />
    <glyph glyph-name="afii10102" unicode="&#x455;" horiz-adv-x="667" 
d="M18 84l82 54c5 -4 28 -22 50 -34c77 -40 173 -42 196 -42c96 0 174 24 174 79c0 13 -5 32 -31 45c-43 23 -135 20 -254 33c-42 5 -89 13 -125 39c-30 22 -46 56 -46 94c0 54 31 96 78 120c68 35 183 35 193 35c76 0 156 -13 224 -49c33 -18 48 -30 60 -42l-83 -46
c-80 55 -178 57 -208 57c-69 0 -112 -10 -138 -29c-18 -14 -21 -27 -21 -38c0 -9 4 -27 24 -38c34 -20 126 -23 229 -32c75 -6 111 -14 142 -34c38 -25 57 -65 57 -109c0 -11 -1 -40 -16 -67c-54 -96 -212 -98 -253 -98c-50 0 -222 3 -334 102z" />
    <glyph glyph-name="afii10062" unicode="&#x40e;" horiz-adv-x="768" 
d="M129 706l299 -457l225 457h110l-266 -513c-68 -132 -118 -202 -259 -202c-41 0 -69 4 -96 11v84c23 -4 63 -11 96 -11c63 0 108 26 132 85l-365 546h124zM526 895l75 -25c-21 -81 -102 -110 -202 -110c-101 0 -181 29 -202 110l75 25c7 -23 38 -63 127 -63
c78 0 112 23 127 63z" />
    <glyph glyph-name="afii10110" unicode="&#x45e;" horiz-adv-x="603" 
d="M497 489h106l-276 -536c-33 -64 -69 -123 -183 -123c-45 0 -103 10 -114 12v86c50 -11 76 -15 100 -15c59 0 85 23 118 84l-248 492h108l191 -394zM399 691l74 -15c-16 -84 -81 -118 -165 -118c-83 0 -153 33 -165 118l74 15c5 -25 40 -67 91 -67c59 0 89 35 91 67z" />
    <glyph glyph-name="afii10145" unicode="&#x40f;" horiz-adv-x="887" 
d="M806 706v-706h-315v-163h-96v163h-314v706h102v-620h521v620h102z" />
    <glyph glyph-name="afii10193" unicode="&#x45f;" horiz-adv-x="732" 
d="M654 488v-488h-242v-147h-90v147h-244v488h96v-412h384v412h96z" />
    <glyph glyph-name="afii61352" unicode="&#x2116;" horiz-adv-x="1295" 
d="M1237 182v-81h-396v81h396zM755 0h-99l-487 563v-563h-96v706h87l499 -570v570h96v-706zM1256 479c0 -123 -76 -226 -221 -226c-140 0 -216 103 -216 228c0 164 110 225 219 225c147 0 218 -104 218 -227zM1175 477c0 81 -43 157 -137 157c-92 0 -138 -65 -138 -154
c0 -98 57 -155 137 -155c74 0 138 50 138 152z" />
    <glyph glyph-name="afii10023" unicode="&#x401;" horiz-adv-x="792" 
d="M762 0h-677v706h651v-87h-551v-210h537v-84h-537v-238h577v-87zM589 774h-97v103h97v-103zM326 774h-97v103h97v-103z" />
    <glyph glyph-name="afii10071" unicode="&#x451;" horiz-adv-x="688" 
d="M643 233h-501c4 -83 74 -172 214 -172c75 0 154 33 186 106l91 -25c-58 -126 -191 -157 -290 -157c-158 0 -299 91 -299 260c0 196 173 259 297 259c220 0 302 -167 302 -257v-14zM145 304h391c-25 71 -80 129 -189 129c-88 0 -170 -42 -202 -129zM520 569h-98v103h98
v-103zM256 569h-97v103h97v-103z" />
    <glyph glyph-name="afii10066.locl" horiz-adv-x="710" 
d="M557 702h82c0 -83 -60 -109 -140 -109c-65 0 -150 21 -222 21c-65 0 -98 -12 -98 -49c0 -52 140 -55 230 -67c164 -21 260 -100 260 -252c0 -148 -97 -257 -313 -257c-211 0 -316 100 -316 241c0 123 90 206 215 229c-115 12 -175 53 -175 114c0 90 80 116 181 116
c79 0 182 -20 224 -20c51 0 72 9 72 33zM564 248c0 107 -75 180 -206 180c-128 0 -213 -80 -213 -184c0 -112 85 -185 212 -185c134 0 207 67 207 189z" />
    <glyph glyph-name="tonos" unicode="&#x384;" horiz-adv-x="375" 
d="M285 688l-129 -137h-66l70 137h125z" />
    <glyph glyph-name="dieresistonos" unicode="&#x385;" horiz-adv-x="413" 
d="M405 569h-98v103h98v-103zM105 569h-97v103h97v-103zM295 706l-105 -137h-54l41 137h118z" />
    <glyph glyph-name="Gamma" unicode="&#x393;" horiz-adv-x="697" 
d="M683 619h-499v-619h-99v706h598v-87z" />
    <glyph glyph-name="Theta" unicode="&#x398;" horiz-adv-x="958" 
d="M669 325h-402v85h402v-85zM906 343c0 -198 -148 -362 -426 -362c-262 0 -432 134 -432 364c0 254 203 378 426 378c208 0 432 -114 432 -380zM805 353c0 128 -83 284 -331 284c-171 0 -326 -88 -326 -288c0 -175 126 -281 334 -281c242 0 323 145 323 285z" />
    <glyph glyph-name="Lambda" unicode="&#x39b;" horiz-adv-x="825" 
d="M412 603l-298 -603h-113l360 706h107l356 -706h-116z" />
    <glyph glyph-name="Xi" unicode="&#x39e;" horiz-adv-x="816" 
d="M30 0v95h756v-95h-756zM50 611v95h715v-95h-715zM89 321v92h639v-92h-639z" />
    <glyph glyph-name="Pi" unicode="&#x3a0;" horiz-adv-x="903" 
d="M814 0h-101v619h-527v-619h-102v706h730v-706z" />
    <glyph glyph-name="Sigma" unicode="&#x3a3;" horiz-adv-x="768" 
d="M179 88h559v-88h-710v73l306 294l-276 262v77h668v-86h-523l268 -254z" />
    <glyph glyph-name="Iotadieresis" unicode="&#x3aa;" horiz-adv-x="271" 
d="M186 0h-102v706h102v-706zM315 774h-97v103h97v-103zM52 774h-97v103h97v-103z" />
    <glyph glyph-name="Alpha" unicode="&#x391;" horiz-adv-x="833" 
d="M834 0h-116l-86 174h-434l-86 -174h-113l366 706h107zM589 255l-173 350l-176 -350h349z" />
    <glyph glyph-name="Beta" unicode="&#x392;" horiz-adv-x="896" 
d="M85 0v706h464c99 0 254 -20 254 -183c0 -119 -89 -139 -99 -145c70 -22 134 -77 134 -181c0 -19 -1 -61 -30 -105c-60 -91 -175 -92 -270 -92h-453zM186 408h369c46 0 95 1 125 44c7 10 19 32 19 64c0 18 -4 60 -47 87c-35 22 -76 22 -115 22h-351v-217zM186 82h382
c52 0 107 5 142 50c10 12 23 37 23 72c0 15 0 42 -20 71c-34 49 -91 52 -145 52h-382v-245z" />
    <glyph glyph-name="Epsilon" unicode="&#x395;" horiz-adv-x="792" 
d="M762 0h-677v706h651v-87h-551v-210h537v-84h-537v-238h577v-87z" />
    <glyph glyph-name="Zeta" unicode="&#x396;" horiz-adv-x="771" 
d="M735 0h-705v84l553 536h-511v86h653v-83l-554 -535h564v-88z" />
    <glyph glyph-name="Eta" unicode="&#x397;" horiz-adv-x="917" 
d="M828 0h-101v334h-541v-334h-102v706h101v-288h541v288h102v-706z" />
    <glyph glyph-name="Iota" unicode="&#x399;" horiz-adv-x="271" 
d="M186 0h-102v706h102v-706z" />
    <glyph glyph-name="Kappa" unicode="&#x39a;" horiz-adv-x="833" 
d="M854 0h-134l-319 380l-219 -161v-219h-97v706h99v-376l509 376h147l-357 -266z" />
    <glyph glyph-name="Mu" unicode="&#x39c;" horiz-adv-x="1000" 
d="M934 0h-95c0 37 5 606 5 606l-289 -606h-94l-288 606s5 -580 5 -606h-94v706h138l288 -598l288 598h136v-706z" />
    <glyph glyph-name="Phi" unicode="&#x3a6;" horiz-adv-x="995" 
d="M548 0h-102v55c-333 13 -414 172 -414 302s81 289 414 303v46h102v-46c333 -14 415 -168 415 -298s-82 -294 -415 -307v-55zM863 362c0 111 -81 207 -315 217v-441c235 9 315 114 315 224zM132 356c0 -109 79 -209 314 -218v441c-234 -10 -314 -112 -314 -223z" />
    <glyph glyph-name="Upsilondieresis" unicode="&#x3ab;" horiz-adv-x="812" 
d="M586 794h-98v103h98v-103zM322 794h-97v103h97v-103zM811 706l-358 -433v-273h-99v275l-352 431h129l273 -346l279 346h128z" />
    <glyph glyph-name="Psi" unicode="&#x3a8;" horiz-adv-x="1000" 
d="M928 459c0 -229 -174 -291 -378 -299v-160h-102v160c-205 7 -376 62 -376 299v247h101v-251c0 -142 78 -203 275 -210v461h102v-461c194 7 277 68 277 210v251h101v-247z" />
    <glyph glyph-name="Nu" unicode="&#x39d;" horiz-adv-x="917" 
d="M829 0h-98l-553 584s2 -532 2 -584h-96v706h103l549 -583s-3 547 -3 583h96v-706z" />
    <glyph glyph-name="Omicron" unicode="&#x39f;" horiz-adv-x="958" 
d="M906 343c0 -198 -148 -362 -426 -362c-262 0 -432 134 -432 364c0 254 203 378 426 378c208 0 432 -114 432 -380zM805 353c0 128 -83 284 -331 284c-171 0 -326 -88 -326 -288c0 -175 126 -281 334 -281c242 0 323 145 323 285z" />
    <glyph glyph-name="Rho" unicode="&#x3a1;" horiz-adv-x="812" 
d="M83 0v706h443c63 0 175 -7 236 -95c24 -35 36 -78 36 -121c0 -28 -5 -107 -74 -159c-61 -47 -127 -48 -200 -48h-339v-283h-102zM184 367h326c55 0 115 2 153 49c11 13 26 38 26 80c0 13 -1 46 -25 76c-40 50 -108 50 -165 50h-315v-255z" />
    <glyph glyph-name="Tau" unicode="&#x3a4;" horiz-adv-x="708" 
d="M691 622h-289v-622h-100v622h-288v84h677v-84z" />
    <glyph glyph-name="Upsilon" unicode="&#x3a5;" horiz-adv-x="812" 
d="M811 706l-358 -433v-273h-99v275l-352 431h129l273 -346l279 346h128z" />
    <glyph glyph-name="Chi" unicode="&#x3a7;" horiz-adv-x="854" 
d="M854 0h-141l-290 309l-288 -309h-137l361 374l-317 332h138l244 -267l247 267h137l-323 -331z" />
    <glyph glyph-name="Alphatonos" unicode="&#x386;" horiz-adv-x="833" 
d="M834 0h-116l-86 174h-434l-86 -174h-113l366 706h107zM589 255l-173 350l-176 -350h349zM215 706l-129 -137h-66l70 137h125z" />
    <glyph glyph-name="Epsilontonos" unicode="&#x388;" horiz-adv-x="792" 
d="M762 0h-677v706h651v-87h-551v-210h537v-84h-537v-238h577v-87zM5 706l-129 -137h-66l70 137h125z" />
    <glyph glyph-name="Etatonos" unicode="&#x389;" horiz-adv-x="917" 
d="M828 0h-101v334h-541v-334h-102v706h101v-288h541v288h102v-706zM5 706l-129 -137h-66l70 137h125z" />
    <glyph glyph-name="Iotatonos" unicode="&#x38a;" horiz-adv-x="271" 
d="M186 0h-102v706h102v-706zM5 706l-129 -137h-66l70 137h125z" />
    <glyph glyph-name="Omicrontonos" unicode="&#x38c;" horiz-adv-x="958" 
d="M906 343c0 -198 -148 -362 -426 -362c-262 0 -432 134 -432 364c0 254 203 378 426 378c208 0 432 -114 432 -380zM805 353c0 128 -83 284 -331 284c-171 0 -326 -88 -326 -288c0 -175 126 -281 334 -281c242 0 323 145 323 285zM95 706l-129 -137h-66l70 137h125z" />
    <glyph glyph-name="Upsilontonos" unicode="&#x38e;" horiz-adv-x="812" 
d="M811 706l-358 -433v-273h-99v275l-352 431h129l273 -346l279 346h128zM-15 706l-129 -137h-66l70 137h125z" />
    <glyph glyph-name="Omegatonos" unicode="&#x38f;" horiz-adv-x="964" 
d="M741 87h175v-87h-359v87c159 39 253 132 253 280c0 172 -118 270 -329 270c-210 0 -328 -98 -328 -270c0 -148 95 -243 253 -280v-87h-358v87h167c-108 59 -162 157 -162 278c0 206 148 358 427 358c280 0 431 -152 431 -358c0 -122 -49 -212 -170 -278zM95 706
l-129 -137h-66l70 137h125z" />
    <glyph glyph-name="alpha" unicode="&#x3b1;" horiz-adv-x="731" 
d="M648 488v-372c0 -40 10 -53 36 -53c7 0 25 2 34 3v-66c-21 -4 -50 -7 -75 -7c-44 0 -77 21 -85 74c-58 -56 -135 -82 -214 -82c-177 0 -300 98 -300 253c0 170 145 261 301 261c75 0 150 -22 208 -68v57h95zM561 245c0 96 -70 177 -203 177c-146 0 -213 -88 -213 -181
c0 -120 102 -182 212 -182c112 0 204 65 204 186z" />
    <glyph glyph-name="beta" unicode="&#x3b2;" horiz-adv-x="725" 
d="M172 68v-263h-95v676c0 142 87 231 284 231c187 0 261 -77 261 -161c0 -69 -39 -130 -145 -154c141 -16 206 -85 206 -182c0 -98 -62 -224 -277 -224c-103 0 -181 25 -234 77zM172 486v-253c0 -97 73 -166 223 -166c137 0 190 57 190 149c0 74 -51 140 -207 140h-65v67
h52c72 0 164 31 164 126c0 53 -49 88 -168 88c-170 0 -189 -85 -189 -151z" />
    <glyph glyph-name="psi" unicode="&#x3c8;" horiz-adv-x="913" 
d="M848 253c0 -169 -100 -256 -344 -265v-183h-95v183c-244 9 -344 72 -344 265v235h94v-239c0 -150 89 -175 250 -185v593h95v-593c165 10 250 57 250 184v240h94v-235z" />
    <glyph glyph-name="delta" unicode="&#x3b4;" horiz-adv-x="728" 
d="M588 230c0 85 -71 168 -229 168c-132 0 -218 -67 -218 -171c0 -116 115 -163 222 -163c105 0 225 49 225 166zM287 450c-126 26 -158 79 -158 130c0 99 122 132 235 132c144 0 230 -58 259 -127l-100 -16c-26 59 -108 68 -158 68c-58 0 -133 -20 -133 -65
c0 -54 87 -77 191 -100c193 -44 258 -136 258 -241c0 -169 -160 -246 -319 -246c-180 0 -317 88 -317 240c0 101 61 212 242 225z" />
    <glyph glyph-name="epsilon" unicode="&#x3b5;" horiz-adv-x="673" 
d="M622 381l-90 -32c-24 42 -79 84 -196 84c-95 0 -172 -21 -172 -72c0 -50 47 -67 144 -67h147v-71h-146c-97 0 -169 -20 -169 -83c0 -47 39 -79 193 -79c64 0 171 14 236 109l82 -34c-50 -75 -125 -151 -321 -151c-190 0 -291 41 -291 141c0 68 58 123 158 132
c-102 11 -129 61 -129 109c0 95 119 137 267 137c91 0 215 -17 287 -123z" />
    <glyph glyph-name="phi" unicode="&#x3c6;" horiz-adv-x="877" 
d="M391 -195v182c-246 6 -346 106 -346 247c0 130 92 257 346 264v159h95v-159c264 -7 344 -131 344 -256c0 -138 -103 -247 -344 -254v-183h-95zM391 61v364c-163 -5 -250 -67 -250 -186c0 -121 97 -173 250 -178zM486 425v-364c132 7 249 55 249 184
c0 124 -100 174 -249 180z" />
    <glyph glyph-name="gamma" unicode="&#x3b3;" horiz-adv-x="637" 
d="M527 488h109l-258 -497v-186h-95v189l-189 372c-22 43 -26 43 -73 43h-17v79h38c77 0 99 -8 138 -88l151 -303z" />
    <glyph glyph-name="eta" unicode="&#x3b7;" horiz-adv-x="736" 
d="M567 -195v453c0 42 -4 60 -13 80c-18 42 -68 83 -168 83c-71 0 -157 -23 -189 -103c-11 -28 -12 -56 -12 -86v-232h-95v368c0 40 -10 53 -36 53c-7 0 -25 -2 -34 -3v66c16 4 44 11 78 11c40 0 75 -14 83 -70c21 18 43 36 78 51c29 12 76 26 144 26
c121 0 210 -49 242 -122c16 -38 16 -76 16 -116v-459h-94z" />
    <glyph glyph-name="iota" unicode="&#x3b9;" horiz-adv-x="255" 
d="M242 66v-66c-22 -5 -54 -9 -79 -9c-83 0 -86 71 -86 140v357h95v-372c0 -40 10 -53 36 -53c7 0 25 2 34 3z" />
    <glyph glyph-name="xi" unicode="&#x3be;" horiz-adv-x="601" 
d="M514 416v-72h-148c-119 0 -228 -39 -228 -144c0 -101 98 -121 267 -121c121 0 196 -18 196 -109c0 -49 -35 -101 -105 -153l-57 71c47 23 76 43 76 71c0 40 -41 41 -139 41c-204 0 -334 43 -334 186c0 97 60 176 215 199c-111 14 -160 66 -160 128c0 68 63 108 131 120
h-140v73h510v-74h-131c-145 0 -274 -32 -274 -114c0 -93 130 -102 213 -102h108z" />
    <glyph glyph-name="kappa" unicode="&#x3ba;" horiz-adv-x="693" 
d="M567 0l-260 239l-132 -88v-151h-97v489h97v-239l309 208c46 31 90 31 151 31h29v-80h-17c-63 0 -78 0 -119 -28l-136 -91l313 -290h-138z" />
    <glyph glyph-name="lambda" unicode="&#x3bb;" horiz-adv-x="651" 
d="M277 482l-32 75c-22 51 -45 73 -97 73c-22 0 -58 -4 -90 -16v82c17 7 54 17 98 17c98 0 136 -43 180 -142l194 -432c26 -57 54 -66 82 -66c12 0 29 2 37 3v-76c-25 -7 -61 -10 -74 -10c-57 0 -92 27 -133 120l-122 274l-212 -384h-109z" />
    <glyph glyph-name="nu" unicode="&#x3bd;" horiz-adv-x="582" 
d="M298 96l133 256c8 16 32 58 32 90c0 7 -1 36 -3 46h99c3 -12 5 -29 5 -50c0 -35 -24 -81 -38 -108l-175 -330h-106l-246 488h105z" />
    <glyph glyph-name="omicron" unicode="&#x3bf;" 
d="M682 242c0 -141 -115 -257 -317 -257c-185 0 -320 94 -320 249c0 200 186 266 317 266c154 0 320 -68 320 -258zM587 244c0 134 -129 178 -227 178c-109 0 -219 -62 -219 -182c0 -102 91 -176 229 -176c95 0 217 50 217 180z" />
    <glyph glyph-name="rho" unicode="&#x3c1;" horiz-adv-x="707" 
d="M152 237c0 -96 67 -173 204 -173c142 0 207 82 207 182c0 129 -102 176 -207 176c-95 0 -204 -46 -204 -185zM150 -195h-95v422c0 206 165 273 307 273c160 0 297 -84 297 -256c0 -136 -106 -259 -289 -259c-100 0 -167 26 -220 84v-264z" />
    <glyph glyph-name="sigma" unicode="&#x3c3;" horiz-adv-x="760" 
d="M587 237c0 119 -97 174 -216 174c-102 0 -231 -39 -231 -174c0 -113 117 -173 229 -173c76 0 218 42 218 173zM725 409h-139c85 -44 96 -131 96 -174c0 -115 -100 -250 -313 -250c-124 0 -324 49 -324 251c0 184 162 252 319 252h361v-79z" />
    <glyph glyph-name="tau" unicode="&#x3c4;" horiz-adv-x="528" 
d="M213 409h-90c-14 0 -55 -1 -114 -23v81c41 15 80 21 121 21h381v-79h-205v-247c0 -62 9 -85 68 -85c30 0 60 6 69 7v-84c-31 -4 -63 -7 -95 -7c-36 0 -79 4 -107 31c-24 24 -28 50 -28 111v274z" />
    <glyph glyph-name="theta" unicode="&#x3b8;" horiz-adv-x="745" 
d="M685 364c0 -206 -64 -379 -313 -379c-247 0 -312 173 -312 379c0 155 71 348 312 348c245 0 313 -193 313 -348zM589 400c-8 99 -46 238 -217 238c-168 0 -208 -139 -216 -238h433zM589 328h-434c3 -145 52 -269 217 -269c166 0 214 120 217 269z" />
    <glyph glyph-name="omega" unicode="&#x3c9;" horiz-adv-x="907" 
d="M406 326h95v-132c0 -57 25 -130 119 -130c102 0 143 67 143 166c0 153 -79 191 -169 192v78c142 -2 265 -62 265 -271c0 -112 -52 -244 -226 -244c-85 0 -153 30 -179 103c-28 -70 -95 -103 -180 -103c-174 0 -226 129 -226 241c0 209 123 272 265 274v-78
c-90 -1 -169 -39 -169 -192c0 -99 41 -166 143 -166c94 0 119 73 119 130v132z" />
    <glyph glyph-name="sigma1" unicode="&#x3c2;" horiz-adv-x="637" 
d="M446 -183l-57 71c47 23 76 43 76 71c0 25 -20 37 -57 40c-84 7 -151 16 -204 33c-109 36 -161 104 -161 214c0 172 157 256 322 256c55 0 172 -6 257 -99l-69 -60c-33 41 -73 84 -185 84c-134 0 -224 -73 -224 -186c0 -69 43 -117 103 -135c56 -17 124 -24 188 -32
c70 -9 116 -37 116 -104c0 -49 -35 -101 -105 -153z" />
    <glyph glyph-name="chi" unicode="&#x3c7;" horiz-adv-x="631" 
d="M8 418v66c16 4 48 11 82 11c53 0 78 -26 108 -74l120 -186l182 254h111l-240 -329l147 -227c25 -38 42 -63 87 -63c13 0 27 2 39 4v-74c-27 -6 -47 -9 -60 -9c-70 0 -109 35 -159 116l-112 180l-198 -282h-109l254 355l-144 221c-25 37 -27 40 -72 40c-8 0 -28 -2 -36 -3
z" />
    <glyph glyph-name="upsilon" unicode="&#x3c5;" horiz-adv-x="700" 
d="M350 -15c-120 0 -285 42 -285 231v272h94v-260c0 -127 94 -164 191 -164s191 37 191 164v260h94v-272c0 -189 -165 -231 -285 -231z" />
    <glyph glyph-name="zeta" unicode="&#x3b6;" horiz-adv-x="580" 
d="M360 0c-182 0 -310 25 -310 180c0 164 152 324 380 447h-340v79h506v-66c-187 -96 -447 -257 -447 -454c0 -101 94 -106 230 -106c132 0 211 -19 211 -110c0 -49 -35 -101 -105 -153l-57 71c47 23 76 43 76 71c0 40 -36 41 -144 41z" />
    <glyph glyph-name="alphatonos" unicode="&#x3ac;" horiz-adv-x="731" 
d="M648 488v-372c0 -40 10 -53 36 -53c7 0 25 2 34 3v-66c-21 -4 -50 -7 -75 -7c-44 0 -77 21 -85 74c-58 -56 -135 -82 -214 -82c-177 0 -300 98 -300 253c0 170 145 261 301 261c75 0 150 -22 208 -68v57h95zM561 245c0 96 -70 177 -203 177c-146 0 -213 -88 -213 -181
c0 -120 102 -182 212 -182c112 0 204 65 204 186zM534 688l-129 -137h-66l70 137h125z" />
    <glyph glyph-name="upsilontonos" unicode="&#x3cd;" horiz-adv-x="700" 
d="M350 -15c-120 0 -285 42 -285 231v272h94v-260c0 -127 94 -164 191 -164s191 37 191 164v260h94v-272c0 -189 -165 -231 -285 -231zM503 688l-129 -137h-66l70 137h125z" />
    <glyph glyph-name="epsilontonos" unicode="&#x3ad;" horiz-adv-x="673" 
d="M622 381l-90 -32c-24 42 -79 84 -196 84c-95 0 -172 -21 -172 -72c0 -50 47 -67 144 -67h147v-71h-146c-97 0 -169 -20 -169 -83c0 -47 39 -79 193 -79c64 0 171 14 236 109l82 -34c-50 -75 -125 -151 -321 -151c-190 0 -291 41 -291 141c0 68 58 123 158 132
c-102 11 -129 61 -129 109c0 95 119 137 267 137c91 0 215 -17 287 -123zM518 688l-129 -137h-66l70 137h125z" />
    <glyph glyph-name="etatonos" unicode="&#x3ae;" horiz-adv-x="736" 
d="M567 -195v453c0 42 -4 60 -13 80c-18 42 -68 83 -168 83c-71 0 -157 -23 -189 -103c-11 -28 -12 -56 -12 -86v-232h-95v368c0 40 -10 53 -36 53c-7 0 -25 -2 -34 -3v66c16 4 44 11 78 11c40 0 75 -14 83 -70c21 18 43 36 78 51c29 12 76 26 144 26
c121 0 210 -49 242 -122c16 -38 16 -76 16 -116v-459h-94zM541 688l-129 -137h-66l70 137h125z" />
    <glyph glyph-name="iotatonos" unicode="&#x3af;" horiz-adv-x="255" 
d="M242 66v-66c-22 -5 -54 -9 -79 -9c-83 0 -86 71 -86 140v357h95v-372c0 -40 10 -53 36 -53c7 0 25 2 34 3zM285 688l-129 -137h-66l70 137h125z" />
    <glyph glyph-name="omicrontonos" unicode="&#x3cc;" 
d="M682 242c0 -141 -115 -257 -317 -257c-185 0 -320 94 -320 249c0 200 186 266 317 266c154 0 320 -68 320 -258zM587 244c0 134 -129 178 -227 178c-109 0 -219 -62 -219 -182c0 -102 91 -176 229 -176c95 0 217 50 217 180zM512 688l-129 -137h-66l70 137h125z" />
    <glyph glyph-name="upsilondieresistonos" unicode="&#x3b0;" horiz-adv-x="700" 
d="M350 -15c-120 0 -285 42 -285 231v272h94v-260c0 -127 94 -164 191 -164s191 37 191 164v260h94v-272c0 -189 -165 -231 -285 -231zM568 569h-98v103h98v-103zM268 569h-97v103h97v-103zM458 706l-105 -137h-54l41 137h118z" />
    <glyph glyph-name="iotadieresistonos" unicode="&#x390;" horiz-adv-x="255" 
d="M242 66v-66c-22 -5 -54 -9 -79 -9c-83 0 -86 71 -86 140v357h95v-372c0 -40 10 -53 36 -53c7 0 25 2 34 3zM357 569h-98v103h98v-103zM57 569h-97v103h97v-103zM247 706l-105 -137h-54l41 137h118z" />
    <glyph glyph-name="upsilondieresis" unicode="&#x3cb;" horiz-adv-x="700" 
d="M531 569h-98v103h98v-103zM267 569h-97v103h97v-103zM350 -15c-120 0 -285 42 -285 231v272h94v-260c0 -127 94 -164 191 -164s191 37 191 164v260h94v-272c0 -189 -165 -231 -285 -231z" />
    <glyph glyph-name="iotadieresis" unicode="&#x3ca;" horiz-adv-x="255" 
d="M271 569h-98v103h98v-103zM87 569h-97v103h97v-103zM242 66v-66c-22 -5 -54 -9 -79 -9c-83 0 -86 71 -86 140v357h95v-372c0 -40 10 -53 36 -53c7 0 25 2 34 3z" />
    <glyph glyph-name="omegatonos" unicode="&#x3ce;" horiz-adv-x="907" 
d="M406 326h95v-132c0 -57 25 -130 119 -130c102 0 143 67 143 166c0 153 -79 191 -169 192v78c142 -2 265 -62 265 -271c0 -112 -52 -244 -226 -244c-85 0 -153 30 -179 103c-28 -70 -95 -103 -180 -103c-174 0 -226 129 -226 241c0 209 123 272 265 274v-78
c-90 -1 -169 -39 -169 -192c0 -99 41 -166 143 -166c94 0 119 73 119 130v132zM590 688l-129 -137h-66l70 137h125z" />
    <glyph glyph-name="Imacron" horiz-adv-x="271" 
d="M186 0h-102v706h102v-706zM273 774h-275v76h275v-76z" />
    <glyph glyph-name="ibreve" horiz-adv-x="250" 
d="M172 0h-95v488h95v-488zM202 687h58c-9 -43 -31 -122 -135 -122c-42 0 -115 15 -134 122h56c10 -24 28 -59 79 -59c49 0 68 39 76 59z" />
    <glyph glyph-name="cyrbreve" horiz-adv-x="375" 
d="M279 691l74 -15c-16 -84 -81 -118 -165 -118c-83 0 -153 33 -165 118l74 15c5 -25 40 -67 91 -67c59 0 89 35 91 67z" />
    <glyph glyph-name="afii00208" unicode="&#x2015;" horiz-adv-x="932" 
d="M897 259h-862v82h862v-82z" />
    <glyph glyph-name="gamma.salt" horiz-adv-x="604" 
d="M495 488h108l-258 -497v-186h-95v189l-251 494h105l194 -395z" />
    <glyph glyph-name="eta.salt" 
d="M649 0h-94v258c0 42 -4 60 -13 80c-18 42 -68 83 -168 83c-71 0 -157 -23 -189 -103c-11 -28 -12 -56 -12 -86v-232h-95v488h95v-59c17 14 35 31 74 47c29 12 76 26 144 26c121 0 210 -49 242 -122c16 -38 16 -76 16 -116v-264z" />
    <glyph glyph-name="etatonos.salt" 
d="M649 0h-94v258c0 42 -4 60 -13 80c-18 42 -68 83 -168 83c-71 0 -157 -23 -189 -103c-11 -28 -12 -56 -12 -86v-232h-95v488h95v-59c17 14 35 31 74 47c29 12 76 26 144 26c121 0 210 -49 242 -122c16 -38 16 -76 16 -116v-264zM528 688l-129 -137h-66l70 137h125z" />
    <glyph glyph-name="iota.salt" horiz-adv-x="250" 
d="M172 0h-95v488h95v-488z" />
    <glyph glyph-name="iotatonos.salt" horiz-adv-x="250" 
d="M172 0h-95v488h95v-488zM285 688l-129 -137h-66l70 137h125z" />
    <glyph glyph-name="iotadieresis.salt" horiz-adv-x="250" 
d="M267 569h-98v103h98v-103zM83 569h-97v103h97v-103zM172 0h-95v488h95v-488z" />
    <glyph glyph-name="iotadieresistonos.salt" horiz-adv-x="250" 
d="M172 0h-95v488h95v-488zM343 569h-98v103h98v-103zM43 569h-97v103h97v-103zM233 706l-105 -137h-54l41 137h118z" />
    <glyph glyph-name="kappa.salt" horiz-adv-x="675" 
d="M705 0h-140l-256 236l-134 -103v-133h-97v488h97v-253l307 253h147l-245 -192z" />
    <glyph glyph-name="lambda.salt" horiz-adv-x="591" 
d="M592 0h-102l-178 384l-205 -384h-109l269 482l-33 75c-23 51 -46 73 -98 73c-22 0 -58 -4 -91 -16v82c16 7 53 17 97 17c98 0 137 -43 183 -142z" />
    <glyph glyph-name="mu.salt" horiz-adv-x="731" 
d="M346 67c103 0 170 48 192 85c15 26 15 49 15 78v258h95v-488h-93v62c-9 -8 -25 -22 -51 -38c-64 -39 -142 -41 -164 -41c-71 0 -127 18 -168 62v-240h-95v683h95v-266c0 -106 71 -155 174 -155z" />
    <glyph glyph-name="nu.salt" horiz-adv-x="604" 
d="M603 488l-252 -488h-106l-246 488h105l194 -392l197 392h108z" />
    <glyph glyph-name="pi.salt" horiz-adv-x="737" 
d="M728 409h-79v-409h-94v409h-372v-409h-95v409h-79v79h719v-79z" />
    <glyph glyph-name="tau.salt" horiz-adv-x="513" 
d="M206 409h-197v79h495v-79h-205v-247c0 -62 9 -85 68 -85c30 0 60 6 69 7v-84c-31 -4 -63 -7 -95 -7c-36 0 -79 4 -107 31c-24 24 -28 50 -28 111v274z" />
    <glyph glyph-name="chi.salt" horiz-adv-x="625" 
d="M628 0h-135l-177 197l-185 -197h-133l250 257l-222 231h132l156 -171l159 171h128l-221 -230z" />
    <glyph glyph-name="beta.salt" horiz-adv-x="725" 
d="M172 68v-68h-95v481c0 142 87 231 284 231c187 0 261 -77 261 -161c0 -69 -39 -130 -145 -154c141 -16 206 -85 206 -182c0 -98 -62 -224 -277 -224c-103 0 -181 25 -234 77zM172 486v-253c0 -97 73 -166 223 -166c137 0 190 57 190 149c0 74 -51 140 -207 140h-65v67h52
c72 0 164 31 164 126c0 53 -49 88 -168 88c-170 0 -189 -85 -189 -151z" />
    <glyph glyph-name="anoteleia" unicode="&#x387;" horiz-adv-x="250" 
d="M179 188h-110v109h110v-109z" />
    <glyph glyph-name="uniF6C3" unicode="&#xf6c3;" horiz-adv-x="375" 
d="M143 -36h88v-55c0 -60 -23 -86 -84 -90v36c25 2 36 10 36 37h-40v72z" />
    <glyph glyph-name="xi.salt" horiz-adv-x="592" 
d="M514 432v-76h-148c-119 0 -228 -51 -228 -156c0 -101 98 -121 267 -121c121 0 196 -18 196 -109c0 -49 -35 -101 -105 -153l-57 71c47 23 76 43 76 71c0 40 -41 41 -139 41c-204 0 -334 43 -334 186c0 97 56 187 211 210c-116 17 -162 73 -162 145c0 120 119 171 271 171
c121 0 234 -31 275 -127l-102 -16c-25 58 -114 68 -175 68c-52 0 -170 -13 -170 -96c0 -88 111 -109 194 -109h130z" />
    <glyph glyph-name="phi.salt" horiz-adv-x="878" 
d="M833 258c0 -143 -77 -258 -347 -270v-183h-95v183c-281 7 -346 132 -346 254s88 232 261 254l19 -76c-90 -9 -185 -70 -185 -177c0 -84 36 -168 251 -179v221c0 102 33 215 198 215c153 0 244 -99 244 -242zM738 251c0 96 -42 173 -146 173c-82 0 -106 -59 -106 -145
v-215c195 8 252 76 252 187z" />
    <glyph glyph-name="cyrBreve" horiz-adv-x="375" 
d="M316 895l75 -25c-21 -81 -102 -110 -202 -110c-101 0 -181 29 -202 110l75 25c7 -23 38 -63 127 -63c78 0 112 23 127 63z" />
    <glyph glyph-name="psi.salt" horiz-adv-x="913" 
d="M848 253c0 -169 -100 -256 -344 -265v-183h-95v183c-244 9 -344 72 -344 265v235h94v-239c0 -150 89 -175 250 -185v423h95v-423c165 10 250 57 250 184v240h94v-235z" />
    </font>
</defs>
</svg>
