<svg xmlns="http://www.w3.org/2000/svg" width="19" height="19"><path fill-rule="evenodd" fill="#FFF" d="M17 19h-1c-1 0-2-1-2-2v-1c0-1 1-2 2-2h1c1 0 2 1 2 2v1c0 1-1 2-2 2zm.7-3c0-.4-.3-.7-.7-.7h-1c-.4 0-.7.3-.7.7v1c0 .4.3.7.7.7h1c.4 0 .7-.3.7-.7v-1zm-.7-4h-1c-1 0-2-1-2-2V9c0-1 1-2 2-2h1c1 0 2 1 2 2v1c0 1-1 2-2 2zm.7-3c0-.4-.3-.7-.7-.7h-1c-.4 0-.7.3-.7.7v1c0 .4.3.7.7.7h1c.4 0 .7-.3.7-.7V9zM17 5h-1c-1 0-2-1-2-2V2c0-1 1-2 2-2h1c1 0 2 1 2 2v1c0 1-1 2-2 2zm.7-3c0-.4-.3-.7-.7-.7h-1c-.4 0-.7.3-.7.7v1c0 .4.3.7.7.7h1c.4 0 .7-.3.7-.7V2zM10 19H9c-1 0-2-1-2-2v-1c0-1 1-2 2-2h1c1 0 2 1 2 2v1c0 1-1 2-2 2zm.7-3c0-.4-.3-.7-.7-.7H9c-.4 0-.7.3-.7.7v1c0 .4.3.7.7.7h1c.4 0 .7-.3.7-.7v-1zm-.7-4H9c-1 0-2-1-2-2V9c0-1 1-2 2-2h1c1 0 2 1 2 2v1c0 1-1 2-2 2zm.7-3c0-.4-.3-.7-.7-.7H9c-.4 0-.7.3-.7.7v1c0 .4.3.7.7.7h1c.4 0 .7-.3.7-.7V9zM10 5H9C8 5 7 4 7 3V2c0-1 1-2 2-2h1c1 0 2 1 2 2v1c0 1-1 2-2 2zm.7-3c0-.4-.3-.7-.7-.7H9c-.4 0-.7.3-.7.7v1c0 .4.3.7.7.7h1c.4 0 .7-.3.7-.7V2zM3 19H2c-1 0-2-1-2-2v-1c0-1 1-2 2-2h1c1 0 2 1 2 2v1c0 1-1 2-2 2zm.7-3c0-.4-.3-.7-.7-.7H2c-.4 0-.7.3-.7.7v1c0 .4.3.7.7.7h1c.4 0 .7-.3.7-.7v-1zM3 12H2c-1 0-2-1-2-2V9c0-1 1-2 2-2h1c1 0 2 1 2 2v1c0 1-1 2-2 2zm.7-3c0-.4-.3-.7-.7-.7H2c-.4 0-.7.3-.7.7v1c0 .4.3.7.7.7h1c.4 0 .7-.3.7-.7V9zM3 5H2C1 5 0 4 0 3V2c0-1 1-2 2-2h1c1 0 2 1 2 2v1c0 1-1 2-2 2zm.7-3c0-.4-.3-.7-.7-.7H2c-.4 0-.7.3-.7.7v1c0 .4.3.7.7.7h1c.4 0 .7-.3.7-.7V2z"/></svg>