<svg xmlns="http://www.w3.org/2000/svg" xmlns:xlink="http://www.w3.org/1999/xlink" viewBox="0 0 50 50" version="1.1">
<g id="surface1">
<path fill="#fff" d="M 15 2 C 7.832031 2 2 7.832031 2 15 L 2 35 C 2 42.167969 7.832031 48 15 48 L 35 48 C 42.167969 48 48 42.167969 48 35 L 48 15 C 48 7.832031 42.167969 2 35 2 Z M 15 4 L 35 4 C 41.085938 4 46 8.914063 46 15 L 46 35 C 46 41.085938 41.085938 46 35 46 L 15 46 C 8.914063 46 4 41.085938 4 35 L 4 15 C 4 8.914063 8.914063 4 15 4 Z M 38 10 C 36.894531 10 36 10.894531 36 12 C 36 13.105469 36.894531 14 38 14 C 39.105469 14 40 13.105469 40 12 C 40 10.894531 39.105469 10 38 10 Z M 25 13 C 18.382813 13 13 18.382813 13 25 C 13 31.617188 18.382813 37 25 37 C 31.617188 37 37 31.617188 37 25 C 37 18.382813 31.617188 13 25 13 Z M 25 15 C 30.535156 15 35 19.464844 35 25 C 35 30.535156 30.535156 35 25 35 C 19.464844 35 15 30.535156 15 25 C 15 19.464844 19.464844 15 25 15 Z "></path>
</g>
</svg>
