<svg class="logo" xmlns="http://www.w3.org/2000/svg" viewBox="0 0 82 16"><path fill-rule="evenodd" fill="#fff" d="M81.565 15.996 77.761 15.996C77.557 15.996 77.355 15.934 77.187 15.819L66.572 8.536 66.572 15.49C66.572 15.769 66.34 15.996 66.053 15.996L63.585 15.996C63.298 15.996 63.065 15.769 63.065 15.49L63.065.508C63.065.229 63.298.002 63.585.002L66.053.002C66.34.002 66.572.229 66.572.508L66.572 6.794 76.634.169C76.799.06 76.994.002 77.22.002L81.005.002C81.458.002 81.594.532 81.216.775L70.673 7.54 81.786 15.21C82.163 15.472 82.015 15.996 81.565 15.996ZM60.538 15.996 57.308 15.996C57.012 15.996 56.783 15.914 56.603 15.764L49.605 9.947C49.597 9.944 49.59 9.942 49.584 9.939L46.13 9.939 46.13 15.49C46.13 15.77 45.896 15.996 45.609 15.996L43.151 15.996C42.865 15.996 42.63 15.77 42.63 15.49L42.63.606C42.63.273 42.909.002 43.252.002L56.562.002C59.025.002 60.138.963 60.138 3.094L60.134 6.847C60.134 8.978 59.03 9.939 56.578 9.939L56.58 9.937C56.564 9.937 54.418 9.939 54.418 9.939L60.791 15.223C61.156 15.519 60.993 15.996 60.538 15.996ZM55.14 7.258C56.103 7.258 56.592 6.813 56.592 5.934L56.592 4.076C56.592 3.176 56.111 2.73 55.14 2.73L46.134 2.73 46.134 7.258 55.14 7.258ZM39.799 6.458 36.071 6.458 36.071 2.782 24.586 2.782 24.586 6.458 20.858 6.458 20.858 5.167 20.858 3.094C20.858.963 21.963.002 24.414.002L24.41.002C24.529-.003 36.13-.003 36.256.002L36.252.002C38.703.002 39.807.963 39.807 3.094L39.799 5.154 39.799 6.458ZM24.586 9.537 24.586 13.216 36.071 13.216 36.071 9.537 39.799 9.537 39.803 12.902C39.803 15.034 38.698 15.996 36.247 15.996L36.251 15.996C36.132 16 24.532 16 24.405 15.996L24.41 15.996C21.959 15.996 20.854 15.034 20.854 12.902L20.858 9.537 24.586 9.537ZM14.241 15.996.598 15.996C.267 15.996 0 15.735 0 15.413L0 .585C0 .263.267.002.598.002L14.728.002C17.177.002 18.281.963 18.281 3.094L18.28 5.35C18.28 6.673 17.259 7.762 15.942 7.911L15.92 7.924 15.932 7.939C17.314 8.024 18.409 9.141 18.409 10.51L18.409 12.862C18.409 14.904 16.958 15.996 14.241 15.996ZM14.741 4.079C14.741 3.178 14.261 2.733 13.287 2.733L3.496 2.733 3.496 6.634 13.287 6.634C14.253 6.634 14.741 6.189 14.741 5.309L14.741 4.079ZM14.824 10.71C14.824 9.81 14.344 9.364 13.371 9.364L3.496 9.364 3.496 13.265 13.371 13.265C14.337 13.265 14.824 12.82 14.824 11.94L14.824 10.71Z"></path></svg>
