<svg xmlns="http://www.w3.org/2000/svg" width="47" height="46"><path fill-rule="evenodd" fill="#FFF" d="M37.7 45.98c-2.48 0-5.64-1.02-9.38-3.05-5.15-2.8-10.32-6.9-13.17-9.75l-1.4-1.4c-2.85-2.85-6.97-8.02-9.77-13.16-3.48-6.4-4-11.1-1.5-13.58L6 1.52c1.55-1.55 4.08-1.55 5.63 0l6.34 6.34c1.56 1.55 1.56 4.07 0 5.62l-2.1 2.1c-.15.16-.23 1.22.8 3.36.96 2.02 2.5 4.18 4.12 5.8l1.4 1.4c3.8 3.84 8.5 5.5 9.1 4.93l2.1-2.1c1.52-1.56 4.1-1.56 5.6 0l6.33 6.32c1.55 1.5 1.55 4 0 5.6l-3.5 3.5c-1 1.1-2.44 1.6-4.2 1.6zM8.82 2.35c-.5 0-1.02.2-1.4.58L3.88 6.45C2.1 8.23 2.75 12.2 5.72 17.67c2.7 4.97 6.68 9.96 9.42 12.7l1.4 1.4c2.75 2.74 7.75 6.7 12.73 9.4 5.46 2.98 9.45 3.63 11.23 1.85l3.53-3.5c.78-.8.78-2.05 0-2.83l-6.33-6.4c-.8-.8-2.1-.8-2.87 0l-2.1 2.1c-1.28 1.23-3.77.43-5.63-.4-2.2-1.1-4.6-2.8-6.34-4.5l-1.42-1.47c-1.77-1.75-3.45-4.12-4.5-6.33-.9-1.86-1.7-4.35-.43-5.6l2.1-2.1c.8-.77.8-2.03 0-2.8l-6.3-6.3c-.4-.4-.9-.6-1.4-.6z"/></svg>