<svg xmlns:dc="http://purl.org/dc/elements/1.1/" xmlns:cc="http://creativecommons.org/ns#" xmlns:rdf="http://www.w3.org/1999/02/22-rdf-syntax-ns#" xmlns:svg="http://www.w3.org/2000/svg" xmlns="http://www.w3.org/2000/svg" xmlns:sodipodi="http://sodipodi.sourceforge.net/DTD/sodipodi-0.dtd" xmlns:inkscape="http://www.inkscape.org/namespaces/inkscape" viewBox="0 0 24 30" version="1.1" x="0px" y="0px"><g transform="translate(0,-1028.3622)"><path fill="#fff" d="m 6.1406292,1028.3622 0,12 -2.1406292,0 0,2 2.1406292,0 0,2 -2.1406292,0 0,2 2.1406292,0 0,6 2,0 0,-6 4.9999998,0 0,-2 -4.9999998,0 0,-2 5.0019498,0 c 3.79226,-0.01 6.85974,-3.1626 6.85742,-6.9981 -0.002,-3.8339 -3.06407,-7.0019 -6.85937,-7.0019 z m 2,2 4.9999998,0 c 2.68636,0 4.85763,2.2234 4.85937,5.0039 0.002,2.779 -2.17005,4.9918 -4.85937,4.9961 l -4.9999998,0 z"/></g></svg>
