<svg xmlns="http://www.w3.org/2000/svg" width="53" height="53"><path fill-rule="evenodd" fill="#FFF" d="M48.26 24.98c-2.67 2.65-6.23 4.1-10.02 4.1-1.4.02-2.8-.2-4.15-.6l-21.4 22.1c-1.5 1.5-3.5 2.37-5.6 2.37-2 0-3.8-.73-5.1-2.07-1.3-1.36-2-3.18-2-5.13 0-2.03.9-4.02 2.4-5.44l22.2-21.2c-1.5-4.9-.2-10.3 3.52-14C30.86 2.4 34.4 1 38.2 1c2.02 0 3.97.4 5.8 1.23.6.26 1.03.8 1.15 1.45.12.68-.1 1.3-.55 1.8l-6.5 6.46c-.6.68-1 1.6-1 2.57 0 1 .4 1.9 1.07 2.6.7.7 1.6 1.1 2.6 1.1s1.9-.33 2.6-1.02l5.52-5.5c.4-.37.9-.57 1.4-.57.2 0 .4.04.6.1.7.2 1.2.8 1.3 1.55.8 4.54-.66 9.2-3.93 12.44zm1.96-12.1l-5.53 5.5c-1.1 1.1-2.6 1.64-4 1.64-1.5 0-2.9-.55-4-1.64-2.2-2.2-2.2-5.77 0-7.95l6.5-6.46c-1.6-.7-3.3-1.05-5-1.05-3.1 0-6.2 1.17-8.6 3.53-3.6 3.6-4.5 8.92-2.6 13.33-.3.17-.6.36-.9.62L3.8 41.74c-2.24 2.13-2.38 5.64-.27 7.74 1.07 1 2.4 1.5 3.7 1.5 1.5 0 3-.6 4.1-1.77L32.8 27c.25-.26.45-.56.62-.86 1.54.66 3.2 1 4.84 1 3.12 0 6.23-1.2 8.6-3.55 2.93-2.9 4.05-7 3.38-10.7zM7.48 47.82h-.1c-.54-.03-1.03-.26-1.38-.66-.36-.4-.54-.9-.52-1.42.03-.53.26-1.02.66-1.38.4-.35.9-.52 1.43-.5 1.1.05 1.95.98 1.9 2.07-.03.53-.26 1.02-.66 1.38-.3.4-.8.6-1.3.6z"/></svg>