<svg xmlns="http://www.w3.org/2000/svg" width="21px" height="12px" viewBox="0 0 21 12">
<path fill="#fff" d="M9.87 11.956 11.071 11.956C11.071 11.956 11.432 11.916 11.617 11.716 11.787 11.533 11.782 11.19 11.782 11.19 11.782 11.19 11.758 9.577 12.505 9.339 13.24 9.106 14.188 10.898 15.191 11.587 15.948 12.108 16.524 11.994 16.524 11.994L19.205 11.956C19.205 11.956 20.606 11.869 19.941 10.766 19.886 10.675 19.554 9.949 17.949 8.456 16.266 6.895 16.494 7.147 18.517 4.446 19.751 2.8 20.243 1.795 20.088 1.365 19.942.955 19.036 1.063 19.036 1.063L16.018 1.082C16.018 1.082 15.793 1.051 15.627 1.151 15.466 1.247 15.361 1.475 15.361 1.475 15.361 1.475 14.883 2.748 14.246 3.831 12.904 6.117 12.366 6.237 12.146 6.095 11.635 5.765 11.762 4.767 11.762 4.058 11.762 1.843 12.099.921 11.111.681 10.781.602 10.541.549 9.7.541 8.624.529 7.715.544 7.198.798 6.854.966 6.59 1.341 6.751 1.362 6.952 1.389 7.403 1.484 7.642 1.811 7.951 2.232 7.939 3.178 7.939 3.178 7.939 3.178 8.116 5.785 7.526 6.109 7.118 6.331 6.561 5.878 5.362 3.805 4.75 2.742 4.285 1.568 4.285 1.568 4.285 1.568 4.195 1.349 4.036 1.232 3.843 1.089 3.574 1.045 3.574 1.045L.707 1.063C.707 1.063.275 1.075.117 1.263-.023 1.429.106 1.775.106 1.775.106 1.775 2.35 7.034 4.891 9.685 7.223 12.116 9.87 11.956 9.87 11.956L9.87 11.956Z"></path>
</svg>
